STARTFONT 2.1
FONT -FontForge-Roboto Medium-Medium-R-Normal--16-160-72-72-P-90-ISO10646-1
SIZE 16 72 72
FONTBOUNDINGBOX 31 22 -12 -4
COMMENT "Generated by fontforge, http://fontforge.sourceforge.net"
COMMENT "Copyright 2011 Google Inc. All Rights Reserved."
STARTPROPERTIES 41
FOUNDRY "FontForge"
FAMILY_NAME "Roboto Medium"
WEIGHT_NAME "Medium"
SLANT "R"
SETWIDTH_NAME "Normal"
ADD_STYLE_NAME ""
PIXEL_SIZE 16
POINT_SIZE 160
RESOLUTION_X 72
RESOLUTION_Y 72
SPACING "P"
AVERAGE_WIDTH 90
CHARSET_REGISTRY "ISO10646"
CHARSET_ENCODING "1"
FONTNAME_REGISTRY ""
CHARSET_COLLECTIONS "ISO8859-2 ISO8859-5 ISO8859-7 ISO8859-9 ISO8859-4 ISO10646-1"
FONT_NAME "Roboto-Medium"
FACE_NAME "Roboto Medium"
COPYRIGHT "Copyright 2011 Google Inc. All Rights Reserved."
FONT_VERSION "2.137; 2017"
FONT_ASCENT 12
FONT_DESCENT 4
UNDERLINE_POSITION -2
UNDERLINE_THICKNESS 1
X_HEIGHT 8
CAP_HEIGHT 11
DEFAULT_CHAR 1
RAW_ASCENT 750
RAW_DESCENT 250
NORM_SPACE 4
RELATIVE_WEIGHT 50
RELATIVE_SETWIDTH 50
SUPERSCRIPT_X 0
SUPERSCRIPT_Y 7
SUPERSCRIPT_SIZE 10
SUBSCRIPT_X 0
SUBSCRIPT_Y 2
SUBSCRIPT_SIZE 10
FIGURE_WIDTH 9
AVG_LOWERCASE_WIDTH 88
AVG_UPPERCASE_WIDTH 106
ENDPROPERTIES
CHARS 1296
STARTCHAR glyph1.dup1
ENCODING 0
SWIDTH 0 0
DWIDTH 0 0
BBX 1 1 0 0
BITMAP
00
ENDCHAR
STARTCHAR uni0002
ENCODING 2
SWIDTH 0 0
DWIDTH 0 0
BBX 1 1 0 0
BITMAP
00
ENDCHAR
STARTCHAR uni000D
ENCODING 13
SWIDTH 249 0
DWIDTH 4 0
BBX 1 1 0 0
BITMAP
00
ENDCHAR
STARTCHAR space
ENCODING 32
SWIDTH 249 0
DWIDTH 4 0
BBX 1 1 0 0
BITMAP
00
ENDCHAR
STARTCHAR exclam
ENCODING 33
SWIDTH 268 0
DWIDTH 4 0
BBX 2 12 1 0
BITMAP
C0
C0
C0
C0
C0
C0
C0
C0
C0
00
C0
C0
ENDCHAR
STARTCHAR quotedbl
ENCODING 34
SWIDTH 324 0
DWIDTH 5 0
BBX 4 4 1 8
BITMAP
B0
A0
A0
A0
ENDCHAR
STARTCHAR numbersign
ENCODING 35
SWIDTH 610 0
DWIDTH 10 0
BBX 8 12 1 0
BITMAP
12
12
12
FF
26
24
24
FF
64
6C
6C
48
ENDCHAR
STARTCHAR dollar
ENCODING 36
SWIDTH 568 0
DWIDTH 9 0
BBX 7 16 1 -2
BITMAP
10
10
3C
46
C6
C6
60
38
0C
06
C6
C6
C6
7C
10
10
ENDCHAR
STARTCHAR percent
ENCODING 37
SWIDTH 734 0
DWIDTH 12 0
BBX 10 12 1 0
BITMAP
7000
9800
9900
9B00
7200
0400
0C00
0B80
1640
3640
2640
0380
ENDCHAR
STARTCHAR ampersand
ENCODING 38
SWIDTH 639 0
DWIDTH 10 0
BBX 9 12 1 0
BITMAP
3800
6C00
4400
CC00
7C00
3000
7900
D900
8F00
C700
C700
7F80
ENDCHAR
STARTCHAR quotesingle
ENCODING 39
SWIDTH 168 0
DWIDTH 3 0
BBX 1 4 1 8
BITMAP
80
80
80
80
ENDCHAR
STARTCHAR parenleft
ENCODING 40
SWIDTH 348 0
DWIDTH 6 0
BBX 4 17 1 -4
BITMAP
10
30
20
60
40
40
C0
C0
C0
C0
C0
40
40
60
20
30
10
ENDCHAR
STARTCHAR parenright
ENCODING 41
SWIDTH 352 0
DWIDTH 6 0
BBX 5 17 0 -4
BITMAP
40
E0
20
30
30
10
18
18
18
18
18
10
10
30
20
60
C0
ENDCHAR
STARTCHAR asterisk
ENCODING 42
SWIDTH 441 0
DWIDTH 7 0
BBX 7 6 0 6
BITMAP
10
10
FE
10
28
6C
ENDCHAR
STARTCHAR plus
ENCODING 43
SWIDTH 557 0
DWIDTH 9 0
BBX 7 7 1 2
BITMAP
10
10
10
FE
10
10
10
ENDCHAR
STARTCHAR comma
ENCODING 44
SWIDTH 219 0
DWIDTH 4 0
BBX 3 4 0 -2
BITMAP
60
60
60
C0
ENDCHAR
STARTCHAR hyphen
ENCODING 45
SWIDTH 328 0
DWIDTH 5 0
BBX 4 1 1 5
BITMAP
F0
ENDCHAR
STARTCHAR period
ENCODING 46
SWIDTH 279 0
DWIDTH 4 0
BBX 2 2 1 0
BITMAP
C0
C0
ENDCHAR
STARTCHAR slash
ENCODING 47
SWIDTH 395 0
DWIDTH 6 0
BBX 6 13 0 -1
BITMAP
0C
08
08
18
10
10
30
20
20
60
40
40
C0
ENDCHAR
STARTCHAR zero
ENCODING 48
SWIDTH 568 0
DWIDTH 9 0
BBX 7 12 1 0
BITMAP
78
44
C6
C6
C6
C6
C6
C6
C6
C6
44
38
ENDCHAR
STARTCHAR one
ENCODING 49
SWIDTH 568 0
DWIDTH 9 0
BBX 5 12 1 0
BITMAP
08
78
D8
18
18
18
18
18
18
18
18
18
ENDCHAR
STARTCHAR two
ENCODING 50
SWIDTH 568 0
DWIDTH 9 0
BBX 7 12 1 0
BITMAP
7C
C6
C6
06
06
0C
1C
18
30
60
E0
FE
ENDCHAR
STARTCHAR three
ENCODING 51
SWIDTH 568 0
DWIDTH 9 0
BBX 7 12 1 0
BITMAP
7C
C6
C6
06
04
38
06
06
06
86
C6
78
ENDCHAR
STARTCHAR four
ENCODING 52
SWIDTH 568 0
DWIDTH 9 0
BBX 9 12 0 0
BITMAP
0600
0E00
0E00
1E00
1600
3600
6600
6600
FF80
0600
0600
0600
ENDCHAR
STARTCHAR five
ENCODING 53
SWIDTH 568 0
DWIDTH 9 0
BBX 7 12 1 0
BITMAP
7E
40
40
40
FC
C6
06
06
06
C6
46
3C
ENDCHAR
STARTCHAR six
ENCODING 54
SWIDTH 568 0
DWIDTH 9 0
BBX 7 12 1 0
BITMAP
1C
30
60
C0
FC
C6
C6
C6
C6
C6
66
3C
ENDCHAR
STARTCHAR seven
ENCODING 55
SWIDTH 568 0
DWIDTH 9 0
BBX 7 12 1 0
BITMAP
FE
06
06
0C
0C
08
18
18
30
30
20
60
ENDCHAR
STARTCHAR eight
ENCODING 56
SWIDTH 568 0
DWIDTH 9 0
BBX 7 12 1 0
BITMAP
7C
C6
C6
C6
C6
38
C6
C6
C6
C6
C6
7C
ENDCHAR
STARTCHAR nine
ENCODING 57
SWIDTH 568 0
DWIDTH 9 0
BBX 7 12 1 0
BITMAP
78
CC
C6
C6
C6
C6
7E
06
06
0C
1C
70
ENDCHAR
STARTCHAR colon
ENCODING 58
SWIDTH 265 0
DWIDTH 4 0
BBX 2 9 1 0
BITMAP
C0
C0
00
00
00
00
00
C0
C0
ENDCHAR
STARTCHAR semicolon
ENCODING 59
SWIDTH 237 0
DWIDTH 4 0
BBX 2 11 1 -2
BITMAP
C0
C0
00
00
00
00
00
C0
C0
C0
80
ENDCHAR
STARTCHAR less
ENCODING 60
SWIDTH 508 0
DWIDTH 8 0
BBX 7 7 0 2
BITMAP
02
0E
78
E0
78
1E
06
ENDCHAR
STARTCHAR equal
ENCODING 61
SWIDTH 559 0
DWIDTH 9 0
BBX 7 4 1 3
BITMAP
FE
00
00
FE
ENDCHAR
STARTCHAR greater
ENCODING 62
SWIDTH 520 0
DWIDTH 8 0
BBX 7 7 1 2
BITMAP
80
E0
3C
0E
3C
F0
C0
ENDCHAR
STARTCHAR question
ENCODING 63
SWIDTH 486 0
DWIDTH 8 0
BBX 6 12 1 0
BITMAP
78
CC
CC
0C
0C
1C
38
30
30
00
30
30
ENDCHAR
STARTCHAR at
ENCODING 64
SWIDTH 894 0
DWIDTH 14 0
BBX 12 15 1 -4
BITMAP
0F80
3060
6020
4710
CD90
8990
9990
9990
9910
9990
8EE0
C000
4000
3100
1F80
ENDCHAR
STARTCHAR A
ENCODING 65
SWIDTH 665 0
DWIDTH 11 0
BBX 11 12 0 0
BITMAP
0C00
0E00
0E00
1A00
1B00
3300
3180
3180
7F80
60C0
60C0
C0E0
ENDCHAR
STARTCHAR B
ENCODING 66
SWIDTH 630 0
DWIDTH 10 0
BBX 8 12 1 0
BITMAP
FC
C3
C3
C3
C7
FC
C3
C3
C3
C3
C3
FE
ENDCHAR
STARTCHAR C
ENCODING 67
SWIDTH 652 0
DWIDTH 10 0
BBX 9 12 1 0
BITMAP
3E00
6300
C300
C080
C000
C000
C000
C000
C000
C380
6300
3E00
ENDCHAR
STARTCHAR D
ENCODING 68
SWIDTH 653 0
DWIDTH 10 0
BBX 8 12 1 0
BITMAP
FC
C6
C3
C3
C3
C3
C3
C3
C3
C3
C6
FC
ENDCHAR
STARTCHAR E
ENCODING 69
SWIDTH 565 0
DWIDTH 9 0
BBX 8 12 1 0
BITMAP
FF
C0
C0
C0
C0
FE
C0
C0
C0
C0
C0
FF
ENDCHAR
STARTCHAR F
ENCODING 70
SWIDTH 549 0
DWIDTH 9 0
BBX 7 12 1 0
BITMAP
FE
C0
C0
C0
C0
FE
C0
C0
C0
C0
C0
C0
ENDCHAR
STARTCHAR G
ENCODING 71
SWIDTH 680 0
DWIDTH 11 0
BBX 9 12 1 0
BITMAP
3E00
6300
C180
C000
C000
C000
C780
C180
C180
4180
6180
3E00
ENDCHAR
STARTCHAR H
ENCODING 72
SWIDTH 710 0
DWIDTH 11 0
BBX 9 12 1 0
BITMAP
C180
C180
C180
C180
C180
FF80
C180
C180
C180
C180
C180
C180
ENDCHAR
STARTCHAR I
ENCODING 73
SWIDTH 282 0
DWIDTH 5 0
BBX 2 12 1 0
BITMAP
C0
C0
C0
C0
C0
C0
C0
C0
C0
C0
C0
C0
ENDCHAR
STARTCHAR J
ENCODING 74
SWIDTH 555 0
DWIDTH 9 0
BBX 8 12 0 0
BITMAP
03
03
03
03
03
03
03
03
03
C3
66
3C
ENDCHAR
STARTCHAR K
ENCODING 75
SWIDTH 630 0
DWIDTH 10 0
BBX 9 12 1 0
BITMAP
C380
C700
C600
CC00
D800
D800
FC00
EC00
C600
C700
C300
C180
ENDCHAR
STARTCHAR L
ENCODING 76
SWIDTH 541 0
DWIDTH 9 0
BBX 7 12 1 0
BITMAP
C0
C0
C0
C0
C0
C0
C0
C0
C0
C0
C0
FE
ENDCHAR
STARTCHAR M
ENCODING 77
SWIDTH 875 0
DWIDTH 14 0
BBX 12 12 1 0
BITMAP
E070
E070
F0F0
F0F0
D0B0
D9B0
D9B0
C930
CF30
CF30
C630
C630
ENDCHAR
STARTCHAR N
ENCODING 78
SWIDTH 709 0
DWIDTH 11 0
BBX 9 12 1 0
BITMAP
C180
E180
E180
F180
F980
D980
CD80
CD80
C780
C780
C380
C180
ENDCHAR
STARTCHAR O
ENCODING 79
SWIDTH 690 0
DWIDTH 11 0
BBX 9 12 1 0
BITMAP
3E00
6300
C180
C180
C180
C180
C180
C180
C180
C180
6300
3E00
ENDCHAR
STARTCHAR P
ENCODING 80
SWIDTH 639 0
DWIDTH 10 0
BBX 9 12 1 0
BITMAP
FE00
C300
C300
C180
C300
C300
FE00
C000
C000
C000
C000
C000
ENDCHAR
STARTCHAR Q
ENCODING 81
SWIDTH 690 0
DWIDTH 11 0
BBX 9 14 1 -2
BITMAP
3E00
6300
C100
C180
C180
C180
C180
C180
C180
C180
6300
3F00
0380
0100
ENDCHAR
STARTCHAR R
ENCODING 82
SWIDTH 624 0
DWIDTH 10 0
BBX 9 12 1 0
BITMAP
FE00
C300
C300
C300
C300
C300
FE00
C600
C600
C300
C300
C380
ENDCHAR
STARTCHAR S
ENCODING 83
SWIDTH 603 0
DWIDTH 10 0
BBX 8 12 1 0
BITMAP
3C
63
C3
C3
E0
70
1C
07
C3
C3
63
3E
ENDCHAR
STARTCHAR T
ENCODING 84
SWIDTH 606 0
DWIDTH 10 0
BBX 9 12 0 0
BITMAP
FF80
0C00
0C00
0C00
0C00
0C00
0C00
0C00
0C00
0C00
0C00
0C00
ENDCHAR
STARTCHAR U
ENCODING 85
SWIDTH 651 0
DWIDTH 10 0
BBX 8 12 1 0
BITMAP
C3
C3
C3
C3
C3
C3
C3
C3
C3
C3
42
3C
ENDCHAR
STARTCHAR V
ENCODING 86
SWIDTH 646 0
DWIDTH 10 0
BBX 10 12 0 0
BITMAP
C0C0
E1C0
6180
6180
6380
3300
3300
1200
1E00
1E00
0C00
0C00
ENDCHAR
STARTCHAR W
ENCODING 87
SWIDTH 879 0
DWIDTH 14 0
BBX 14 12 0 0
BITMAP
C30C
6318
6318
6798
6798
2498
3490
3CF0
3CF0
3870
1860
1860
ENDCHAR
STARTCHAR X
ENCODING 88
SWIDTH 632 0
DWIDTH 10 0
BBX 10 12 0 0
BITMAP
E1C0
7180
3300
3B00
1E00
0E00
0E00
1E00
3B00
3300
6180
E1C0
ENDCHAR
STARTCHAR Y
ENCODING 89
SWIDTH 609 0
DWIDTH 10 0
BBX 10 12 0 0
BITMAP
C1C0
6180
6300
3300
3600
1E00
1C00
0C00
0C00
0C00
0C00
0C00
ENDCHAR
STARTCHAR Z
ENCODING 90
SWIDTH 602 0
DWIDTH 10 0
BBX 8 12 1 0
BITMAP
FF
06
06
0C
1C
18
38
30
60
60
C0
FF
ENDCHAR
STARTCHAR bracketleft
ENCODING 91
SWIDTH 273 0
DWIDTH 4 0
BBX 3 16 1 -3
BITMAP
E0
C0
C0
C0
C0
C0
C0
C0
C0
C0
C0
C0
C0
C0
C0
E0
ENDCHAR
STARTCHAR backslash
ENCODING 92
SWIDTH 417 0
DWIDTH 7 0
BBX 7 13 0 -1
BITMAP
C0
60
60
60
30
30
10
18
18
0C
0C
0C
06
ENDCHAR
STARTCHAR bracketright
ENCODING 93
SWIDTH 273 0
DWIDTH 4 0
BBX 3 16 0 -3
BITMAP
E0
60
60
60
60
60
60
60
60
60
60
60
60
60
60
E0
ENDCHAR
STARTCHAR asciicircum
ENCODING 94
SWIDTH 427 0
DWIDTH 7 0
BBX 7 6 0 6
BITMAP
10
38
28
6C
6C
C6
ENDCHAR
STARTCHAR underscore
ENCODING 95
SWIDTH 451 0
DWIDTH 7 0
BBX 7 1 0 -1
BITMAP
FE
ENDCHAR
STARTCHAR grave
ENCODING 96
SWIDTH 322 0
DWIDTH 5 0
BBX 4 2 0 10
BITMAP
E0
30
ENDCHAR
STARTCHAR a
ENCODING 97
SWIDTH 541 0
DWIDTH 9 0
BBX 7 9 1 0
BITMAP
7C
CC
C6
06
7E
C6
C6
CE
76
ENDCHAR
STARTCHAR b
ENCODING 98
SWIDTH 562 0
DWIDTH 9 0
BBX 7 12 1 0
BITMAP
C0
C0
C0
FC
C6
C6
C6
C6
C6
C6
C6
FC
ENDCHAR
STARTCHAR c
ENCODING 99
SWIDTH 523 0
DWIDTH 8 0
BBX 8 9 0 0
BITMAP
3C
66
63
C0
C0
C0
63
66
3C
ENDCHAR
STARTCHAR d
ENCODING 100
SWIDTH 564 0
DWIDTH 9 0
BBX 7 12 1 0
BITMAP
06
06
06
7E
C6
C6
C6
C6
C6
C6
C6
7E
ENDCHAR
STARTCHAR e
ENCODING 101
SWIDTH 536 0
DWIDTH 9 0
BBX 7 9 1 0
BITMAP
3C
66
C6
C6
FE
C0
C4
66
3C
ENDCHAR
STARTCHAR f
ENCODING 102
SWIDTH 354 0
DWIDTH 6 0
BBX 5 12 1 0
BITMAP
38
60
60
F0
60
60
60
60
60
60
60
60
ENDCHAR
STARTCHAR g
ENCODING 103
SWIDTH 566 0
DWIDTH 9 0
BBX 7 12 1 -3
BITMAP
7E
C6
C6
C6
86
C6
C6
C6
7E
06
C4
78
ENDCHAR
STARTCHAR h
ENCODING 104
SWIDTH 555 0
DWIDTH 9 0
BBX 7 12 1 0
BITMAP
C0
C0
C0
DC
E6
C6
C6
C6
C6
C6
C6
C6
ENDCHAR
STARTCHAR i
ENCODING 105
SWIDTH 255 0
DWIDTH 4 0
BBX 2 12 1 0
BITMAP
C0
C0
00
C0
C0
C0
C0
C0
C0
C0
C0
C0
ENDCHAR
STARTCHAR j
ENCODING 106
SWIDTH 250 0
DWIDTH 4 0
BBX 4 15 -1 -3
BITMAP
30
30
00
30
30
30
30
30
30
30
30
30
30
30
E0
ENDCHAR
STARTCHAR k
ENCODING 107
SWIDTH 521 0
DWIDTH 8 0
BBX 7 12 1 0
BITMAP
C0
C0
C0
CE
CC
D8
F0
F0
D8
CC
CC
C6
ENDCHAR
STARTCHAR l
ENCODING 108
SWIDTH 255 0
DWIDTH 4 0
BBX 2 12 1 0
BITMAP
C0
C0
C0
C0
C0
C0
C0
C0
C0
C0
C0
C0
ENDCHAR
STARTCHAR m
ENCODING 109
SWIDTH 870 0
DWIDTH 14 0
BBX 12 9 1 0
BITMAP
FDE0
C630
C630
C630
C630
C630
C630
C630
C630
ENDCHAR
STARTCHAR n
ENCODING 110
SWIDTH 556 0
DWIDTH 9 0
BBX 7 9 1 0
BITMAP
DC
E6
C6
C6
C6
C6
C6
C6
C6
ENDCHAR
STARTCHAR o
ENCODING 111
SWIDTH 569 0
DWIDTH 9 0
BBX 7 9 1 0
BITMAP
38
C6
C6
C6
82
C6
C6
C6
38
ENDCHAR
STARTCHAR p
ENCODING 112
SWIDTH 562 0
DWIDTH 9 0
BBX 7 12 1 -3
BITMAP
FC
C6
C6
C6
C6
C6
C6
C6
FC
C0
C0
C0
ENDCHAR
STARTCHAR q
ENCODING 113
SWIDTH 567 0
DWIDTH 9 0
BBX 7 12 1 -3
BITMAP
7E
C6
C6
C6
86
C6
C6
C6
7E
06
06
06
ENDCHAR
STARTCHAR r
ENCODING 114
SWIDTH 351 0
DWIDTH 6 0
BBX 5 9 1 0
BITMAP
D8
E0
C0
C0
C0
C0
C0
C0
C0
ENDCHAR
STARTCHAR s
ENCODING 115
SWIDTH 516 0
DWIDTH 8 0
BBX 7 9 0 0
BITMAP
3C
66
66
70
3C
06
C2
66
3C
ENDCHAR
STARTCHAR t
ENCODING 116
SWIDTH 332 0
DWIDTH 5 0
BBX 5 11 0 0
BITMAP
60
60
F8
60
60
60
60
60
60
60
38
ENDCHAR
STARTCHAR u
ENCODING 117
SWIDTH 555 0
DWIDTH 9 0
BBX 7 9 1 0
BITMAP
C6
C6
C6
C6
C6
C6
C6
C6
7E
ENDCHAR
STARTCHAR v
ENCODING 118
SWIDTH 494 0
DWIDTH 8 0
BBX 8 9 0 0
BITMAP
C3
66
66
66
24
3C
3C
18
18
ENDCHAR
STARTCHAR w
ENCODING 119
SWIDTH 743 0
DWIDTH 12 0
BBX 12 9 0 0
BITMAP
C630
4660
6660
6F60
6B40
2940
39C0
39C0
3080
ENDCHAR
STARTCHAR x
ENCODING 120
SWIDTH 502 0
DWIDTH 8 0
BBX 8 9 0 0
BITMAP
E7
66
3C
3C
18
3C
3C
66
E7
ENDCHAR
STARTCHAR y
ENCODING 121
SWIDTH 486 0
DWIDTH 8 0
BBX 8 12 0 -3
BITMAP
C3
66
66
66
3C
3C
3C
18
18
18
10
60
ENDCHAR
STARTCHAR z
ENCODING 122
SWIDTH 502 0
DWIDTH 8 0
BBX 7 9 1 0
BITMAP
FC
0C
18
38
30
70
60
C0
FE
ENDCHAR
STARTCHAR braceleft
ENCODING 123
SWIDTH 335 0
DWIDTH 5 0
BBX 5 15 0 -3
BITMAP
18
30
30
30
30
30
60
C0
60
30
30
30
30
30
18
ENDCHAR
STARTCHAR bar
ENCODING 124
SWIDTH 250 0
DWIDTH 4 0
BBX 2 14 1 -2
BITMAP
C0
C0
C0
C0
C0
C0
C0
C0
C0
C0
C0
C0
C0
C0
ENDCHAR
STARTCHAR braceright
ENCODING 125
SWIDTH 335 0
DWIDTH 5 0
BBX 5 15 0 -3
BITMAP
C0
60
60
60
60
60
30
18
30
60
60
60
60
60
C0
ENDCHAR
STARTCHAR asciitilde
ENCODING 126
SWIDTH 664 0
DWIDTH 11 0
BBX 9 3 1 3
BITMAP
7180
C980
C700
ENDCHAR
STARTCHAR uni00A0
ENCODING 160
SWIDTH 249 0
DWIDTH 4 0
BBX 1 1 0 0
BITMAP
00
ENDCHAR
STARTCHAR exclamdown
ENCODING 161
SWIDTH 264 0
DWIDTH 4 0
BBX 2 12 1 -3
BITMAP
C0
C0
00
C0
C0
C0
C0
C0
C0
C0
C0
C0
ENDCHAR
STARTCHAR cent
ENCODING 162
SWIDTH 561 0
DWIDTH 9 0
BBX 7 13 1 -2
BITMAP
10
10
3C
46
C6
C0
C0
C0
C6
46
3C
10
10
ENDCHAR
STARTCHAR sterling
ENCODING 163
SWIDTH 588 0
DWIDTH 9 0
BBX 8 12 1 0
BITMAP
3C
66
63
60
60
60
F8
60
60
60
60
FF
ENDCHAR
STARTCHAR currency
ENCODING 164
SWIDTH 701 0
DWIDTH 11 0
BBX 10 10 1 0
BITMAP
BE80
E3C0
C180
C180
8080
8080
C180
C180
E380
BEC0
ENDCHAR
STARTCHAR yen
ENCODING 165
SWIDTH 531 0
DWIDTH 9 0
BBX 9 12 0 0
BITMAP
E380
6300
6300
3600
3600
1C00
7F00
1800
7F00
1800
1800
1800
ENDCHAR
STARTCHAR brokenbar
ENCODING 166
SWIDTH 248 0
DWIDTH 4 0
BBX 2 14 1 -2
BITMAP
C0
C0
C0
C0
C0
C0
C0
00
C0
C0
C0
C0
C0
C0
ENDCHAR
STARTCHAR section
ENCODING 167
SWIDTH 621 0
DWIDTH 10 0
BBX 8 16 1 -4
BITMAP
3C
66
C3
C3
C0
70
DE
C3
C3
73
1E
07
C3
C3
C6
3C
ENDCHAR
STARTCHAR dieresis
ENCODING 168
SWIDTH 439 0
DWIDTH 7 0
BBX 5 2 1 10
BITMAP
D8
D8
ENDCHAR
STARTCHAR copyright
ENCODING 169
SWIDTH 783 0
DWIDTH 13 0
BBX 11 12 1 0
BITMAP
1F00
2180
4E40
9340
9120
9020
9020
9120
9340
4E40
2180
1F00
ENDCHAR
STARTCHAR ordfeminine
ENCODING 170
SWIDTH 445 0
DWIDTH 7 0
BBX 5 6 1 6
BITMAP
F0
18
78
D8
98
68
ENDCHAR
STARTCHAR guillemotleft
ENCODING 171
SWIDTH 485 0
DWIDTH 8 0
BBX 6 6 1 1
BITMAP
2C
48
D0
F0
48
2C
ENDCHAR
STARTCHAR logicalnot
ENCODING 172
SWIDTH 553 0
DWIDTH 9 0
BBX 7 3 1 3
BITMAP
FE
06
06
ENDCHAR
STARTCHAR uni00AD
ENCODING 173
SWIDTH 328 0
DWIDTH 5 0
BBX 4 1 1 5
BITMAP
F0
ENDCHAR
STARTCHAR registered
ENCODING 174
SWIDTH 783 0
DWIDTH 13 0
BBX 11 12 1 0
BITMAP
1F00
2180
5E40
9140
9120
9E20
9120
9120
9140
4040
2180
1F00
ENDCHAR
STARTCHAR macron
ENCODING 175
SWIDTH 481 0
DWIDTH 8 0
BBX 6 1 1 10
BITMAP
FC
ENDCHAR
STARTCHAR degree
ENCODING 176
SWIDTH 379 0
DWIDTH 6 0
BBX 4 4 1 8
BITMAP
60
90
90
60
ENDCHAR
STARTCHAR plusminus
ENCODING 177
SWIDTH 536 0
DWIDTH 9 0
BBX 7 10 1 0
BITMAP
10
10
10
FE
10
10
10
10
00
FE
ENDCHAR
STARTCHAR uni00B2
ENCODING 178
SWIDTH 370 0
DWIDTH 6 0
BBX 5 7 0 5
BITMAP
78
48
88
18
30
60
78
ENDCHAR
STARTCHAR uni00B3
ENCODING 179
SWIDTH 370 0
DWIDTH 6 0
BBX 5 7 0 5
BITMAP
78
08
30
08
08
C8
70
ENDCHAR
STARTCHAR acute
ENCODING 180
SWIDTH 325 0
DWIDTH 5 0
BBX 4 2 1 10
BITMAP
70
C0
ENDCHAR
STARTCHAR mu
ENCODING 181
SWIDTH 591 0
DWIDTH 9 0
BBX 7 12 1 -3
BITMAP
C6
C6
C6
C6
C6
C6
C6
C6
FE
C0
C0
C0
ENDCHAR
STARTCHAR paragraph
ENCODING 182
SWIDTH 490 0
DWIDTH 8 0
BBX 6 12 1 0
BITMAP
7C
FC
FC
FC
FC
FC
FC
3C
0C
0C
0C
0C
ENDCHAR
STARTCHAR periodcentered
ENCODING 183
SWIDTH 282 0
DWIDTH 5 0
BBX 3 2 1 5
BITMAP
C0
E0
ENDCHAR
STARTCHAR cedilla
ENCODING 184
SWIDTH 257 0
DWIDTH 4 0
BBX 3 4 1 -4
BITMAP
80
40
60
C0
ENDCHAR
STARTCHAR uni00B9
ENCODING 185
SWIDTH 370 0
DWIDTH 6 0
BBX 3 7 1 5
BITMAP
20
E0
20
20
20
20
20
ENDCHAR
STARTCHAR ordmasculine
ENCODING 186
SWIDTH 456 0
DWIDTH 7 0
BBX 5 6 1 6
BITMAP
70
88
88
88
88
70
ENDCHAR
STARTCHAR guillemotright
ENCODING 187
SWIDTH 485 0
DWIDTH 8 0
BBX 6 6 1 1
BITMAP
90
48
6C
6C
48
90
ENDCHAR
STARTCHAR onequarter
ENCODING 188
SWIDTH 726 0
DWIDTH 12 0
BBX 10 12 1 0
BITMAP
6000
E000
6100
6200
6600
6400
0D80
0980
1280
3680
27C0
0080
ENDCHAR
STARTCHAR onehalf
ENCODING 189
SWIDTH 770 0
DWIDTH 12 0
BBX 11 12 1 0
BITMAP
6000
E000
6300
6200
6400
6C00
0BC0
1A40
1040
2080
6100
03E0
ENDCHAR
STARTCHAR threequarters
ENCODING 190
SWIDTH 792 0
DWIDTH 13 0
BBX 11 12 1 0
BITMAP
F000
1800
7080
1980
9900
7200
06C0
04C0
0940
1B40
13E0
0040
ENDCHAR
STARTCHAR questiondown
ENCODING 191
SWIDTH 486 0
DWIDTH 8 0
BBX 6 12 1 -3
BITMAP
30
30
00
30
30
60
E0
C0
C0
CC
CC
78
ENDCHAR
STARTCHAR Agrave
ENCODING 192
SWIDTH 665 0
DWIDTH 11 0
BBX 11 15 0 0
BITMAP
1800
0C00
0000
0C00
0E00
0E00
1A00
1B00
3300
3180
3180
7F80
60C0
60C0
C0E0
ENDCHAR
STARTCHAR Aacute
ENCODING 193
SWIDTH 665 0
DWIDTH 11 0
BBX 11 15 0 0
BITMAP
0700
0C00
0000
0C00
0E00
0E00
1A00
1B00
3300
3180
3180
7F80
60C0
60C0
C0E0
ENDCHAR
STARTCHAR Acircumflex
ENCODING 194
SWIDTH 665 0
DWIDTH 11 0
BBX 11 13 0 0
BITMAP
0E00
1F00
0E00
0E00
1A00
1B00
3300
3180
3180
7F80
60C0
60C0
C0E0
ENDCHAR
STARTCHAR Atilde
ENCODING 195
SWIDTH 665 0
DWIDTH 11 0
BBX 11 15 0 0
BITMAP
1900
1700
2000
0C00
0E00
0E00
1A00
1B00
3300
3180
3180
7F80
60C0
60C0
C0E0
ENDCHAR
STARTCHAR Adieresis
ENCODING 196
SWIDTH 665 0
DWIDTH 11 0
BBX 11 15 0 0
BITMAP
1300
1B00
0000
0C00
0E00
0E00
1A00
1B00
3300
3180
3180
7F80
60C0
60C0
C0E0
ENDCHAR
STARTCHAR Aring
ENCODING 197
SWIDTH 665 0
DWIDTH 11 0
BBX 11 16 0 0
BITMAP
0E00
1200
0E00
0000
0C00
0E00
0E00
1A00
1B00
3300
3180
3180
7F80
60C0
60C0
C0E0
ENDCHAR
STARTCHAR AE
ENCODING 198
SWIDTH 939 0
DWIDTH 15 0
BBX 15 12 0 0
BITMAP
03FC
0380
0780
0580
0D80
19FC
1980
3F80
2080
6080
6080
C0FE
ENDCHAR
STARTCHAR Ccedilla
ENCODING 199
SWIDTH 652 0
DWIDTH 10 0
BBX 9 16 1 -4
BITMAP
3E00
6300
C300
C080
C000
C000
C000
C000
C000
C380
6300
3E00
0800
1C00
0C00
1800
ENDCHAR
STARTCHAR Egrave
ENCODING 200
SWIDTH 565 0
DWIDTH 9 0
BBX 8 15 1 0
BITMAP
70
18
00
FF
C0
C0
C0
C0
FE
C0
C0
C0
C0
C0
FF
ENDCHAR
STARTCHAR Eacute
ENCODING 201
SWIDTH 565 0
DWIDTH 9 0
BBX 8 15 1 0
BITMAP
0E
18
00
FF
C0
C0
C0
C0
FE
C0
C0
C0
C0
C0
FF
ENDCHAR
STARTCHAR Ecircumflex
ENCODING 202
SWIDTH 565 0
DWIDTH 9 0
BBX 8 13 1 0
BITMAP
18
FF
C0
C0
C0
C0
FE
C0
C0
C0
C0
C0
FF
ENDCHAR
STARTCHAR Edieresis
ENCODING 203
SWIDTH 565 0
DWIDTH 9 0
BBX 8 15 1 0
BITMAP
66
66
00
FF
C0
C0
C0
C0
FE
C0
C0
C0
C0
C0
FF
ENDCHAR
STARTCHAR Igrave
ENCODING 204
SWIDTH 282 0
DWIDTH 5 0
BBX 3 15 0 0
BITMAP
C0
60
00
60
60
60
60
60
60
60
60
60
60
60
60
ENDCHAR
STARTCHAR Iacute
ENCODING 205
SWIDTH 282 0
DWIDTH 5 0
BBX 4 15 1 0
BITMAP
70
C0
00
C0
C0
C0
C0
C0
C0
C0
C0
C0
C0
C0
C0
ENDCHAR
STARTCHAR Icircumflex
ENCODING 206
SWIDTH 282 0
DWIDTH 5 0
BBX 5 13 0 0
BITMAP
70
F8
60
60
60
60
60
60
60
60
60
60
60
ENDCHAR
STARTCHAR Idieresis
ENCODING 207
SWIDTH 282 0
DWIDTH 5 0
BBX 6 15 -1 0
BITMAP
4C
CC
00
30
30
30
30
30
30
30
30
30
30
30
30
ENDCHAR
STARTCHAR Eth
ENCODING 208
SWIDTH 667 0
DWIDTH 11 0
BBX 10 12 0 0
BITMAP
3E00
3180
3180
30C0
30C0
F8C0
30C0
30C0
30C0
3180
3180
3E00
ENDCHAR
STARTCHAR Ntilde
ENCODING 209
SWIDTH 709 0
DWIDTH 11 0
BBX 9 15 1 0
BITMAP
3B00
2600
0000
C180
E180
E180
F180
F980
D980
CD80
CD80
C780
C780
C380
C180
ENDCHAR
STARTCHAR Ograve
ENCODING 210
SWIDTH 690 0
DWIDTH 11 0
BBX 9 15 1 0
BITMAP
3800
1C00
0000
3E00
6300
C180
C180
C180
C180
C180
C180
C180
C180
6300
3E00
ENDCHAR
STARTCHAR Oacute
ENCODING 211
SWIDTH 690 0
DWIDTH 11 0
BBX 9 15 1 0
BITMAP
0600
0C00
0000
3E00
6300
C180
C180
C180
C180
C180
C180
C180
C180
6300
3E00
ENDCHAR
STARTCHAR Ocircumflex
ENCODING 212
SWIDTH 690 0
DWIDTH 11 0
BBX 9 13 1 0
BITMAP
1C00
3E00
6300
C180
C180
C180
C180
C180
C180
C180
C180
6300
3E00
ENDCHAR
STARTCHAR Otilde
ENCODING 213
SWIDTH 690 0
DWIDTH 11 0
BBX 9 15 1 0
BITMAP
3200
2E00
0000
3E00
6300
C180
C180
C180
C180
C180
C180
C180
C180
6300
3E00
ENDCHAR
STARTCHAR Odieresis
ENCODING 214
SWIDTH 690 0
DWIDTH 11 0
BBX 9 15 1 0
BITMAP
3600
3600
0000
3E00
6300
C180
C180
C180
C180
C180
C180
C180
C180
6300
3E00
ENDCHAR
STARTCHAR multiply
ENCODING 215
SWIDTH 533 0
DWIDTH 9 0
BBX 7 7 1 2
BITMAP
84
CE
78
30
78
CC
86
ENDCHAR
STARTCHAR Oslash
ENCODING 216
SWIDTH 689 0
DWIDTH 11 0
BBX 9 13 1 -1
BITMAP
3F80
6300
C380
C380
C580
CD80
C980
D980
D180
E180
7300
7E00
C000
ENDCHAR
STARTCHAR Ugrave
ENCODING 217
SWIDTH 651 0
DWIDTH 10 0
BBX 8 15 1 0
BITMAP
30
18
00
C3
C3
C3
C3
C3
C3
C3
C3
C3
C3
42
3C
ENDCHAR
STARTCHAR Uacute
ENCODING 218
SWIDTH 651 0
DWIDTH 10 0
BBX 8 15 1 0
BITMAP
0E
18
00
C3
C3
C3
C3
C3
C3
C3
C3
C3
C3
42
3C
ENDCHAR
STARTCHAR Ucircumflex
ENCODING 219
SWIDTH 651 0
DWIDTH 10 0
BBX 8 13 1 0
BITMAP
1C
F7
C3
C3
C3
C3
C3
C3
C3
C3
C3
42
3C
ENDCHAR
STARTCHAR Udieresis
ENCODING 220
SWIDTH 651 0
DWIDTH 10 0
BBX 8 15 1 0
BITMAP
26
66
00
C3
C3
C3
C3
C3
C3
C3
C3
C3
C3
42
3C
ENDCHAR
STARTCHAR Yacute
ENCODING 221
SWIDTH 609 0
DWIDTH 10 0
BBX 10 15 0 0
BITMAP
0700
0C00
0000
C1C0
6180
6300
3300
3600
1E00
1C00
0C00
0C00
0C00
0C00
0C00
ENDCHAR
STARTCHAR Thorn
ENCODING 222
SWIDTH 598 0
DWIDTH 10 0
BBX 8 12 1 0
BITMAP
C0
C0
FC
C3
C3
C3
C3
C3
FC
C0
C0
C0
ENDCHAR
STARTCHAR germandbls
ENCODING 223
SWIDTH 612 0
DWIDTH 10 0
BBX 8 12 1 0
BITMAP
3C
44
C6
C6
CC
CC
CC
C6
C3
C3
E3
DE
ENDCHAR
STARTCHAR agrave
ENCODING 224
SWIDTH 541 0
DWIDTH 9 0
BBX 7 12 1 0
BITMAP
60
30
00
7C
CC
C6
06
7E
C6
C6
CE
76
ENDCHAR
STARTCHAR aacute
ENCODING 225
SWIDTH 541 0
DWIDTH 9 0
BBX 7 12 1 0
BITMAP
1C
38
00
7C
CC
C6
06
7E
C6
C6
CE
76
ENDCHAR
STARTCHAR acircumflex
ENCODING 226
SWIDTH 541 0
DWIDTH 9 0
BBX 7 12 1 0
BITMAP
38
6C
00
7C
CC
C6
06
7E
C6
C6
CE
76
ENDCHAR
STARTCHAR atilde
ENCODING 227
SWIDTH 541 0
DWIDTH 9 0
BBX 7 12 1 0
BITMAP
64
5C
00
7C
CC
C6
06
7E
C6
C6
CE
76
ENDCHAR
STARTCHAR adieresis
ENCODING 228
SWIDTH 541 0
DWIDTH 9 0
BBX 7 12 1 0
BITMAP
6C
6C
00
7C
CC
C6
06
7E
C6
C6
CE
76
ENDCHAR
STARTCHAR aring
ENCODING 229
SWIDTH 541 0
DWIDTH 9 0
BBX 7 13 1 0
BITMAP
38
28
38
00
7C
CC
C6
06
7E
C6
C6
CE
76
ENDCHAR
STARTCHAR ae
ENCODING 230
SWIDTH 844 0
DWIDTH 14 0
BBX 12 9 1 0
BITMAP
7DE0
C730
0630
0630
7FF0
C600
C600
CF10
79F0
ENDCHAR
STARTCHAR ccedilla
ENCODING 231
SWIDTH 523 0
DWIDTH 8 0
BBX 8 13 0 -4
BITMAP
3C
66
63
C0
C0
C0
63
66
3C
18
0C
0C
18
ENDCHAR
STARTCHAR egrave
ENCODING 232
SWIDTH 536 0
DWIDTH 9 0
BBX 7 12 1 0
BITMAP
60
30
00
3C
66
C6
C6
FE
C0
C4
66
3C
ENDCHAR
STARTCHAR eacute
ENCODING 233
SWIDTH 536 0
DWIDTH 9 0
BBX 7 12 1 0
BITMAP
1C
30
00
3C
66
C6
C6
FE
C0
C4
66
3C
ENDCHAR
STARTCHAR ecircumflex
ENCODING 234
SWIDTH 536 0
DWIDTH 9 0
BBX 7 12 1 0
BITMAP
38
6C
00
3C
66
C6
C6
FE
C0
C4
66
3C
ENDCHAR
STARTCHAR edieresis
ENCODING 235
SWIDTH 536 0
DWIDTH 9 0
BBX 7 12 1 0
BITMAP
4C
6C
00
3C
66
C6
C6
FE
C0
C4
66
3C
ENDCHAR
STARTCHAR igrave
ENCODING 236
SWIDTH 262 0
DWIDTH 4 0
BBX 4 12 -1 0
BITMAP
E0
30
00
30
30
30
30
30
30
30
30
30
ENDCHAR
STARTCHAR iacute
ENCODING 237
SWIDTH 262 0
DWIDTH 4 0
BBX 4 12 1 0
BITMAP
70
C0
00
C0
C0
C0
C0
C0
C0
C0
C0
C0
ENDCHAR
STARTCHAR icircumflex
ENCODING 238
SWIDTH 262 0
DWIDTH 4 0
BBX 6 12 -1 0
BITMAP
30
CC
00
30
30
30
30
30
30
30
30
30
ENDCHAR
STARTCHAR idieresis
ENCODING 239
SWIDTH 262 0
DWIDTH 4 0
BBX 6 12 -1 0
BITMAP
CC
CC
00
30
30
30
30
30
30
30
30
30
ENDCHAR
STARTCHAR eth
ENCODING 240
SWIDTH 581 0
DWIDTH 9 0
BBX 7 12 1 0
BITMAP
64
3E
1C
2C
06
7E
C6
C6
C6
C6
C6
78
ENDCHAR
STARTCHAR ntilde
ENCODING 241
SWIDTH 556 0
DWIDTH 9 0
BBX 7 12 1 0
BITMAP
64
5C
00
DC
E6
C6
C6
C6
C6
C6
C6
C6
ENDCHAR
STARTCHAR ograve
ENCODING 242
SWIDTH 569 0
DWIDTH 9 0
BBX 7 12 1 0
BITMAP
60
38
00
38
C6
C6
C6
82
C6
C6
C6
38
ENDCHAR
STARTCHAR oacute
ENCODING 243
SWIDTH 569 0
DWIDTH 9 0
BBX 7 12 1 0
BITMAP
0C
18
00
38
C6
C6
C6
82
C6
C6
C6
38
ENDCHAR
STARTCHAR ocircumflex
ENCODING 244
SWIDTH 569 0
DWIDTH 9 0
BBX 7 12 1 0
BITMAP
38
6C
00
38
C6
C6
C6
82
C6
C6
C6
38
ENDCHAR
STARTCHAR otilde
ENCODING 245
SWIDTH 569 0
DWIDTH 9 0
BBX 7 12 1 0
BITMAP
64
5C
00
38
C6
C6
C6
82
C6
C6
C6
38
ENDCHAR
STARTCHAR odieresis
ENCODING 246
SWIDTH 569 0
DWIDTH 9 0
BBX 7 12 1 0
BITMAP
6C
6C
00
38
C6
C6
C6
82
C6
C6
C6
38
ENDCHAR
STARTCHAR divide
ENCODING 247
SWIDTH 570 0
DWIDTH 9 0
BBX 8 7 0 2
BITMAP
18
1C
00
FF
00
18
1C
ENDCHAR
STARTCHAR oslash
ENCODING 248
SWIDTH 566 0
DWIDTH 9 0
BBX 7 11 1 -1
BITMAP
06
3C
CE
CE
DE
92
D2
E6
E6
78
C0
ENDCHAR
STARTCHAR ugrave
ENCODING 249
SWIDTH 555 0
DWIDTH 9 0
BBX 7 12 1 0
BITMAP
60
30
00
C6
C6
C6
C6
C6
C6
C6
C6
7E
ENDCHAR
STARTCHAR uacute
ENCODING 250
SWIDTH 555 0
DWIDTH 9 0
BBX 7 12 1 0
BITMAP
0C
38
00
C6
C6
C6
C6
C6
C6
C6
C6
7E
ENDCHAR
STARTCHAR ucircumflex
ENCODING 251
SWIDTH 555 0
DWIDTH 9 0
BBX 7 12 1 0
BITMAP
38
6C
00
C6
C6
C6
C6
C6
C6
C6
C6
7E
ENDCHAR
STARTCHAR udieresis
ENCODING 252
SWIDTH 555 0
DWIDTH 9 0
BBX 7 12 1 0
BITMAP
6C
6C
00
C6
C6
C6
C6
C6
C6
C6
C6
7E
ENDCHAR
STARTCHAR yacute
ENCODING 253
SWIDTH 486 0
DWIDTH 8 0
BBX 8 15 0 -3
BITMAP
0E
18
00
C3
66
66
66
3C
3C
3C
18
18
18
10
60
ENDCHAR
STARTCHAR thorn
ENCODING 254
SWIDTH 573 0
DWIDTH 9 0
BBX 7 15 1 -3
BITMAP
C0
C0
C0
FC
C6
C6
C6
C6
C6
C6
C6
FC
C0
C0
C0
ENDCHAR
STARTCHAR ydieresis
ENCODING 255
SWIDTH 486 0
DWIDTH 8 0
BBX 8 15 0 -3
BITMAP
66
66
00
C3
66
66
66
3C
3C
3C
18
18
18
10
60
ENDCHAR
STARTCHAR Amacron
ENCODING 256
SWIDTH 665 0
DWIDTH 11 0
BBX 11 14 0 0
BITMAP
1F00
0000
0C00
0E00
0E00
1A00
1B00
3300
3180
3180
7F80
60C0
60C0
C0E0
ENDCHAR
STARTCHAR amacron
ENCODING 257
SWIDTH 541 0
DWIDTH 9 0
BBX 7 11 1 0
BITMAP
7C
00
7C
CC
C6
06
7E
C6
C6
CE
76
ENDCHAR
STARTCHAR Abreve
ENCODING 258
SWIDTH 665 0
DWIDTH 11 0
BBX 11 15 0 0
BITMAP
1300
0E00
0000
0C00
0E00
0E00
1A00
1B00
3300
3180
3180
7F80
60C0
60C0
C0E0
ENDCHAR
STARTCHAR abreve
ENCODING 259
SWIDTH 541 0
DWIDTH 9 0
BBX 7 12 1 0
BITMAP
4C
38
00
7C
CC
C6
06
7E
C6
C6
CE
76
ENDCHAR
STARTCHAR Aogonek
ENCODING 260
SWIDTH 665 0
DWIDTH 11 0
BBX 11 15 0 -3
BITMAP
0E00
0E00
0E00
1B00
1B00
1B00
3180
3180
3F80
60C0
60C0
E0E0
00C0
0180
00C0
ENDCHAR
STARTCHAR aogonek
ENCODING 261
SWIDTH 541 0
DWIDTH 9 0
BBX 7 12 1 -3
BITMAP
7C
CC
C6
06
7E
C6
C6
CE
76
04
0C
0E
ENDCHAR
STARTCHAR Cacute
ENCODING 262
SWIDTH 652 0
DWIDTH 10 0
BBX 9 15 1 0
BITMAP
0E00
1800
0000
3E00
6300
C300
C080
C000
C000
C000
C000
C000
C380
6300
3E00
ENDCHAR
STARTCHAR cacute
ENCODING 263
SWIDTH 523 0
DWIDTH 8 0
BBX 8 12 0 0
BITMAP
0E
18
00
3C
66
63
C0
C0
C0
63
66
3C
ENDCHAR
STARTCHAR Ccircumflex
ENCODING 264
SWIDTH 652 0
DWIDTH 10 0
BBX 9 15 1 0
BITMAP
1C00
3600
0000
3E00
6300
C300
C080
C000
C000
C000
C000
C000
C380
6300
3E00
ENDCHAR
STARTCHAR ccircumflex
ENCODING 265
SWIDTH 523 0
DWIDTH 8 0
BBX 8 12 0 0
BITMAP
18
76
00
3C
66
63
C0
C0
C0
63
66
3C
ENDCHAR
STARTCHAR Cdotaccent
ENCODING 266
SWIDTH 652 0
DWIDTH 10 0
BBX 9 15 1 0
BITMAP
1800
1800
0000
3E00
6300
C300
C080
C000
C000
C000
C000
C000
C380
6300
3E00
ENDCHAR
STARTCHAR cdotaccent
ENCODING 267
SWIDTH 523 0
DWIDTH 8 0
BBX 8 12 0 0
BITMAP
18
18
00
3C
66
63
C0
C0
C0
63
66
3C
ENDCHAR
STARTCHAR Ccaron
ENCODING 268
SWIDTH 652 0
DWIDTH 10 0
BBX 9 15 1 0
BITMAP
3600
1800
0000
3E00
6300
C300
C080
C000
C000
C000
C000
C000
C380
6300
3E00
ENDCHAR
STARTCHAR ccaron
ENCODING 269
SWIDTH 523 0
DWIDTH 8 0
BBX 8 12 0 0
BITMAP
76
18
00
3C
66
63
C0
C0
C0
63
66
3C
ENDCHAR
STARTCHAR Dcaron
ENCODING 270
SWIDTH 653 0
DWIDTH 10 0
BBX 8 15 1 0
BITMAP
6C
38
00
FC
C6
C3
C3
C3
C3
C3
C3
C3
C3
C6
FC
ENDCHAR
STARTCHAR dcaron
ENCODING 271
SWIDTH 637 0
DWIDTH 10 0
BBX 10 12 1 0
BITMAP
06C0
06C0
0680
7E00
C600
C600
C600
C600
C600
C600
C600
7E00
ENDCHAR
STARTCHAR Dcroat
ENCODING 272
SWIDTH 667 0
DWIDTH 11 0
BBX 10 12 0 0
BITMAP
3E00
3180
3180
30C0
30C0
F8C0
30C0
30C0
30C0
3180
3180
3E00
ENDCHAR
STARTCHAR dcroat
ENCODING 273
SWIDTH 615 0
DWIDTH 10 0
BBX 8 12 1 0
BITMAP
06
1F
06
7E
C6
C6
C6
C6
C6
C6
C6
7E
ENDCHAR
STARTCHAR Emacron
ENCODING 274
SWIDTH 565 0
DWIDTH 9 0
BBX 8 14 1 0
BITMAP
7E
00
FF
C0
C0
C0
C0
FE
C0
C0
C0
C0
C0
FF
ENDCHAR
STARTCHAR emacron
ENCODING 275
SWIDTH 536 0
DWIDTH 9 0
BBX 7 11 1 0
BITMAP
7C
00
3C
66
C6
C6
FE
C0
C4
66
3C
ENDCHAR
STARTCHAR Ebreve
ENCODING 276
SWIDTH 565 0
DWIDTH 9 0
BBX 8 15 1 0
BITMAP
64
3C
00
FF
C0
C0
C0
C0
FE
C0
C0
C0
C0
C0
FF
ENDCHAR
STARTCHAR ebreve
ENCODING 277
SWIDTH 536 0
DWIDTH 9 0
BBX 7 12 1 0
BITMAP
4C
38
00
3C
66
C6
C6
FE
C0
C4
66
3C
ENDCHAR
STARTCHAR Edotaccent
ENCODING 278
SWIDTH 565 0
DWIDTH 9 0
BBX 8 15 1 0
BITMAP
18
18
00
FF
C0
C0
C0
C0
FE
C0
C0
C0
C0
C0
FF
ENDCHAR
STARTCHAR edotaccent
ENCODING 279
SWIDTH 536 0
DWIDTH 9 0
BBX 7 12 1 0
BITMAP
30
30
00
3C
66
C6
C6
FE
C0
C4
66
3C
ENDCHAR
STARTCHAR Eogonek
ENCODING 280
SWIDTH 565 0
DWIDTH 9 0
BBX 8 15 1 -3
BITMAP
FF
C0
C0
C0
C0
FE
C0
C0
C0
C0
C0
FF
0C
08
0E
ENDCHAR
STARTCHAR eogonek
ENCODING 281
SWIDTH 536 0
DWIDTH 9 0
BBX 7 12 1 -3
BITMAP
3C
66
C6
C6
FE
C0
C4
66
3C
18
10
1C
ENDCHAR
STARTCHAR Ecaron
ENCODING 282
SWIDTH 565 0
DWIDTH 9 0
BBX 8 15 1 0
BITMAP
66
18
00
FF
C0
C0
C0
C0
FE
C0
C0
C0
C0
C0
FF
ENDCHAR
STARTCHAR ecaron
ENCODING 283
SWIDTH 536 0
DWIDTH 9 0
BBX 7 12 1 0
BITMAP
6C
30
00
3C
66
C6
C6
FE
C0
C4
66
3C
ENDCHAR
STARTCHAR Gcircumflex
ENCODING 284
SWIDTH 680 0
DWIDTH 11 0
BBX 9 15 1 0
BITMAP
1C00
3600
0000
3E00
6300
C180
C000
C000
C000
C780
C180
C180
4180
6180
3E00
ENDCHAR
STARTCHAR gcircumflex
ENCODING 285
SWIDTH 566 0
DWIDTH 9 0
BBX 7 15 1 -3
BITMAP
38
6C
00
7E
C6
C6
C6
86
C6
C6
C6
7E
06
C4
78
ENDCHAR
STARTCHAR Gbreve
ENCODING 286
SWIDTH 680 0
DWIDTH 11 0
BBX 9 15 1 0
BITMAP
2600
1C00
0000
3E00
6300
C180
C000
C000
C000
C780
C180
C180
4180
6180
3E00
ENDCHAR
STARTCHAR gbreve
ENCODING 287
SWIDTH 566 0
DWIDTH 9 0
BBX 7 15 1 -3
BITMAP
4C
38
00
7E
C6
C6
C6
86
C6
C6
C6
7E
06
C4
78
ENDCHAR
STARTCHAR Gdotaccent
ENCODING 288
SWIDTH 680 0
DWIDTH 11 0
BBX 9 15 1 0
BITMAP
1800
1800
0000
3E00
6300
C180
C000
C000
C000
C780
C180
C180
4180
6180
3E00
ENDCHAR
STARTCHAR gdotaccent
ENCODING 289
SWIDTH 566 0
DWIDTH 9 0
BBX 7 15 1 -3
BITMAP
30
30
00
7E
C6
C6
C6
86
C6
C6
C6
7E
06
C4
78
ENDCHAR
STARTCHAR uni0122
ENCODING 290
SWIDTH 680 0
DWIDTH 11 0
BBX 9 16 1 -4
BITMAP
3E00
6300
C180
C000
C000
C000
C780
C180
C180
4180
6180
3E00
0000
0800
0800
1800
ENDCHAR
STARTCHAR uni0123
ENCODING 291
SWIDTH 566 0
DWIDTH 9 0
BBX 7 17 1 -3
BITMAP
10
18
30
30
00
7E
C6
C6
C6
86
C6
C6
C6
7E
06
C4
78
ENDCHAR
STARTCHAR Hcircumflex
ENCODING 292
SWIDTH 710 0
DWIDTH 11 0
BBX 9 13 1 0
BITMAP
1C00
F780
C180
C180
C180
C180
FF80
C180
C180
C180
C180
C180
C180
ENDCHAR
STARTCHAR hcircumflex
ENCODING 293
SWIDTH 555 0
DWIDTH 9 0
BBX 7 15 1 0
BITMAP
30
CC
00
C0
C0
C0
DC
E6
C6
C6
C6
C6
C6
C6
C6
ENDCHAR
STARTCHAR Hbar
ENCODING 294
SWIDTH 710 0
DWIDTH 11 0
BBX 11 12 0 0
BITMAP
60C0
60C0
FFE0
60C0
60C0
7FC0
60C0
60C0
60C0
60C0
60C0
60C0
ENDCHAR
STARTCHAR hbar
ENCODING 295
SWIDTH 569 0
DWIDTH 9 0
BBX 8 12 0 0
BITMAP
60
F8
60
6E
73
63
63
63
63
63
63
63
ENDCHAR
STARTCHAR Itilde
ENCODING 296
SWIDTH 282 0
DWIDTH 5 0
BBX 6 15 -1 0
BITMAP
64
DC
00
30
30
30
30
30
30
30
30
30
30
30
30
ENDCHAR
STARTCHAR itilde
ENCODING 297
SWIDTH 262 0
DWIDTH 4 0
BBX 6 12 -1 0
BITMAP
64
98
00
30
30
30
30
30
30
30
30
30
ENDCHAR
STARTCHAR Imacron
ENCODING 298
SWIDTH 282 0
DWIDTH 5 0
BBX 5 14 0 0
BITMAP
F8
00
60
60
60
60
60
60
60
60
60
60
60
60
ENDCHAR
STARTCHAR imacron
ENCODING 299
SWIDTH 262 0
DWIDTH 4 0
BBX 6 11 -1 0
BITMAP
FC
00
30
30
30
30
30
30
30
30
30
ENDCHAR
STARTCHAR Ibreve
ENCODING 300
SWIDTH 282 0
DWIDTH 5 0
BBX 5 15 0 0
BITMAP
98
70
00
60
60
60
60
60
60
60
60
60
60
60
60
ENDCHAR
STARTCHAR ibreve
ENCODING 301
SWIDTH 262 0
DWIDTH 4 0
BBX 5 12 0 0
BITMAP
98
F0
00
60
60
60
60
60
60
60
60
60
ENDCHAR
STARTCHAR Iogonek
ENCODING 302
SWIDTH 282 0
DWIDTH 5 0
BBX 3 15 0 -3
BITMAP
60
60
60
60
60
60
60
60
60
60
60
60
40
C0
60
ENDCHAR
STARTCHAR iogonek
ENCODING 303
SWIDTH 255 0
DWIDTH 4 0
BBX 3 15 0 -3
BITMAP
60
60
00
60
60
60
60
60
60
60
60
60
40
C0
E0
ENDCHAR
STARTCHAR Idotaccent
ENCODING 304
SWIDTH 282 0
DWIDTH 5 0
BBX 2 15 1 0
BITMAP
C0
C0
00
C0
C0
C0
C0
C0
C0
C0
C0
C0
C0
C0
C0
ENDCHAR
STARTCHAR dotlessi
ENCODING 305
SWIDTH 262 0
DWIDTH 4 0
BBX 2 9 1 0
BITMAP
C0
C0
C0
C0
C0
C0
C0
C0
C0
ENDCHAR
STARTCHAR IJ
ENCODING 306
SWIDTH 837 0
DWIDTH 13 0
BBX 11 12 1 0
BITMAP
C060
C060
C060
C060
C060
C060
C060
C060
C060
CC60
CC60
C7C0
ENDCHAR
STARTCHAR ij
ENCODING 307
SWIDTH 505 0
DWIDTH 8 0
BBX 6 15 1 -3
BITMAP
CC
CC
00
CC
CC
CC
CC
CC
CC
CC
CC
CC
0C
0C
38
ENDCHAR
STARTCHAR Jcircumflex
ENCODING 308
SWIDTH 555 0
DWIDTH 9 0
BBX 9 13 0 0
BITMAP
0700
0F80
0300
0300
0300
0300
0300
0300
0300
0300
C300
6600
3C00
ENDCHAR
STARTCHAR jcircumflex
ENCODING 309
SWIDTH 268 0
DWIDTH 4 0
BBX 6 15 -1 -3
BITMAP
30
EC
00
30
30
30
30
30
30
30
30
30
30
30
E0
ENDCHAR
STARTCHAR uni0136
ENCODING 310
SWIDTH 630 0
DWIDTH 10 0
BBX 9 15 1 -3
BITMAP
C380
C700
C600
CC00
D800
D800
FC00
EC00
C600
C700
C300
C180
1800
1800
1000
ENDCHAR
STARTCHAR uni0137
ENCODING 311
SWIDTH 521 0
DWIDTH 8 0
BBX 7 15 1 -3
BITMAP
C0
C0
C0
CE
CC
D8
F0
F0
D8
CC
CC
C6
30
30
20
ENDCHAR
STARTCHAR kgreenlandic
ENCODING 312
SWIDTH 574 0
DWIDTH 9 0
BBX 8 9 1 0
BITMAP
C7
CE
CC
D8
F0
D8
CC
CE
C7
ENDCHAR
STARTCHAR Lacute
ENCODING 313
SWIDTH 541 0
DWIDTH 9 0
BBX 7 15 1 0
BITMAP
70
C0
00
C0
C0
C0
C0
C0
C0
C0
C0
C0
C0
C0
FE
ENDCHAR
STARTCHAR lacute
ENCODING 314
SWIDTH 255 0
DWIDTH 4 0
BBX 4 15 1 0
BITMAP
70
C0
00
C0
C0
C0
C0
C0
C0
C0
C0
C0
C0
C0
C0
ENDCHAR
STARTCHAR uni013B
ENCODING 315
SWIDTH 541 0
DWIDTH 9 0
BBX 7 16 1 -4
BITMAP
C0
C0
C0
C0
C0
C0
C0
C0
C0
C0
C0
FE
00
18
10
30
ENDCHAR
STARTCHAR uni013C
ENCODING 316
SWIDTH 255 0
DWIDTH 4 0
BBX 2 16 1 -4
BITMAP
C0
C0
C0
C0
C0
C0
C0
C0
C0
C0
C0
C0
00
C0
C0
80
ENDCHAR
STARTCHAR Lcaron
ENCODING 317
SWIDTH 541 0
DWIDTH 9 0
BBX 7 12 1 0
BITMAP
CC
CC
C8
C0
C0
C0
C0
C0
C0
C0
C0
FE
ENDCHAR
STARTCHAR lcaron
ENCODING 318
SWIDTH 328 0
DWIDTH 5 0
BBX 5 12 1 0
BITMAP
D8
D8
D0
C0
C0
C0
C0
C0
C0
C0
C0
C0
ENDCHAR
STARTCHAR Ldot
ENCODING 319
SWIDTH 541 0
DWIDTH 9 0
BBX 7 12 1 0
BITMAP
C0
C0
C0
C0
C8
CC
C0
C0
C0
C0
C0
FE
ENDCHAR
STARTCHAR ldot
ENCODING 320
SWIDTH 362 0
DWIDTH 6 0
BBX 5 12 1 0
BITMAP
C0
C0
C0
C0
C0
D8
D8
C0
C0
C0
C0
C0
ENDCHAR
STARTCHAR Lslash
ENCODING 321
SWIDTH 548 0
DWIDTH 9 0
BBX 8 12 0 0
BITMAP
60
60
60
60
78
E0
60
60
60
60
60
7F
ENDCHAR
STARTCHAR lslash
ENCODING 322
SWIDTH 288 0
DWIDTH 5 0
BBX 4 12 0 0
BITMAP
60
60
60
60
60
70
E0
60
60
60
60
60
ENDCHAR
STARTCHAR Nacute
ENCODING 323
SWIDTH 709 0
DWIDTH 11 0
BBX 9 15 1 0
BITMAP
0600
0C00
0000
C180
E180
E180
F180
F980
D980
CD80
CD80
C780
C780
C380
C180
ENDCHAR
STARTCHAR nacute
ENCODING 324
SWIDTH 556 0
DWIDTH 9 0
BBX 7 12 1 0
BITMAP
0C
18
00
DC
E6
C6
C6
C6
C6
C6
C6
C6
ENDCHAR
STARTCHAR uni0145
ENCODING 325
SWIDTH 709 0
DWIDTH 11 0
BBX 9 16 1 -4
BITMAP
C180
E180
E180
F180
F980
D980
CD80
CD80
C780
C780
C380
C180
0000
0800
0800
1800
ENDCHAR
STARTCHAR uni0146
ENCODING 326
SWIDTH 556 0
DWIDTH 9 0
BBX 7 13 1 -4
BITMAP
DC
E6
C6
C6
C6
C6
C6
C6
C6
00
10
10
30
ENDCHAR
STARTCHAR Ncaron
ENCODING 327
SWIDTH 709 0
DWIDTH 11 0
BBX 9 15 1 0
BITMAP
3600
0C00
0000
C180
E180
E180
F180
F980
D980
CD80
CD80
C780
C780
C380
C180
ENDCHAR
STARTCHAR ncaron
ENCODING 328
SWIDTH 556 0
DWIDTH 9 0
BBX 7 12 1 0
BITMAP
6C
38
00
DC
E6
C6
C6
C6
C6
C6
C6
C6
ENDCHAR
STARTCHAR napostrophe
ENCODING 329
SWIDTH 556 0
DWIDTH 9 0
BBX 9 12 -1 0
BITMAP
4000
4000
C000
3700
3980
3180
3180
3180
3180
3180
3180
3180
ENDCHAR
STARTCHAR Eng
ENCODING 330
SWIDTH 696 0
DWIDTH 11 0
BBX 9 15 1 -3
BITMAP
C180
E180
E180
F180
D980
D980
CD80
CD80
C780
C380
C380
C180
0180
0180
0700
ENDCHAR
STARTCHAR eng
ENCODING 331
SWIDTH 566 0
DWIDTH 9 0
BBX 7 12 1 -3
BITMAP
DC
E6
C6
C6
C6
C6
C6
C6
C6
06
06
1C
ENDCHAR
STARTCHAR Omacron
ENCODING 332
SWIDTH 690 0
DWIDTH 11 0
BBX 9 14 1 0
BITMAP
3E00
0000
3E00
6300
C180
C180
C180
C180
C180
C180
C180
C180
6300
3E00
ENDCHAR
STARTCHAR omacron
ENCODING 333
SWIDTH 569 0
DWIDTH 9 0
BBX 7 11 1 0
BITMAP
7C
00
38
C6
C6
C6
82
C6
C6
C6
38
ENDCHAR
STARTCHAR Obreve
ENCODING 334
SWIDTH 690 0
DWIDTH 11 0
BBX 9 15 1 0
BITMAP
3200
1C00
0000
3E00
6300
C180
C180
C180
C180
C180
C180
C180
C180
6300
3E00
ENDCHAR
STARTCHAR obreve
ENCODING 335
SWIDTH 569 0
DWIDTH 9 0
BBX 7 12 1 0
BITMAP
6C
38
00
38
C6
C6
C6
82
C6
C6
C6
38
ENDCHAR
STARTCHAR Ohungarumlaut
ENCODING 336
SWIDTH 690 0
DWIDTH 11 0
BBX 9 15 1 0
BITMAP
1F00
3600
0000
3E00
6300
C180
C180
C180
C180
C180
C180
C180
C180
6300
3E00
ENDCHAR
STARTCHAR ohungarumlaut
ENCODING 337
SWIDTH 569 0
DWIDTH 9 0
BBX 7 12 1 0
BITMAP
3E
6C
00
38
C6
C6
C6
82
C6
C6
C6
38
ENDCHAR
STARTCHAR OE
ENCODING 338
SWIDTH 962 0
DWIDTH 15 0
BBX 13 12 1 0
BITMAP
3FF8
6300
C300
C300
8300
83F0
8300
8300
C300
C300
6300
3FF8
ENDCHAR
STARTCHAR oe
ENCODING 339
SWIDTH 903 0
DWIDTH 14 0
BBX 14 9 0 0
BITMAP
3CF0
6798
6388
430C
C3FC
4300
6380
6388
3CF8
ENDCHAR
STARTCHAR Racute
ENCODING 340
SWIDTH 624 0
DWIDTH 10 0
BBX 9 15 1 0
BITMAP
0C00
1800
0000
FE00
C300
C300
C300
C300
C300
FE00
C600
C600
C300
C300
C380
ENDCHAR
STARTCHAR racute
ENCODING 341
SWIDTH 351 0
DWIDTH 6 0
BBX 5 12 1 0
BITMAP
38
60
00
D8
E0
C0
C0
C0
C0
C0
C0
C0
ENDCHAR
STARTCHAR uni0156
ENCODING 342
SWIDTH 624 0
DWIDTH 10 0
BBX 9 16 1 -4
BITMAP
FE00
C300
C300
C300
C300
C300
FE00
C600
C600
C300
C300
C380
0000
1800
1000
3000
ENDCHAR
STARTCHAR uni0157
ENCODING 343
SWIDTH 351 0
DWIDTH 6 0
BBX 5 13 1 -4
BITMAP
D8
E0
C0
C0
C0
C0
C0
C0
C0
00
C0
C0
80
ENDCHAR
STARTCHAR Rcaron
ENCODING 344
SWIDTH 624 0
DWIDTH 10 0
BBX 9 15 1 0
BITMAP
6C00
1800
0000
FE00
C300
C300
C300
C300
C300
FE00
C600
C600
C300
C300
C380
ENDCHAR
STARTCHAR rcaron
ENCODING 345
SWIDTH 351 0
DWIDTH 6 0
BBX 6 12 0 0
BITMAP
EC
30
00
6C
70
60
60
60
60
60
60
60
ENDCHAR
STARTCHAR Sacute
ENCODING 346
SWIDTH 603 0
DWIDTH 10 0
BBX 8 15 1 0
BITMAP
0E
18
00
3C
63
C3
C3
E0
70
1C
07
C3
C3
63
3E
ENDCHAR
STARTCHAR sacute
ENCODING 347
SWIDTH 516 0
DWIDTH 8 0
BBX 7 12 0 0
BITMAP
0E
18
00
3C
66
66
70
3C
06
C2
66
3C
ENDCHAR
STARTCHAR Scircumflex
ENCODING 348
SWIDTH 603 0
DWIDTH 10 0
BBX 8 13 1 0
BITMAP
18
7E
63
C3
C3
E0
70
1C
07
C3
C3
63
3E
ENDCHAR
STARTCHAR scircumflex
ENCODING 349
SWIDTH 516 0
DWIDTH 8 0
BBX 7 12 0 0
BITMAP
1C
36
00
3C
66
66
70
3C
06
C2
66
3C
ENDCHAR
STARTCHAR Scedilla
ENCODING 350
SWIDTH 603 0
DWIDTH 10 0
BBX 8 16 1 -4
BITMAP
3C
63
C3
C3
E0
70
1C
07
C3
C3
63
3E
18
0C
0C
18
ENDCHAR
STARTCHAR scedilla
ENCODING 351
SWIDTH 516 0
DWIDTH 8 0
BBX 7 13 0 -4
BITMAP
3C
66
66
70
3C
06
C2
66
3C
18
0C
0C
18
ENDCHAR
STARTCHAR Scaron
ENCODING 352
SWIDTH 603 0
DWIDTH 10 0
BBX 8 15 1 0
BITMAP
66
18
00
3C
63
C3
C3
E0
70
1C
07
C3
C3
63
3E
ENDCHAR
STARTCHAR scaron
ENCODING 353
SWIDTH 516 0
DWIDTH 8 0
BBX 7 12 0 0
BITMAP
36
18
00
3C
66
66
70
3C
06
C2
66
3C
ENDCHAR
STARTCHAR uni0162
ENCODING 354
SWIDTH 606 0
DWIDTH 10 0
BBX 9 16 0 -4
BITMAP
FF80
0C00
0C00
0C00
0C00
0C00
0C00
0C00
0C00
0C00
0C00
0C00
0800
0600
0600
0C00
ENDCHAR
STARTCHAR uni0163
ENCODING 355
SWIDTH 332 0
DWIDTH 5 0
BBX 5 15 0 -4
BITMAP
60
60
F8
60
60
60
60
60
60
60
38
10
18
08
18
ENDCHAR
STARTCHAR Tcaron
ENCODING 356
SWIDTH 606 0
DWIDTH 10 0
BBX 9 15 0 0
BITMAP
3700
0C00
0000
FF80
0C00
0C00
0C00
0C00
0C00
0C00
0C00
0C00
0C00
0C00
0C00
ENDCHAR
STARTCHAR tcaron
ENCODING 357
SWIDTH 352 0
DWIDTH 6 0
BBX 6 13 0 0
BITMAP
04
04
6C
60
F8
60
60
60
60
60
60
60
38
ENDCHAR
STARTCHAR Tbar
ENCODING 358
SWIDTH 606 0
DWIDTH 10 0
BBX 9 12 0 0
BITMAP
FF80
0C00
0C00
0C00
3E00
0C00
0C00
0C00
0C00
0C00
0C00
0C00
ENDCHAR
STARTCHAR tbar
ENCODING 359
SWIDTH 332 0
DWIDTH 5 0
BBX 5 11 0 0
BITMAP
60
60
F8
60
60
F8
60
60
60
60
38
ENDCHAR
STARTCHAR Utilde
ENCODING 360
SWIDTH 651 0
DWIDTH 10 0
BBX 8 15 1 0
BITMAP
32
6E
00
C3
C3
C3
C3
C3
C3
C3
C3
C3
C3
42
3C
ENDCHAR
STARTCHAR utilde
ENCODING 361
SWIDTH 555 0
DWIDTH 9 0
BBX 7 12 1 0
BITMAP
64
5C
00
C6
C6
C6
C6
C6
C6
C6
C6
7E
ENDCHAR
STARTCHAR Umacron
ENCODING 362
SWIDTH 651 0
DWIDTH 10 0
BBX 8 14 1 0
BITMAP
3E
00
C3
C3
C3
C3
C3
C3
C3
C3
C3
C3
42
3C
ENDCHAR
STARTCHAR umacron
ENCODING 363
SWIDTH 555 0
DWIDTH 9 0
BBX 7 11 1 0
BITMAP
7C
00
C6
C6
C6
C6
C6
C6
C6
C6
7E
ENDCHAR
STARTCHAR Ubreve
ENCODING 364
SWIDTH 651 0
DWIDTH 10 0
BBX 8 15 1 0
BITMAP
26
3C
00
C3
C3
C3
C3
C3
C3
C3
C3
C3
C3
42
3C
ENDCHAR
STARTCHAR ubreve
ENCODING 365
SWIDTH 555 0
DWIDTH 9 0
BBX 7 12 1 0
BITMAP
4C
38
00
C6
C6
C6
C6
C6
C6
C6
C6
7E
ENDCHAR
STARTCHAR Uring
ENCODING 366
SWIDTH 651 0
DWIDTH 10 0
BBX 8 16 1 0
BITMAP
1C
24
1C
00
C3
C3
C3
C3
C3
C3
C3
C3
C3
C3
42
3C
ENDCHAR
STARTCHAR uring
ENCODING 367
SWIDTH 555 0
DWIDTH 9 0
BBX 7 13 1 0
BITMAP
38
28
38
00
C6
C6
C6
C6
C6
C6
C6
C6
7E
ENDCHAR
STARTCHAR Uhungarumlaut
ENCODING 368
SWIDTH 651 0
DWIDTH 10 0
BBX 8 15 1 0
BITMAP
1B
36
00
C3
C3
C3
C3
C3
C3
C3
C3
C3
C3
42
3C
ENDCHAR
STARTCHAR uhungarumlaut
ENCODING 369
SWIDTH 555 0
DWIDTH 9 0
BBX 7 12 1 0
BITMAP
36
6C
00
C6
C6
C6
C6
C6
C6
C6
C6
7E
ENDCHAR
STARTCHAR Uogonek
ENCODING 370
SWIDTH 651 0
DWIDTH 10 0
BBX 8 15 1 -3
BITMAP
C3
C3
C3
C3
C3
C3
C3
C3
C3
C3
42
3C
08
08
0E
ENDCHAR
STARTCHAR uogonek
ENCODING 371
SWIDTH 555 0
DWIDTH 9 0
BBX 7 12 1 -3
BITMAP
C6
C6
C6
C6
C6
C6
C6
C6
7E
04
0C
0E
ENDCHAR
STARTCHAR Wcircumflex
ENCODING 372
SWIDTH 879 0
DWIDTH 14 0
BBX 14 13 0 0
BITMAP
0300
CFCC
6318
6318
6798
6798
2498
3490
3CF0
3CF0
3870
1860
1860
ENDCHAR
STARTCHAR wcircumflex
ENCODING 373
SWIDTH 743 0
DWIDTH 12 0
BBX 12 12 0 0
BITMAP
0600
1980
0000
C630
4660
6660
6F60
6B40
2940
39C0
39C0
3080
ENDCHAR
STARTCHAR Ycircumflex
ENCODING 374
SWIDTH 609 0
DWIDTH 10 0
BBX 10 13 0 0
BITMAP
0C00
F3C0
6180
6300
3300
3600
1E00
1C00
0C00
0C00
0C00
0C00
0C00
ENDCHAR
STARTCHAR ycircumflex
ENCODING 375
SWIDTH 486 0
DWIDTH 8 0
BBX 8 15 0 -3
BITMAP
18
66
00
C3
66
66
66
3C
3C
3C
18
18
18
10
60
ENDCHAR
STARTCHAR Ydieresis
ENCODING 376
SWIDTH 609 0
DWIDTH 10 0
BBX 10 15 0 0
BITMAP
3300
3300
0000
C1C0
6180
6300
3300
3600
1E00
1C00
0C00
0C00
0C00
0C00
0C00
ENDCHAR
STARTCHAR Zacute
ENCODING 377
SWIDTH 602 0
DWIDTH 10 0
BBX 8 15 1 0
BITMAP
0E
18
00
FF
06
06
0C
1C
18
38
30
60
60
C0
FF
ENDCHAR
STARTCHAR zacute
ENCODING 378
SWIDTH 502 0
DWIDTH 8 0
BBX 7 12 1 0
BITMAP
1C
30
00
FC
0C
18
38
30
70
60
C0
FE
ENDCHAR
STARTCHAR Zdotaccent
ENCODING 379
SWIDTH 602 0
DWIDTH 10 0
BBX 8 15 1 0
BITMAP
18
18
00
FF
06
06
0C
1C
18
38
30
60
60
C0
FF
ENDCHAR
STARTCHAR zdotaccent
ENCODING 380
SWIDTH 502 0
DWIDTH 8 0
BBX 7 12 1 0
BITMAP
30
30
00
FC
0C
18
38
30
70
60
C0
FE
ENDCHAR
STARTCHAR Zcaron
ENCODING 381
SWIDTH 602 0
DWIDTH 10 0
BBX 8 15 1 0
BITMAP
6E
18
00
FF
06
06
0C
1C
18
38
30
60
60
C0
FF
ENDCHAR
STARTCHAR zcaron
ENCODING 382
SWIDTH 502 0
DWIDTH 8 0
BBX 7 12 1 0
BITMAP
CC
30
00
FC
0C
18
38
30
70
60
C0
FE
ENDCHAR
STARTCHAR longs
ENCODING 383
SWIDTH 255 0
DWIDTH 4 0
BBX 4 12 1 0
BITMAP
70
C0
C0
C0
C0
C0
C0
C0
C0
C0
C0
C0
ENDCHAR
STARTCHAR uni018F
ENCODING 399
SWIDTH 691 0
DWIDTH 11 0
BBX 9 12 1 0
BITMAP
7C00
8300
0180
0180
0180
FF80
C180
C180
C180
C300
6300
3C00
ENDCHAR
STARTCHAR florin
ENCODING 402
SWIDTH 351 0
DWIDTH 6 0
BBX 6 15 0 -3
BITMAP
1C
30
30
F8
30
30
30
30
30
30
30
30
30
20
E0
ENDCHAR
STARTCHAR Ohorn
ENCODING 416
SWIDTH 692 0
DWIDTH 11 0
BBX 10 13 1 0
BITMAP
0040
3EC0
6380
C180
C180
C180
C180
C180
C180
C180
C100
6300
3C00
ENDCHAR
STARTCHAR ohorn
ENCODING 417
SWIDTH 577 0
DWIDTH 9 0
BBX 8 10 1 0
BITMAP
01
7D
C7
C6
86
86
86
C6
C6
78
ENDCHAR
STARTCHAR Uhorn
ENCODING 431
SWIDTH 705 0
DWIDTH 11 0
BBX 11 12 1 0
BITMAP
C320
C360
C3C0
C300
C300
C300
C300
C300
C300
C300
6300
3C00
ENDCHAR
STARTCHAR uhorn
ENCODING 432
SWIDTH 618 0
DWIDTH 10 0
BBX 9 10 1 0
BITMAP
0080
C680
C780
C600
C600
C600
C600
C600
C600
7E00
ENDCHAR
STARTCHAR uni01F0
ENCODING 496
SWIDTH 268 0
DWIDTH 4 0
BBX 6 15 -1 -3
BITMAP
EC
30
00
30
30
30
30
30
30
30
30
30
30
30
E0
ENDCHAR
STARTCHAR Aringacute
ENCODING 506
SWIDTH 665 0
DWIDTH 11 0
BBX 11 16 0 0
BITMAP
0300
0600
0C00
0A00
0C00
0E00
0E00
1A00
1B00
3300
3180
3180
7F80
60C0
60C0
C0E0
ENDCHAR
STARTCHAR aringacute
ENCODING 507
SWIDTH 541 0
DWIDTH 9 0
BBX 7 14 1 0
BITMAP
0C
18
38
28
38
7C
CC
C6
06
7E
C6
C6
CE
76
ENDCHAR
STARTCHAR AEacute
ENCODING 508
SWIDTH 939 0
DWIDTH 15 0
BBX 15 15 0 0
BITMAP
01C0
0300
0000
03FC
0380
0780
0580
0D80
19FC
1980
3F80
2080
6080
6080
C0FE
ENDCHAR
STARTCHAR aeacute
ENCODING 509
SWIDTH 844 0
DWIDTH 14 0
BBX 12 12 1 0
BITMAP
0300
0600
0000
7DE0
C730
0630
0630
7FF0
C600
C600
CF10
79F0
ENDCHAR
STARTCHAR Oslashacute
ENCODING 510
SWIDTH 689 0
DWIDTH 11 0
BBX 9 16 1 -1
BITMAP
0600
0C00
0000
3F80
6300
C380
C380
C580
CD80
C980
D980
D180
E180
7300
7E00
C000
ENDCHAR
STARTCHAR oslashacute
ENCODING 511
SWIDTH 566 0
DWIDTH 9 0
BBX 7 13 1 -1
BITMAP
1C
30
06
3C
CE
CE
DE
92
D2
E6
E6
78
C0
ENDCHAR
STARTCHAR uni0218
ENCODING 536
SWIDTH 603 0
DWIDTH 10 0
BBX 8 16 1 -4
BITMAP
3C
63
C3
C3
E0
70
1C
07
C3
C3
63
3E
00
18
18
10
ENDCHAR
STARTCHAR uni0219
ENCODING 537
SWIDTH 516 0
DWIDTH 8 0
BBX 7 13 0 -4
BITMAP
3C
66
66
70
3C
06
C2
66
3C
00
08
18
10
ENDCHAR
STARTCHAR uni021A
ENCODING 538
SWIDTH 606 0
DWIDTH 10 0
BBX 9 16 0 -4
BITMAP
FF80
0C00
0C00
0C00
0C00
0C00
0C00
0C00
0C00
0C00
0C00
0C00
0000
0C00
0800
1800
ENDCHAR
STARTCHAR uni021B
ENCODING 539
SWIDTH 332 0
DWIDTH 5 0
BBX 5 15 0 -4
BITMAP
60
60
F8
60
60
60
60
60
60
60
38
00
10
10
30
ENDCHAR
STARTCHAR uni0237
ENCODING 567
SWIDTH 268 0
DWIDTH 4 0
BBX 4 12 -1 -3
BITMAP
30
30
30
30
30
30
30
30
30
30
30
E0
ENDCHAR
STARTCHAR uni0259
ENCODING 601
SWIDTH 529 0
DWIDTH 8 0
BBX 8 9 0 0
BITMAP
7C
46
06
03
FF
C3
46
66
3C
ENDCHAR
STARTCHAR uni02BC
ENCODING 700
SWIDTH 216 0
DWIDTH 3 0
BBX 3 4 0 8
BITMAP
60
60
40
C0
ENDCHAR
STARTCHAR circumflex
ENCODING 710
SWIDTH 487 0
DWIDTH 8 0
BBX 6 2 1 9
BITMAP
30
DC
ENDCHAR
STARTCHAR caron
ENCODING 711
SWIDTH 460 0
DWIDTH 7 0
BBX 5 2 1 10
BITMAP
D8
30
ENDCHAR
STARTCHAR uni02C9
ENCODING 713
SWIDTH 482 0
DWIDTH 8 0
BBX 6 1 1 10
BITMAP
FC
ENDCHAR
STARTCHAR breve
ENCODING 728
SWIDTH 435 0
DWIDTH 7 0
BBX 5 2 1 10
BITMAP
98
70
ENDCHAR
STARTCHAR dotaccent
ENCODING 729
SWIDTH 255 0
DWIDTH 4 0
BBX 2 2 1 10
BITMAP
C0
C0
ENDCHAR
STARTCHAR ring
ENCODING 730
SWIDTH 336 0
DWIDTH 5 0
BBX 3 3 1 9
BITMAP
E0
A0
E0
ENDCHAR
STARTCHAR ogonek
ENCODING 731
SWIDTH 287 0
DWIDTH 5 0
BBX 2 4 1 -3
BITMAP
40
C0
80
C0
ENDCHAR
STARTCHAR tilde
ENCODING 732
SWIDTH 480 0
DWIDTH 8 0
BBX 6 2 1 10
BITMAP
6C
98
ENDCHAR
STARTCHAR hungarumlaut
ENCODING 733
SWIDTH 390 0
DWIDTH 6 0
BBX 6 2 1 10
BITMAP
FC
B0
ENDCHAR
STARTCHAR uni02F3
ENCODING 755
SWIDTH 302 0
DWIDTH 5 0
BBX 3 3 1 -4
BITMAP
C0
A0
E0
ENDCHAR
STARTCHAR gravecomb
ENCODING 768
SWIDTH 0 0
DWIDTH 0 0
BBX 4 2 -7 10
BITMAP
E0
30
ENDCHAR
STARTCHAR acutecomb
ENCODING 769
SWIDTH 0 0
DWIDTH 0 0
BBX 3 2 -5 10
BITMAP
60
C0
ENDCHAR
STARTCHAR tildecomb
ENCODING 771
SWIDTH 0 0
DWIDTH 0 0
BBX 6 2 -7 10
BITMAP
EC
98
ENDCHAR
STARTCHAR hookabovecomb
ENCODING 777
SWIDTH 0 0
DWIDTH 0 0
BBX 3 3 -6 10
BITMAP
60
A0
40
ENDCHAR
STARTCHAR uni030F
ENCODING 783
SWIDTH 0 0
DWIDTH 0 0
BBX 6 2 -8 10
BITMAP
F8
3C
ENDCHAR
STARTCHAR dotbelowcomb
ENCODING 803
SWIDTH 0 0
DWIDTH 0 0
BBX 2 2 -6 -3
BITMAP
C0
C0
ENDCHAR
STARTCHAR tonos
ENCODING 900
SWIDTH 295 0
DWIDTH 5 0
BBX 2 3 2 10
BITMAP
C0
80
80
ENDCHAR
STARTCHAR dieresistonos
ENCODING 901
SWIDTH 529 0
DWIDTH 8 0
BBX 6 3 1 10
BITMAP
18
F4
CC
ENDCHAR
STARTCHAR Alphatonos
ENCODING 902
SWIDTH 665 0
DWIDTH 11 0
BBX 11 13 0 0
BITMAP
6000
6C00
4E00
0E00
1A00
1B00
3300
3180
3180
7F80
60C0
60C0
C0E0
ENDCHAR
STARTCHAR anoteleia
ENCODING 903
SWIDTH 282 0
DWIDTH 5 0
BBX 3 2 1 5
BITMAP
C0
E0
ENDCHAR
STARTCHAR Epsilontonos
ENCODING 904
SWIDTH 565 0
DWIDTH 9 0
BBX 11 13 -2 0
BITMAP
C000
9FE0
9800
1800
1800
1800
1FC0
1800
1800
1800
1800
1800
1FE0
ENDCHAR
STARTCHAR Etatonos
ENCODING 905
SWIDTH 710 0
DWIDTH 11 0
BBX 12 13 -2 0
BITMAP
C000
D830
9830
1830
1830
1830
1FF0
1830
1830
1830
1830
1830
1830
ENDCHAR
STARTCHAR Iotatonos
ENCODING 906
SWIDTH 282 0
DWIDTH 5 0
BBX 5 13 -2 0
BITMAP
C0
D8
98
18
18
18
18
18
18
18
18
18
18
ENDCHAR
STARTCHAR Omicrontonos
ENCODING 908
SWIDTH 700 0
DWIDTH 11 0
BBX 11 13 -1 0
BITMAP
6000
C780
D8C0
1060
3060
3060
3060
3060
3060
3060
1060
18C0
0780
ENDCHAR
STARTCHAR Upsilontonos
ENCODING 910
SWIDTH 658 0
DWIDTH 11 0
BBX 12 13 -2 0
BITMAP
C000
9830
8C30
0C60
0660
06C0
03C0
0380
0180
0180
0180
0180
0180
ENDCHAR
STARTCHAR Omegatonos
ENCODING 911
SWIDTH 679 0
DWIDTH 11 0
BBX 11 13 -1 0
BITMAP
6000
4780
D8C0
1840
3060
3060
3060
3060
3060
3060
18C0
18C0
3DE0
ENDCHAR
STARTCHAR iotadieresistonos
ENCODING 912
SWIDTH 333 0
DWIDTH 5 0
BBX 7 13 -1 0
BITMAP
18
D6
C6
00
30
30
30
30
30
30
30
30
1C
ENDCHAR
STARTCHAR Alpha
ENCODING 913
SWIDTH 665 0
DWIDTH 11 0
BBX 11 12 0 0
BITMAP
0C00
0E00
0E00
1A00
1B00
3300
3180
3180
7F80
60C0
60C0
C0E0
ENDCHAR
STARTCHAR Beta
ENCODING 914
SWIDTH 630 0
DWIDTH 10 0
BBX 8 12 1 0
BITMAP
FC
C3
C3
C3
C7
FC
C3
C3
C3
C3
C3
FE
ENDCHAR
STARTCHAR Gamma
ENCODING 915
SWIDTH 557 0
DWIDTH 9 0
BBX 7 12 1 0
BITMAP
FE
C0
C0
C0
C0
C0
C0
C0
C0
C0
C0
C0
ENDCHAR
STARTCHAR uni0394
ENCODING 916
SWIDTH 718 0
DWIDTH 12 0
BBX 11 12 0 0
BITMAP
0600
0E00
0F00
0B00
1B00
1980
3180
31C0
30C0
60C0
60E0
FFE0
ENDCHAR
STARTCHAR Epsilon
ENCODING 917
SWIDTH 565 0
DWIDTH 9 0
BBX 8 12 1 0
BITMAP
FF
C0
C0
C0
C0
FE
C0
C0
C0
C0
C0
FF
ENDCHAR
STARTCHAR Zeta
ENCODING 918
SWIDTH 602 0
DWIDTH 10 0
BBX 8 12 1 0
BITMAP
FF
06
06
0C
1C
18
38
30
60
60
C0
FF
ENDCHAR
STARTCHAR Eta
ENCODING 919
SWIDTH 710 0
DWIDTH 11 0
BBX 9 12 1 0
BITMAP
C180
C180
C180
C180
C180
FF80
C180
C180
C180
C180
C180
C180
ENDCHAR
STARTCHAR Theta
ENCODING 920
SWIDTH 684 0
DWIDTH 11 0
BBX 9 12 1 0
BITMAP
3E00
6300
C100
C180
C180
C180
DD80
C180
C180
C180
6300
3E00
ENDCHAR
STARTCHAR Iota
ENCODING 921
SWIDTH 282 0
DWIDTH 5 0
BBX 2 12 1 0
BITMAP
C0
C0
C0
C0
C0
C0
C0
C0
C0
C0
C0
C0
ENDCHAR
STARTCHAR Kappa
ENCODING 922
SWIDTH 630 0
DWIDTH 10 0
BBX 9 12 1 0
BITMAP
C380
C700
C600
CC00
D800
D800
FC00
EC00
C600
C700
C300
C180
ENDCHAR
STARTCHAR Lambda
ENCODING 923
SWIDTH 652 0
DWIDTH 10 0
BBX 10 12 0 0
BITMAP
0C00
0E00
1E00
1E00
1B00
3300
3300
3180
6180
6180
60C0
E0C0
ENDCHAR
STARTCHAR Mu
ENCODING 924
SWIDTH 875 0
DWIDTH 14 0
BBX 12 12 1 0
BITMAP
E070
E070
F0F0
F0F0
D0B0
D9B0
D9B0
C930
CF30
CF30
C630
C630
ENDCHAR
STARTCHAR Nu
ENCODING 925
SWIDTH 709 0
DWIDTH 11 0
BBX 9 12 1 0
BITMAP
C180
E180
E180
F180
F980
D980
CD80
CD80
C780
C780
C380
C180
ENDCHAR
STARTCHAR Xi
ENCODING 926
SWIDTH 570 0
DWIDTH 9 0
BBX 7 12 1 0
BITMAP
FE
00
00
00
00
7E
00
00
00
00
00
FE
ENDCHAR
STARTCHAR Omicron
ENCODING 927
SWIDTH 690 0
DWIDTH 11 0
BBX 9 12 1 0
BITMAP
3E00
6300
C180
C180
C180
C180
C180
C180
C180
C180
6300
3E00
ENDCHAR
STARTCHAR Pi
ENCODING 928
SWIDTH 711 0
DWIDTH 11 0
BBX 9 12 1 0
BITMAP
FF80
C180
C180
C180
C180
C180
C180
C180
C180
C180
C180
C180
ENDCHAR
STARTCHAR Rho
ENCODING 929
SWIDTH 639 0
DWIDTH 10 0
BBX 9 12 1 0
BITMAP
FE00
C300
C300
C180
C300
C300
FE00
C000
C000
C000
C000
C000
ENDCHAR
STARTCHAR Sigma
ENCODING 931
SWIDTH 570 0
DWIDTH 9 0
BBX 8 12 1 0
BITMAP
FE
C0
60
70
30
18
18
30
70
60
C0
FF
ENDCHAR
STARTCHAR Tau
ENCODING 932
SWIDTH 606 0
DWIDTH 10 0
BBX 9 12 0 0
BITMAP
FF80
0C00
0C00
0C00
0C00
0C00
0C00
0C00
0C00
0C00
0C00
0C00
ENDCHAR
STARTCHAR Upsilon
ENCODING 933
SWIDTH 609 0
DWIDTH 10 0
BBX 10 12 0 0
BITMAP
C1C0
6180
6300
3300
3600
1E00
1C00
0C00
0C00
0C00
0C00
0C00
ENDCHAR
STARTCHAR Phi
ENCODING 934
SWIDTH 741 0
DWIDTH 12 0
BBX 10 12 1 0
BITMAP
0C00
3F00
6D80
CCC0
CCC0
CCC0
CCC0
CCC0
6D80
3F00
0C00
0C00
ENDCHAR
STARTCHAR Chi
ENCODING 935
SWIDTH 632 0
DWIDTH 10 0
BBX 10 12 0 0
BITMAP
E1C0
7180
3300
3B00
1E00
0E00
0E00
1E00
3B00
3300
6180
E1C0
ENDCHAR
STARTCHAR Psi
ENCODING 936
SWIDTH 708 0
DWIDTH 11 0
BBX 11 12 0 0
BITMAP
CC60
CC60
CC60
CC60
CC40
6CC0
6CC0
1F00
0C00
0C00
0C00
0C00
ENDCHAR
STARTCHAR uni03A9
ENCODING 937
SWIDTH 669 0
DWIDTH 11 0
BBX 9 12 1 0
BITMAP
3C00
6300
4300
C180
C180
C180
C180
C180
C180
6300
6300
F780
ENDCHAR
STARTCHAR Iotadieresis
ENCODING 938
SWIDTH 282 0
DWIDTH 5 0
BBX 6 15 -1 0
BITMAP
4C
CC
00
30
30
30
30
30
30
30
30
30
30
30
30
ENDCHAR
STARTCHAR Upsilondieresis
ENCODING 939
SWIDTH 609 0
DWIDTH 10 0
BBX 10 15 0 0
BITMAP
3300
3300
0000
C1C0
6180
6300
3300
3600
1E00
1C00
0C00
0C00
0C00
0C00
0C00
ENDCHAR
STARTCHAR alphatonos
ENCODING 940
SWIDTH 564 0
DWIDTH 9 0
BBX 8 13 1 0
BITMAP
08
18
10
00
7E
C6
C6
C6
C6
C6
C6
C6
7B
ENDCHAR
STARTCHAR epsilontonos
ENCODING 941
SWIDTH 546 0
DWIDTH 9 0
BBX 7 13 1 0
BITMAP
18
10
10
00
7C
C6
C0
78
C0
C0
C6
C6
7C
ENDCHAR
STARTCHAR etatonos
ENCODING 942
SWIDTH 566 0
DWIDTH 9 0
BBX 7 16 1 -3
BITMAP
18
18
10
00
DC
E6
C6
C6
C6
C6
C6
C6
C6
06
06
06
ENDCHAR
STARTCHAR iotatonos
ENCODING 943
SWIDTH 333 0
DWIDTH 5 0
BBX 4 13 1 0
BITMAP
60
40
40
00
C0
C0
C0
C0
C0
C0
C0
C0
70
ENDCHAR
STARTCHAR upsilondieresistonos
ENCODING 944
SWIDTH 546 0
DWIDTH 9 0
BBX 7 13 1 0
BITMAP
18
D6
C6
00
CC
C6
C6
C6
C6
C6
C6
4C
78
ENDCHAR
STARTCHAR alpha
ENCODING 945
SWIDTH 564 0
DWIDTH 9 0
BBX 8 9 1 0
BITMAP
7E
C6
C6
C6
C6
C6
C6
C6
7B
ENDCHAR
STARTCHAR beta
ENCODING 946
SWIDTH 596 0
DWIDTH 10 0
BBX 8 15 1 -3
BITMAP
3C
66
43
C3
C6
DC
C3
C3
C3
C3
E7
DE
C0
C0
C0
ENDCHAR
STARTCHAR gamma
ENCODING 947
SWIDTH 506 0
DWIDTH 8 0
BBX 8 12 0 -3
BITMAP
C3
66
66
66
34
3C
3C
18
18
18
18
18
ENDCHAR
STARTCHAR delta
ENCODING 948
SWIDTH 566 0
DWIDTH 9 0
BBX 7 12 1 0
BITMAP
7C
60
60
38
4C
C6
C6
C2
C6
C6
C6
3C
ENDCHAR
STARTCHAR epsilon
ENCODING 949
SWIDTH 546 0
DWIDTH 9 0
BBX 7 9 1 0
BITMAP
7C
C6
C0
78
C0
C0
C6
C6
7C
ENDCHAR
STARTCHAR zeta
ENCODING 950
SWIDTH 512 0
DWIDTH 8 0
BBX 6 15 1 -3
BITMAP
FC
0C
18
38
30
60
60
C0
C0
C0
C0
78
0C
0C
08
ENDCHAR
STARTCHAR eta
ENCODING 951
SWIDTH 566 0
DWIDTH 9 0
BBX 7 12 1 -3
BITMAP
DC
E6
C6
C6
C6
C6
C6
C6
C6
06
06
06
ENDCHAR
STARTCHAR theta
ENCODING 952
SWIDTH 578 0
DWIDTH 9 0
BBX 7 12 1 0
BITMAP
38
4C
C6
C6
C6
C6
FE
C6
C6
C6
44
38
ENDCHAR
STARTCHAR iota
ENCODING 953
SWIDTH 333 0
DWIDTH 5 0
BBX 4 9 1 0
BITMAP
C0
C0
C0
C0
C0
C0
C0
C0
70
ENDCHAR
STARTCHAR kappa
ENCODING 954
SWIDTH 574 0
DWIDTH 9 0
BBX 8 9 1 0
BITMAP
C7
CE
CC
D8
F0
D8
CC
CE
C7
ENDCHAR
STARTCHAR lambda
ENCODING 955
SWIDTH 551 0
DWIDTH 9 0
BBX 9 12 0 0
BITMAP
7000
3000
1800
1800
1800
1C00
3C00
3600
3600
6600
6300
C380
ENDCHAR
STARTCHAR uni03BC
ENCODING 956
SWIDTH 591 0
DWIDTH 9 0
BBX 7 12 1 -3
BITMAP
C6
C6
C6
C6
C6
C6
C6
C6
FE
C0
C0
C0
ENDCHAR
STARTCHAR nu
ENCODING 957
SWIDTH 494 0
DWIDTH 8 0
BBX 8 9 0 0
BITMAP
C3
66
66
66
24
3C
3C
18
18
ENDCHAR
STARTCHAR xi
ENCODING 958
SWIDTH 509 0
DWIDTH 8 0
BBX 7 15 1 -3
BITMAP
3C
60
C0
60
38
60
C0
C0
C0
C0
E0
3C
06
04
0C
ENDCHAR
STARTCHAR omicron
ENCODING 959
SWIDTH 569 0
DWIDTH 9 0
BBX 7 9 1 0
BITMAP
38
C6
C6
C6
82
C6
C6
C6
38
ENDCHAR
STARTCHAR pi
ENCODING 960
SWIDTH 618 0
DWIDTH 10 0
BBX 10 9 0 0
BITMAP
FF80
3300
3300
3300
3300
3300
3300
3300
31C0
ENDCHAR
STARTCHAR rho
ENCODING 961
SWIDTH 566 0
DWIDTH 9 0
BBX 7 12 1 -3
BITMAP
3C
66
C6
C6
C6
C6
C6
C6
FC
C0
C0
C0
ENDCHAR
STARTCHAR sigma1
ENCODING 962
SWIDTH 526 0
DWIDTH 8 0
BBX 8 12 0 -3
BITMAP
3C
66
63
C0
C0
C0
60
70
1C
06
06
0C
ENDCHAR
STARTCHAR sigma
ENCODING 963
SWIDTH 570 0
DWIDTH 9 0
BBX 8 9 1 0
BITMAP
7F
C4
C6
C6
86
C6
C6
C4
38
ENDCHAR
STARTCHAR tau
ENCODING 964
SWIDTH 521 0
DWIDTH 8 0
BBX 8 9 0 0
BITMAP
FF
18
18
18
18
18
18
18
0E
ENDCHAR
STARTCHAR upsilon
ENCODING 965
SWIDTH 546 0
DWIDTH 9 0
BBX 7 9 1 0
BITMAP
CC
C6
C6
C6
C6
C6
C6
4C
78
ENDCHAR
STARTCHAR phi
ENCODING 966
SWIDTH 726 0
DWIDTH 12 0
BBX 10 13 1 -4
BITMAP
4700
ED80
CCC0
CCC0
CCC0
CCC0
CCC0
6D80
3F00
0C00
0C00
0C00
0C00
ENDCHAR
STARTCHAR chi
ENCODING 967
SWIDTH 502 0
DWIDTH 8 0
BBX 9 12 0 -3
BITMAP
E300
2600
3600
1600
1C00
1C00
1800
1C00
3400
3600
6200
E380
ENDCHAR
STARTCHAR psi
ENCODING 968
SWIDTH 723 0
DWIDTH 12 0
BBX 10 13 1 -4
BITMAP
CDC0
CCC0
CCC0
CCC0
CCC0
CCC0
CCC0
6D80
3F00
0C00
0C00
0C00
0C00
ENDCHAR
STARTCHAR omega
ENCODING 969
SWIDTH 822 0
DWIDTH 13 0
BBX 11 9 1 0
BITMAP
60C0
C060
C460
C460
C460
C460
CE60
CE60
7BC0
ENDCHAR
STARTCHAR iotadieresis
ENCODING 970
SWIDTH 333 0
DWIDTH 5 0
BBX 5 12 0 0
BITMAP
98
D8
00
60
60
60
60
60
60
60
60
38
ENDCHAR
STARTCHAR upsilondieresis
ENCODING 971
SWIDTH 546 0
DWIDTH 9 0
BBX 7 12 1 0
BITMAP
4C
6C
00
CC
C6
C6
C6
C6
C6
C6
4C
78
ENDCHAR
STARTCHAR omicrontonos
ENCODING 972
SWIDTH 569 0
DWIDTH 9 0
BBX 7 13 1 0
BITMAP
18
10
10
00
38
C6
C6
C6
82
C6
C6
C6
38
ENDCHAR
STARTCHAR upsilontonos
ENCODING 973
SWIDTH 546 0
DWIDTH 9 0
BBX 7 13 1 0
BITMAP
18
10
10
00
CC
C6
C6
C6
C6
C6
C6
4C
78
ENDCHAR
STARTCHAR omegatonos
ENCODING 974
SWIDTH 822 0
DWIDTH 13 0
BBX 11 13 1 0
BITMAP
0600
0600
0400
0000
60C0
C060
C460
C460
C460
C460
CE60
CE60
7BC0
ENDCHAR
STARTCHAR theta1
ENCODING 977
SWIDTH 587 0
DWIDTH 9 0
BBX 8 12 1 0
BITMAP
1C
26
66
66
36
36
CF
C6
C6
C6
CC
78
ENDCHAR
STARTCHAR Upsilon1
ENCODING 978
SWIDTH 560 0
DWIDTH 9 0
BBX 9 12 0 0
BITMAP
C180
6300
2200
3600
3600
1400
1C00
0800
0800
0800
0800
0800
ENDCHAR
STARTCHAR omega1
ENCODING 982
SWIDTH 805 0
DWIDTH 13 0
BBX 13 9 0 0
BITMAP
FFF8
6030
6030
6330
6330
6330
6730
2520
3DE0
ENDCHAR
STARTCHAR uni0400
ENCODING 1024
SWIDTH 565 0
DWIDTH 9 0
BBX 8 15 1 0
BITMAP
70
18
00
FF
C0
C0
C0
C0
FE
C0
C0
C0
C0
C0
FF
ENDCHAR
STARTCHAR uni0401
ENCODING 1025
SWIDTH 565 0
DWIDTH 9 0
BBX 8 15 1 0
BITMAP
66
66
00
FF
C0
C0
C0
C0
FE
C0
C0
C0
C0
C0
FF
ENDCHAR
STARTCHAR uni0402
ENCODING 1026
SWIDTH 749 0
DWIDTH 12 0
BBX 11 12 0 0
BITMAP
FF80
1800
1800
1800
1800
1FC0
1860
1860
1860
1860
1860
19C0
ENDCHAR
STARTCHAR uni0403
ENCODING 1027
SWIDTH 557 0
DWIDTH 9 0
BBX 7 15 1 0
BITMAP
0E
18
00
FE
C0
C0
C0
C0
C0
C0
C0
C0
C0
C0
C0
ENDCHAR
STARTCHAR uni0404
ENCODING 1028
SWIDTH 668 0
DWIDTH 11 0
BBX 9 12 1 0
BITMAP
3E00
6300
6180
C000
C000
C000
FC00
C000
C000
4180
6300
3E00
ENDCHAR
STARTCHAR uni0405
ENCODING 1029
SWIDTH 603 0
DWIDTH 10 0
BBX 8 12 1 0
BITMAP
3C
63
C3
C3
E0
70
1C
07
C3
C3
63
3E
ENDCHAR
STARTCHAR uni0406
ENCODING 1030
SWIDTH 282 0
DWIDTH 5 0
BBX 2 12 1 0
BITMAP
C0
C0
C0
C0
C0
C0
C0
C0
C0
C0
C0
C0
ENDCHAR
STARTCHAR uni0407
ENCODING 1031
SWIDTH 282 0
DWIDTH 5 0
BBX 6 15 -1 0
BITMAP
4C
CC
00
30
30
30
30
30
30
30
30
30
30
30
30
ENDCHAR
STARTCHAR uni0408
ENCODING 1032
SWIDTH 555 0
DWIDTH 9 0
BBX 8 12 0 0
BITMAP
03
03
03
03
03
03
03
03
03
C3
66
3C
ENDCHAR
STARTCHAR uni0409
ENCODING 1033
SWIDTH 1066 0
DWIDTH 17 0
BBX 16 12 0 0
BITMAP
1FC0
18C0
18C0
18C0
10FE
10C3
10C3
30C3
30C3
30C3
30C3
E0FE
ENDCHAR
STARTCHAR uni040A
ENCODING 1034
SWIDTH 1069 0
DWIDTH 17 0
BBX 16 12 1 0
BITMAP
C180
C180
C180
C180
C180
FFFC
C186
C186
C183
C186
C186
C1FC
ENDCHAR
STARTCHAR uni040B
ENCODING 1035
SWIDTH 794 0
DWIDTH 13 0
BBX 12 12 0 0
BITMAP
FF80
1800
1800
1800
1FC0
1860
1820
1830
1830
1830
1830
1830
ENDCHAR
STARTCHAR uni040C
ENCODING 1036
SWIDTH 630 0
DWIDTH 10 0
BBX 9 15 1 0
BITMAP
0C00
1800
0000
C380
C700
C600
CC00
D800
D800
FC00
EC00
C600
C700
C300
C180
ENDCHAR
STARTCHAR uni040D
ENCODING 1037
SWIDTH 707 0
DWIDTH 11 0
BBX 9 15 1 0
BITMAP
3800
0C00
0000
C180
C380
C380
C780
C780
CD80
D980
D980
F180
F180
E180
C180
ENDCHAR
STARTCHAR uni040E
ENCODING 1038
SWIDTH 629 0
DWIDTH 10 0
BBX 10 15 0 0
BITMAP
1300
1E00
0000
E1C0
6180
3180
3300
3300
1E00
1E00
0E00
0C00
0C00
0800
3800
ENDCHAR
STARTCHAR uni040F
ENCODING 1039
SWIDTH 708 0
DWIDTH 11 0
BBX 9 15 1 -3
BITMAP
C180
C180
C180
C180
C180
C180
C180
C180
C180
C180
C180
FF80
0C00
0C00
0C00
ENDCHAR
STARTCHAR uni0410
ENCODING 1040
SWIDTH 665 0
DWIDTH 11 0
BBX 11 12 0 0
BITMAP
0C00
0E00
0E00
1A00
1B00
3300
3180
3180
7F80
60C0
60C0
C0E0
ENDCHAR
STARTCHAR uni0411
ENCODING 1041
SWIDTH 628 0
DWIDTH 10 0
BBX 8 12 1 0
BITMAP
FE
C0
C0
C0
C0
FE
C3
C3
C1
C3
C3
FE
ENDCHAR
STARTCHAR uni0412
ENCODING 1042
SWIDTH 630 0
DWIDTH 10 0
BBX 8 12 1 0
BITMAP
FC
C3
C3
C3
C7
FC
C3
C3
C3
C3
C3
FE
ENDCHAR
STARTCHAR uni0413
ENCODING 1043
SWIDTH 557 0
DWIDTH 9 0
BBX 7 12 1 0
BITMAP
FE
C0
C0
C0
C0
C0
C0
C0
C0
C0
C0
C0
ENDCHAR
STARTCHAR uni0414
ENCODING 1044
SWIDTH 752 0
DWIDTH 12 0
BBX 12 15 0 -3
BITMAP
1FC0
18C0
18C0
18C0
18C0
18C0
18C0
18C0
30C0
30C0
30C0
FFF0
C030
C030
C030
ENDCHAR
STARTCHAR uni0415
ENCODING 1045
SWIDTH 565 0
DWIDTH 9 0
BBX 8 12 1 0
BITMAP
FF
C0
C0
C0
C0
FE
C0
C0
C0
C0
C0
FF
ENDCHAR
STARTCHAR uni0416
ENCODING 1046
SWIDTH 954 0
DWIDTH 15 0
BBX 15 12 0 0
BITMAP
E18E
718C
3198
1998
19B0
0FF0
19B0
1998
3198
318C
618C
E186
ENDCHAR
STARTCHAR uni0417
ENCODING 1047
SWIDTH 604 0
DWIDTH 10 0
BBX 8 12 1 0
BITMAP
3C
E6
C3
03
03
06
1C
03
03
C3
C7
7C
ENDCHAR
STARTCHAR uni0418
ENCODING 1048
SWIDTH 707 0
DWIDTH 11 0
BBX 9 12 1 0
BITMAP
C180
C380
C380
C780
C780
CD80
D980
D980
F180
F180
E180
C180
ENDCHAR
STARTCHAR uni0419
ENCODING 1049
SWIDTH 707 0
DWIDTH 11 0
BBX 9 15 1 0
BITMAP
3200
1C00
0000
C180
C380
C380
C780
C780
CD80
D980
D980
F180
F180
E180
C180
ENDCHAR
STARTCHAR uni041A
ENCODING 1050
SWIDTH 644 0
DWIDTH 10 0
BBX 9 12 1 0
BITMAP
C380
C300
C600
CC00
CC00
F800
CC00
CC00
C600
C300
C300
C180
ENDCHAR
STARTCHAR uni041B
ENCODING 1051
SWIDTH 707 0
DWIDTH 11 0
BBX 10 12 0 0
BITMAP
1FC0
10C0
10C0
10C0
30C0
30C0
30C0
30C0
30C0
30C0
20C0
E0C0
ENDCHAR
STARTCHAR uni041C
ENCODING 1052
SWIDTH 875 0
DWIDTH 14 0
BBX 12 12 1 0
BITMAP
E070
E070
F0F0
F0F0
D0B0
D9B0
D9B0
C930
CF30
CF30
C630
C630
ENDCHAR
STARTCHAR uni041D
ENCODING 1053
SWIDTH 710 0
DWIDTH 11 0
BBX 9 12 1 0
BITMAP
C180
C180
C180
C180
C180
FF80
C180
C180
C180
C180
C180
C180
ENDCHAR
STARTCHAR uni041E
ENCODING 1054
SWIDTH 690 0
DWIDTH 11 0
BBX 9 12 1 0
BITMAP
3E00
6300
C180
C180
C180
C180
C180
C180
C180
C180
6300
3E00
ENDCHAR
STARTCHAR uni041F
ENCODING 1055
SWIDTH 711 0
DWIDTH 11 0
BBX 9 12 1 0
BITMAP
FF80
C180
C180
C180
C180
C180
C180
C180
C180
C180
C180
C180
ENDCHAR
STARTCHAR uni0420
ENCODING 1056
SWIDTH 639 0
DWIDTH 10 0
BBX 9 12 1 0
BITMAP
FE00
C300
C300
C180
C300
C300
FE00
C000
C000
C000
C000
C000
ENDCHAR
STARTCHAR uni0421
ENCODING 1057
SWIDTH 652 0
DWIDTH 10 0
BBX 9 12 1 0
BITMAP
3E00
6300
C300
C080
C000
C000
C000
C000
C000
C380
6300
3E00
ENDCHAR
STARTCHAR uni0422
ENCODING 1058
SWIDTH 606 0
DWIDTH 10 0
BBX 9 12 0 0
BITMAP
FF80
0C00
0C00
0C00
0C00
0C00
0C00
0C00
0C00
0C00
0C00
0C00
ENDCHAR
STARTCHAR uni0423
ENCODING 1059
SWIDTH 629 0
DWIDTH 10 0
BBX 10 12 0 0
BITMAP
E1C0
6180
3180
3300
3300
1E00
1E00
0E00
0C00
0C00
0800
3800
ENDCHAR
STARTCHAR uni0424
ENCODING 1060
SWIDTH 796 0
DWIDTH 13 0
BBX 11 12 1 0
BITMAP
0400
3F80
64C0
C460
C460
C460
C460
C460
64C0
3F80
0400
0400
ENDCHAR
STARTCHAR uni0425
ENCODING 1061
SWIDTH 632 0
DWIDTH 10 0
BBX 10 12 0 0
BITMAP
E1C0
7180
3300
3B00
1E00
0E00
0E00
1E00
3B00
3300
6180
E1C0
ENDCHAR
STARTCHAR uni0426
ENCODING 1062
SWIDTH 746 0
DWIDTH 12 0
BBX 10 15 1 -3
BITMAP
C180
C180
C180
C180
C180
C180
C180
C180
C180
C180
C180
FFC0
0040
0040
0040
ENDCHAR
STARTCHAR uni0427
ENCODING 1063
SWIDTH 691 0
DWIDTH 11 0
BBX 9 12 1 0
BITMAP
C180
C180
C180
C180
C180
6180
3F80
0180
0180
0180
0180
0180
ENDCHAR
STARTCHAR uni0428
ENCODING 1064
SWIDTH 950 0
DWIDTH 15 0
BBX 13 12 1 0
BITMAP
C318
C318
C318
C318
C318
C318
C318
C318
C318
C318
C318
FFF8
ENDCHAR
STARTCHAR uni0429
ENCODING 1065
SWIDTH 996 0
DWIDTH 16 0
BBX 14 15 1 -3
BITMAP
C318
C318
C318
C318
C318
C318
C318
C318
C318
C318
C318
FFFC
000C
000C
000C
ENDCHAR
STARTCHAR uni042A
ENCODING 1066
SWIDTH 762 0
DWIDTH 12 0
BBX 12 12 0 0
BITMAP
F800
1800
1800
1800
1800
1FC0
1860
1860
1830
1860
1860
1FC0
ENDCHAR
STARTCHAR uni042B
ENCODING 1067
SWIDTH 871 0
DWIDTH 14 0
BBX 12 12 1 0
BITMAP
C030
C030
C030
C030
C030
FE30
C330
C1B0
C1B0
C130
C330
FE30
ENDCHAR
STARTCHAR uni042C
ENCODING 1068
SWIDTH 628 0
DWIDTH 10 0
BBX 8 12 1 0
BITMAP
C0
C0
C0
C0
C0
FE
C3
C3
C1
C3
C3
FE
ENDCHAR
STARTCHAR uni042D
ENCODING 1069
SWIDTH 664 0
DWIDTH 11 0
BBX 9 12 1 0
BITMAP
3E00
6300
C300
C180
0180
0180
1F80
0180
C180
C100
6300
3E00
ENDCHAR
STARTCHAR uni042E
ENCODING 1070
SWIDTH 916 0
DWIDTH 15 0
BBX 13 12 1 0
BITMAP
C3E0
C630
C418
CC18
CC18
CC18
FC18
CC18
CC18
CC18
C630
C3E0
ENDCHAR
STARTCHAR uni042F
ENCODING 1071
SWIDTH 620 0
DWIDTH 10 0
BBX 9 12 0 0
BITMAP
1F80
6180
6180
6180
6180
7180
1F80
3180
3180
7180
6180
E180
ENDCHAR
STARTCHAR uni0430
ENCODING 1072
SWIDTH 541 0
DWIDTH 9 0
BBX 7 9 1 0
BITMAP
7C
CC
C6
06
7E
C6
C6
CE
76
ENDCHAR
STARTCHAR uni0431
ENCODING 1073
SWIDTH 561 0
DWIDTH 9 0
BBX 7 12 1 0
BITMAP
06
3C
70
C0
BC
C6
C6
C2
C2
C6
C6
3C
ENDCHAR
STARTCHAR uni0432
ENCODING 1074
SWIDTH 569 0
DWIDTH 9 0
BBX 7 9 1 0
BITMAP
FC
C6
C6
FC
C6
C6
C6
C6
FC
ENDCHAR
STARTCHAR uni0433
ENCODING 1075
SWIDTH 418 0
DWIDTH 7 0
BBX 6 9 1 0
BITMAP
FC
C0
C0
C0
C0
C0
C0
C0
C0
ENDCHAR
STARTCHAR uni0434
ENCODING 1076
SWIDTH 620 0
DWIDTH 10 0
BBX 10 12 0 -3
BITMAP
1F00
3100
3100
3100
3100
3100
3100
7100
FFC0
C0C0
C0C0
C0C0
ENDCHAR
STARTCHAR uni0435
ENCODING 1077
SWIDTH 536 0
DWIDTH 9 0
BBX 7 9 1 0
BITMAP
3C
66
C6
C6
FE
C0
C4
66
3C
ENDCHAR
STARTCHAR uni0436
ENCODING 1078
SWIDTH 807 0
DWIDTH 13 0
BBX 13 9 0 0
BITMAP
E238
6230
3260
3240
1FC0
3260
3260
6230
E238
ENDCHAR
STARTCHAR uni0437
ENCODING 1079
SWIDTH 510 0
DWIDTH 8 0
BBX 6 9 1 0
BITMAP
78
CC
0C
38
0C
04
84
CC
78
ENDCHAR
STARTCHAR uni0438
ENCODING 1080
SWIDTH 574 0
DWIDTH 9 0
BBX 7 9 1 0
BITMAP
C6
CE
CE
DE
D6
F6
E6
E6
C6
ENDCHAR
STARTCHAR uni0439
ENCODING 1081
SWIDTH 574 0
DWIDTH 9 0
BBX 7 12 1 0
BITMAP
64
38
00
C6
CE
CE
DE
D6
F6
E6
E6
C6
ENDCHAR
STARTCHAR uni043A
ENCODING 1082
SWIDTH 553 0
DWIDTH 9 0
BBX 8 9 1 0
BITMAP
C7
CC
D8
F8
D8
CC
CC
C6
C7
ENDCHAR
STARTCHAR uni043B
ENCODING 1083
SWIDTH 575 0
DWIDTH 9 0
BBX 8 9 0 0
BITMAP
3F
33
33
33
33
33
23
63
C3
ENDCHAR
STARTCHAR uni043C
ENCODING 1084
SWIDTH 751 0
DWIDTH 12 0
BBX 10 9 1 0
BITMAP
E1C0
E1C0
E1C0
F3C0
D2C0
DEC0
DEC0
CCC0
CCC0
ENDCHAR
STARTCHAR uni043D
ENCODING 1085
SWIDTH 573 0
DWIDTH 9 0
BBX 7 9 1 0
BITMAP
C6
C6
C6
C6
FE
C6
C6
C6
C6
ENDCHAR
STARTCHAR uni043E
ENCODING 1086
SWIDTH 569 0
DWIDTH 9 0
BBX 7 9 1 0
BITMAP
38
C6
C6
C6
82
C6
C6
C6
38
ENDCHAR
STARTCHAR uni043F
ENCODING 1087
SWIDTH 574 0
DWIDTH 9 0
BBX 7 9 1 0
BITMAP
FE
C6
C6
C6
C6
C6
C6
C6
C6
ENDCHAR
STARTCHAR uni0440
ENCODING 1088
SWIDTH 562 0
DWIDTH 9 0
BBX 7 12 1 -3
BITMAP
FC
C6
C6
C6
C6
C6
C6
C6
FC
C0
C0
C0
ENDCHAR
STARTCHAR uni0441
ENCODING 1089
SWIDTH 523 0
DWIDTH 8 0
BBX 8 9 0 0
BITMAP
3C
66
63
C0
C0
C0
63
66
3C
ENDCHAR
STARTCHAR uni0442
ENCODING 1090
SWIDTH 494 0
DWIDTH 8 0
BBX 8 9 0 0
BITMAP
FF
18
18
18
18
18
18
18
18
ENDCHAR
STARTCHAR uni0443
ENCODING 1091
SWIDTH 486 0
DWIDTH 8 0
BBX 8 12 0 -3
BITMAP
C3
66
66
66
3C
3C
3C
18
18
18
10
60
ENDCHAR
STARTCHAR uni0444
ENCODING 1092
SWIDTH 728 0
DWIDTH 12 0
BBX 10 15 1 -3
BITMAP
0C00
0C00
0C00
7F80
4CC0
CCC0
CCC0
CCC0
CCC0
CCC0
CCC0
7F80
0C00
0C00
0C00
ENDCHAR
STARTCHAR uni0445
ENCODING 1093
SWIDTH 502 0
DWIDTH 8 0
BBX 8 9 0 0
BITMAP
E7
66
3C
3C
18
3C
3C
66
E7
ENDCHAR
STARTCHAR uni0446
ENCODING 1094
SWIDTH 603 0
DWIDTH 10 0
BBX 8 12 1 -3
BITMAP
C6
C6
C6
C6
C6
C6
C6
C6
FF
03
03
03
ENDCHAR
STARTCHAR uni0447
ENCODING 1095
SWIDTH 549 0
DWIDTH 9 0
BBX 7 9 1 0
BITMAP
C6
C6
C6
C6
7E
06
06
06
06
ENDCHAR
STARTCHAR uni0448
ENCODING 1096
SWIDTH 819 0
DWIDTH 13 0
BBX 11 9 1 0
BITMAP
C460
C460
C460
C460
C460
C460
C460
C460
FFE0
ENDCHAR
STARTCHAR uni0449
ENCODING 1097
SWIDTH 865 0
DWIDTH 14 0
BBX 12 12 1 -3
BITMAP
C460
C460
C460
C460
C460
C460
C460
C460
FFF0
0010
0010
0010
ENDCHAR
STARTCHAR uni044A
ENCODING 1098
SWIDTH 636 0
DWIDTH 10 0
BBX 10 9 0 0
BITMAP
F800
1800
1800
1F00
1980
18C0
18C0
1980
1F00
ENDCHAR
STARTCHAR uni044B
ENCODING 1099
SWIDTH 804 0
DWIDTH 13 0
BBX 11 9 1 0
BITMAP
C060
C060
C060
FC60
C660
C660
C660
C660
FC60
ENDCHAR
STARTCHAR uni044C
ENCODING 1100
SWIDTH 550 0
DWIDTH 9 0
BBX 7 9 1 0
BITMAP
C0
C0
C0
FC
C6
C6
C6
C6
FC
ENDCHAR
STARTCHAR uni044D
ENCODING 1101
SWIDTH 529 0
DWIDTH 8 0
BBX 8 9 0 0
BITMAP
3C
66
82
1F
03
C3
46
66
3C
ENDCHAR
STARTCHAR uni044E
ENCODING 1102
SWIDTH 814 0
DWIDTH 13 0
BBX 11 9 1 0
BITMAP
C780
CC60
CC60
FC60
C820
CC60
CC60
C460
C380
ENDCHAR
STARTCHAR uni044F
ENCODING 1103
SWIDTH 554 0
DWIDTH 9 0
BBX 8 9 0 0
BITMAP
3F
63
63
63
3F
33
23
63
E3
ENDCHAR
STARTCHAR uni0450
ENCODING 1104
SWIDTH 536 0
DWIDTH 9 0
BBX 7 12 1 0
BITMAP
60
30
00
3C
66
C6
C6
FE
C0
C4
66
3C
ENDCHAR
STARTCHAR uni0451
ENCODING 1105
SWIDTH 536 0
DWIDTH 9 0
BBX 7 12 1 0
BITMAP
4C
6C
00
3C
66
C6
C6
FE
C0
C4
66
3C
ENDCHAR
STARTCHAR uni0452
ENCODING 1106
SWIDTH 555 0
DWIDTH 9 0
BBX 8 15 0 -3
BITMAP
60
F8
60
6E
73
63
63
63
63
63
63
63
03
03
0E
ENDCHAR
STARTCHAR uni0453
ENCODING 1107
SWIDTH 418 0
DWIDTH 7 0
BBX 6 12 1 0
BITMAP
38
60
00
FC
C0
C0
C0
C0
C0
C0
C0
C0
ENDCHAR
STARTCHAR uni0454
ENCODING 1108
SWIDTH 529 0
DWIDTH 8 0
BBX 8 9 0 0
BITMAP
3C
66
41
F8
C0
C3
62
66
3C
ENDCHAR
STARTCHAR uni0455
ENCODING 1109
SWIDTH 516 0
DWIDTH 8 0
BBX 7 9 0 0
BITMAP
3C
66
66
70
3C
06
C2
66
3C
ENDCHAR
STARTCHAR uni0456
ENCODING 1110
SWIDTH 255 0
DWIDTH 4 0
BBX 2 12 1 0
BITMAP
C0
C0
00
C0
C0
C0
C0
C0
C0
C0
C0
C0
ENDCHAR
STARTCHAR uni0457
ENCODING 1111
SWIDTH 262 0
DWIDTH 4 0
BBX 6 12 -1 0
BITMAP
CC
CC
00
30
30
30
30
30
30
30
30
30
ENDCHAR
STARTCHAR uni0458
ENCODING 1112
SWIDTH 250 0
DWIDTH 4 0
BBX 4 15 -1 -3
BITMAP
30
30
00
30
30
30
30
30
30
30
30
30
30
30
E0
ENDCHAR
STARTCHAR uni0459
ENCODING 1113
SWIDTH 852 0
DWIDTH 14 0
BBX 13 9 0 0
BITMAP
3F00
3300
3300
33F0
3318
3318
3318
6318
E3F0
ENDCHAR
STARTCHAR uni045A
ENCODING 1114
SWIDTH 861 0
DWIDTH 14 0
BBX 12 9 1 0
BITMAP
C600
C600
C600
FFE0
C630
C610
C610
C630
C7E0
ENDCHAR
STARTCHAR uni045B
ENCODING 1115
SWIDTH 566 0
DWIDTH 9 0
BBX 8 12 0 0
BITMAP
60
F8
60
7E
63
63
63
63
63
63
63
63
ENDCHAR
STARTCHAR uni045C
ENCODING 1116
SWIDTH 553 0
DWIDTH 9 0
BBX 8 12 1 0
BITMAP
1C
30
00
C7
CC
D8
F8
D8
CC
CC
C6
C7
ENDCHAR
STARTCHAR uni045D
ENCODING 1117
SWIDTH 574 0
DWIDTH 9 0
BBX 7 12 1 0
BITMAP
70
18
00
C6
CE
CE
DE
D6
F6
E6
E6
C6
ENDCHAR
STARTCHAR uni045E
ENCODING 1118
SWIDTH 486 0
DWIDTH 8 0
BBX 8 15 0 -3
BITMAP
66
3C
00
C3
66
66
66
3C
3C
3C
18
18
18
10
60
ENDCHAR
STARTCHAR uni045F
ENCODING 1119
SWIDTH 574 0
DWIDTH 9 0
BBX 7 12 1 -3
BITMAP
C6
C6
C6
C6
C6
C6
C6
C6
FE
18
18
18
ENDCHAR
STARTCHAR uni0460
ENCODING 1120
SWIDTH 910 0
DWIDTH 15 0
BBX 13 12 1 0
BITMAP
C318
C318
C318
C318
C318
C318
C318
C318
C318
C718
6730
3DE0
ENDCHAR
STARTCHAR uni0461
ENCODING 1121
SWIDTH 788 0
DWIDTH 13 0
BBX 11 9 1 0
BITMAP
C660
C660
C660
C660
C660
C660
C660
CE60
7BC0
ENDCHAR
STARTCHAR uni0462
ENCODING 1122
SWIDTH 628 0
DWIDTH 10 0
BBX 9 12 0 0
BITMAP
6000
6000
F800
6000
6000
7F00
6180
6180
6080
6180
6180
7F00
ENDCHAR
STARTCHAR uni0463
ENCODING 1123
SWIDTH 550 0
DWIDTH 9 0
BBX 8 12 0 0
BITMAP
60
60
F8
60
60
60
7E
63
63
63
63
7E
ENDCHAR
STARTCHAR uni0464
ENCODING 1124
SWIDTH 894 0
DWIDTH 14 0
BBX 12 12 1 0
BITMAP
C3C0
C630
CC30
CC30
D800
FF80
D800
C800
CC30
CC30
C630
C3C0
ENDCHAR
STARTCHAR uni0465
ENCODING 1125
SWIDTH 750 0
DWIDTH 12 0
BBX 10 9 1 0
BITMAP
C780
CCC0
D840
FF00
D800
D840
C8C0
CCC0
C780
ENDCHAR
STARTCHAR uni0466
ENCODING 1126
SWIDTH 630 0
DWIDTH 10 0
BBX 10 12 0 0
BITMAP
0C00
0E00
1E00
1E00
1B00
3300
3300
3F80
6D80
6D80
6CC0
CCC0
ENDCHAR
STARTCHAR uni0467
ENCODING 1127
SWIDTH 546 0
DWIDTH 9 0
BBX 9 9 0 0
BITMAP
1800
1C00
3C00
3600
3600
7E00
6B00
4B00
CB80
ENDCHAR
STARTCHAR uni0468
ENCODING 1128
SWIDTH 907 0
DWIDTH 15 0
BBX 13 12 1 0
BITMAP
C1C0
C1C0
C1C0
C360
C360
C360
C630
FFF0
CDB0
CD98
CD98
DD98
ENDCHAR
STARTCHAR uni0469
ENCODING 1129
SWIDTH 776 0
DWIDTH 12 0
BBX 11 9 1 0
BITMAP
C300
C700
C780
C780
CCC0
FFC0
DB40
DB60
DB60
ENDCHAR
STARTCHAR uni046A
ENCODING 1130
SWIDTH 865 0
DWIDTH 14 0
BBX 12 12 1 0
BITMAP
7FE0
30C0
19C0
1980
0F00
3FC0
6660
C630
C630
C630
C630
C630
ENDCHAR
STARTCHAR uni046B
ENCODING 1131
SWIDTH 737 0
DWIDTH 12 0
BBX 10 9 1 0
BITMAP
7F80
3300
3B00
1E00
7F80
4C80
CCC0
CCC0
CCC0
ENDCHAR
STARTCHAR uni046C
ENCODING 1132
SWIDTH 1149 0
DWIDTH 18 0
BBX 16 12 1 0
BITMAP
C7FE
C38C
C18C
C0D8
C0D8
FFFE
C663
CC63
CC63
CC63
CC63
CC63
ENDCHAR
STARTCHAR uni046D
ENCODING 1133
SWIDTH 996 0
DWIDTH 16 0
BBX 14 9 1 0
BITMAP
C7F8
C330
C1B0
C1E0
FFF8
CEC8
CCCC
CCCC
CCCC
ENDCHAR
STARTCHAR uni046E
ENCODING 1134
SWIDTH 515 0
DWIDTH 8 0
BBX 7 18 0 -3
BITMAP
6E
18
00
78
0E
06
06
0C
38
06
06
06
06
06
78
C0
C0
60
ENDCHAR
STARTCHAR uni046F
ENCODING 1135
SWIDTH 492 0
DWIDTH 8 0
BBX 7 15 0 -3
BITMAP
6C
18
00
7C
06
06
38
06
06
06
06
7C
C0
60
20
ENDCHAR
STARTCHAR uni0470
ENCODING 1136
SWIDTH 708 0
DWIDTH 11 0
BBX 11 12 0 0
BITMAP
CC60
CC60
CC60
CC60
CC40
6CC0
6CC0
1F00
0C00
0C00
0C00
0C00
ENDCHAR
STARTCHAR uni0471
ENCODING 1137
SWIDTH 723 0
DWIDTH 12 0
BBX 10 13 1 -4
BITMAP
CDC0
CCC0
CCC0
CCC0
CCC0
CCC0
CCC0
6D80
3F00
0C00
0C00
0C00
0C00
ENDCHAR
STARTCHAR uni0472
ENCODING 1138
SWIDTH 684 0
DWIDTH 11 0
BBX 9 12 1 0
BITMAP
3E00
6300
C180
C180
C180
FF80
C180
C180
C180
C180
6300
3E00
ENDCHAR
STARTCHAR uni0473
ENCODING 1139
SWIDTH 566 0
DWIDTH 9 0
BBX 7 9 1 0
BITMAP
38
C6
C6
FE
C6
C6
C6
E6
38
ENDCHAR
STARTCHAR uni0474
ENCODING 1140
SWIDTH 637 0
DWIDTH 10 0
BBX 10 12 0 0
BITMAP
C0C0
6180
6180
6100
6300
3300
3200
3600
1E00
1E00
1C00
0C00
ENDCHAR
STARTCHAR uni0475
ENCODING 1141
SWIDTH 506 0
DWIDTH 8 0
BBX 8 9 0 0
BITMAP
C3
66
66
64
2C
3C
38
18
18
ENDCHAR
STARTCHAR uni0476
ENCODING 1142
SWIDTH 637 0
DWIDTH 10 0
BBX 10 15 0 0
BITMAP
6C00
3E00
0000
C0C0
6180
6180
6100
6300
3300
3200
3600
1E00
1E00
1C00
0C00
ENDCHAR
STARTCHAR uni0477
ENCODING 1143
SWIDTH 506 0
DWIDTH 8 0
BBX 8 12 0 0
BITMAP
F8
3C
00
C3
66
66
64
2C
3C
38
18
18
ENDCHAR
STARTCHAR uni0478
ENCODING 1144
SWIDTH 1177 0
DWIDTH 19 0
BBX 18 15 1 -3
BITMAP
3E0000
630000
C18000
C1B0C0
C19980
C19980
C19980
C18F00
C18F00
C18F00
630600
3E0600
000600
000400
001800
ENDCHAR
STARTCHAR uni0479
ENCODING 1145
SWIDTH 1056 0
DWIDTH 17 0
BBX 16 12 1 -3
BITMAP
38C3
C666
C666
C666
8234
C63C
C63C
C618
3818
0018
0010
0060
ENDCHAR
STARTCHAR uni047A
ENCODING 1146
SWIDTH 684 0
DWIDTH 11 0
BBX 9 14 1 -1
BITMAP
0800
3E00
6B00
C180
C180
C180
C180
C180
C180
C180
C180
6B00
3E00
0800
ENDCHAR
STARTCHAR uni047B
ENCODING 1147
SWIDTH 566 0
DWIDTH 9 0
BBX 7 11 1 -1
BITMAP
10
7C
D6
C6
C2
82
C2
C6
D6
7C
10
ENDCHAR
STARTCHAR uni047C
ENCODING 1148
SWIDTH 908 0
DWIDTH 15 0
BBX 13 15 1 0
BITMAP
0F00
09C0
0200
3260
6030
C010
C018
C018
C218
C218
C218
C218
C610
6730
3DE0
ENDCHAR
STARTCHAR uni047D
ENCODING 1149
SWIDTH 783 0
DWIDTH 13 0
BBX 11 12 1 0
BITMAP
0E00
1180
0600
24C0
4040
C060
C060
C460
C460
C460
4E40
7BC0
ENDCHAR
STARTCHAR uni047E
ENCODING 1150
SWIDTH 910 0
DWIDTH 15 0
BBX 13 15 1 0
BITMAP
1FC0
0200
0000
C318
C318
C318
C318
C318
C318
C318
C318
C318
C718
6730
3DE0
ENDCHAR
STARTCHAR uni047F
ENCODING 1151
SWIDTH 788 0
DWIDTH 13 0
BBX 11 12 1 0
BITMAP
3F80
0400
0000
C660
C660
C660
C660
C660
C660
C660
CE60
7BC0
ENDCHAR
STARTCHAR uni0480
ENCODING 1152
SWIDTH 637 0
DWIDTH 10 0
BBX 8 15 1 -3
BITMAP
3C
63
C3
C3
C0
C0
C0
C0
C0
C0
60
38
18
18
18
ENDCHAR
STARTCHAR uni0481
ENCODING 1153
SWIDTH 536 0
DWIDTH 9 0
BBX 7 12 1 -3
BITMAP
3C
66
C6
C0
C0
C0
C0
60
38
18
18
18
ENDCHAR
STARTCHAR uni0482
ENCODING 1154
SWIDTH 624 0
DWIDTH 10 0
BBX 8 10 1 0
BITMAP
03
26
1C
0E
0B
D0
70
38
64
C0
ENDCHAR
STARTCHAR uni0483
ENCODING 1155
SWIDTH 0 0
DWIDTH 0 0
BBX 5 3 -7 9
BITMAP
08
F8
80
ENDCHAR
STARTCHAR uni0484
ENCODING 1156
SWIDTH 0 0
DWIDTH 0 0
BBX 6 2 -7 10
BITMAP
38
C4
ENDCHAR
STARTCHAR uni0485
ENCODING 1157
SWIDTH 0 0
DWIDTH 0 0
BBX 2 3 -5 10
BITMAP
80
80
40
ENDCHAR
STARTCHAR uni0486
ENCODING 1158
SWIDTH 0 0
DWIDTH 0 0
BBX 2 3 -5 10
BITMAP
40
40
80
ENDCHAR
STARTCHAR uni0488
ENCODING 1160
SWIDTH 0 0
DWIDTH 0 0
BBX 16 15 -12 -3
BITMAP
0180
0280
0000
301C
2814
0000
0000
6006
900A
0001
0000
3018
2814
0180
0280
ENDCHAR
STARTCHAR uni0489
ENCODING 1161
SWIDTH 0 0
DWIDTH 0 0
BBX 14 15 -11 -3
BITMAP
0100
0200
2200
2018
1020
0000
0000
C018
4004
0000
0000
1020
6320
0210
0200
ENDCHAR
STARTCHAR uni048A
ENCODING 1162
SWIDTH 770 0
DWIDTH 12 0
BBX 11 17 1 -2
BITMAP
3200
1C00
0000
C180
C380
C380
C780
C780
CD80
D980
D980
F180
F180
E1E0
C1E0
0060
00C0
ENDCHAR
STARTCHAR uni048B
ENCODING 1163
SWIDTH 638 0
DWIDTH 10 0
BBX 9 14 1 -2
BITMAP
6400
3800
0000
C600
CE00
CE00
DE00
D600
F600
E600
E780
C780
0180
0100
ENDCHAR
STARTCHAR uni048C
ENCODING 1164
SWIDTH 628 0
DWIDTH 10 0
BBX 9 12 0 0
BITMAP
6000
6000
F800
6000
6000
7F00
6180
6180
6080
6180
6180
7F00
ENDCHAR
STARTCHAR uni048D
ENCODING 1165
SWIDTH 550 0
DWIDTH 9 0
BBX 8 13 0 0
BITMAP
60
F8
60
60
60
60
60
7E
63
63
63
63
7E
ENDCHAR
STARTCHAR uni048E
ENCODING 1166
SWIDTH 634 0
DWIDTH 10 0
BBX 9 12 1 0
BITMAP
FE00
C300
C300
C180
C700
C700
FF00
C180
C000
C000
C000
C000
ENDCHAR
STARTCHAR uni048F
ENCODING 1167
SWIDTH 565 0
DWIDTH 9 0
BBX 7 12 1 -3
BITMAP
FC
C6
C6
C6
C6
C6
CE
CE
FE
C4
C0
C0
ENDCHAR
STARTCHAR uni0490
ENCODING 1168
SWIDTH 551 0
DWIDTH 9 0
BBX 7 14 1 0
BITMAP
02
02
FE
C0
C0
C0
C0
C0
C0
C0
C0
C0
C0
C0
ENDCHAR
STARTCHAR uni0491
ENCODING 1169
SWIDTH 453 0
DWIDTH 7 0
BBX 6 11 1 0
BITMAP
0C
0C
FC
C0
C0
C0
C0
C0
C0
C0
C0
ENDCHAR
STARTCHAR uni0492
ENCODING 1170
SWIDTH 557 0
DWIDTH 9 0
BBX 8 12 0 0
BITMAP
7F
60
60
60
60
F8
60
60
60
60
60
60
ENDCHAR
STARTCHAR uni0493
ENCODING 1171
SWIDTH 418 0
DWIDTH 7 0
BBX 7 9 0 0
BITMAP
7E
60
60
60
F8
60
60
60
60
ENDCHAR
STARTCHAR uni0494
ENCODING 1172
SWIDTH 618 0
DWIDTH 10 0
BBX 8 14 1 -2
BITMAP
FE
C0
C0
C0
C0
FC
C6
C3
C3
C3
C3
C3
03
0C
ENDCHAR
STARTCHAR uni0495
ENCODING 1173
SWIDTH 515 0
DWIDTH 8 0
BBX 7 11 1 -2
BITMAP
F8
C0
C0
F8
CC
C4
C6
C6
CC
1C
18
ENDCHAR
STARTCHAR uni0496
ENCODING 1174
SWIDTH 1013 0
DWIDTH 16 0
BBX 16 15 0 -3
BITMAP
E18E
718C
3198
1998
19B0
0FF0
19B0
1998
3198
318C
618C
E187
0003
0003
0003
ENDCHAR
STARTCHAR uni0497
ENCODING 1175
SWIDTH 853 0
DWIDTH 14 0
BBX 13 12 0 -3
BITMAP
E238
6230
3260
3240
1FC0
3260
3260
6230
6238
8008
0008
0008
ENDCHAR
STARTCHAR uni0498
ENCODING 1176
SWIDTH 604 0
DWIDTH 10 0
BBX 8 16 1 -4
BITMAP
3C
E6
C3
03
03
06
1C
03
03
C3
C7
7C
18
18
18
18
ENDCHAR
STARTCHAR uni0499
ENCODING 1177
SWIDTH 510 0
DWIDTH 8 0
BBX 6 13 1 -4
BITMAP
78
CC
0C
38
0C
04
84
CC
78
30
30
30
30
ENDCHAR
STARTCHAR uni049A
ENCODING 1178
SWIDTH 724 0
DWIDTH 12 0
BBX 10 15 1 -3
BITMAP
C380
C300
C600
CC00
CC00
F800
CC00
CC00
C600
C300
C300
C1C0
00C0
00C0
00C0
ENDCHAR
STARTCHAR uni049B
ENCODING 1179
SWIDTH 622 0
DWIDTH 10 0
BBX 9 12 1 -3
BITMAP
C700
CC00
D800
F800
D800
CC00
CC00
C600
C780
0180
0180
0180
ENDCHAR
STARTCHAR uni049C
ENCODING 1180
SWIDTH 646 0
DWIDTH 10 0
BBX 9 12 1 0
BITMAP
C380
C300
C300
D600
D600
FC00
D600
D600
C300
C300
C380
C180
ENDCHAR
STARTCHAR uni049D
ENCODING 1181
SWIDTH 583 0
DWIDTH 9 0
BBX 8 9 1 0
BITMAP
C3
C6
D6
DC
FC
DC
C6
C6
C3
ENDCHAR
STARTCHAR uni049E
ENCODING 1182
SWIDTH 654 0
DWIDTH 10 0
BBX 11 12 0 0
BITMAP
61C0
6180
FB00
6700
6600
7C00
6600
6300
6300
6180
61C0
60E0
ENDCHAR
STARTCHAR uni049F
ENCODING 1183
SWIDTH 533 0
DWIDTH 9 0
BBX 10 12 -1 0
BITMAP
3000
FC00
3000
3180
3300
3600
3C00
3600
3300
3300
3180
31C0
ENDCHAR
STARTCHAR uni04A0
ENCODING 1184
SWIDTH 822 0
DWIDTH 13 0
BBX 13 12 0 0
BITMAP
FC38
0C30
0C60
0CC0
0DC0
0F80
0CC0
0CC0
0C60
0C70
0C30
0C18
ENDCHAR
STARTCHAR uni04A1
ENCODING 1185
SWIDTH 705 0
DWIDTH 11 0
BBX 11 9 0 0
BITMAP
FCE0
0CC0
0D80
0D80
0F00
0D80
0DC0
0CC0
0C60
ENDCHAR
STARTCHAR uni04A2
ENCODING 1186
SWIDTH 769 0
DWIDTH 12 0
BBX 11 15 1 -3
BITMAP
C180
C180
C180
C180
C180
FF80
C180
C180
C180
C180
C180
C1E0
0060
0060
0060
ENDCHAR
STARTCHAR uni04A3
ENCODING 1187
SWIDTH 631 0
DWIDTH 10 0
BBX 9 12 1 -3
BITMAP
C600
C600
C600
C600
FE00
C600
C600
C600
C780
0180
0180
0180
ENDCHAR
STARTCHAR uni04A4
ENCODING 1188
SWIDTH 976 0
DWIDTH 16 0
BBX 14 12 1 0
BITMAP
C1FC
C180
C180
C180
FF80
C180
C180
C180
C180
C180
C180
C180
ENDCHAR
STARTCHAR uni04A5
ENCODING 1189
SWIDTH 708 0
DWIDTH 11 0
BBX 10 9 1 0
BITMAP
C7C0
C600
C600
FE00
C600
C600
C600
C600
C600
ENDCHAR
STARTCHAR uni04A6
ENCODING 1190
SWIDTH 1034 0
DWIDTH 17 0
BBX 15 14 1 -2
BITMAP
FF80
C180
C180
C180
C180
C1F8
C18C
C186
C186
C186
C186
C186
000C
0018
ENDCHAR
STARTCHAR uni04A7
ENCODING 1191
SWIDTH 869 0
DWIDTH 14 0
BBX 12 11 1 -2
BITMAP
FE00
C600
C600
C7C0
C630
C630
C610
C610
C630
0070
0060
ENDCHAR
STARTCHAR uni04A8
ENCODING 1192
SWIDTH 770 0
DWIDTH 12 0
BBX 11 12 1 0
BITMAP
2780
64C0
CCC0
CCC0
CCC0
CCC0
CCC0
CCC0
CEC0
CFC0
6780
1EE0
ENDCHAR
STARTCHAR uni04A9
ENCODING 1193
SWIDTH 624 0
DWIDTH 10 0
BBX 9 9 1 0
BITMAP
6E00
DB00
DB00
DB00
DB00
DB00
DB00
6F00
3F80
ENDCHAR
STARTCHAR uni04AA
ENCODING 1194
SWIDTH 652 0
DWIDTH 10 0
BBX 9 16 1 -4
BITMAP
3E00
6300
C300
C080
C000
C000
C000
C000
C000
C380
6300
3E00
1800
1800
1800
1800
ENDCHAR
STARTCHAR uni04AB
ENCODING 1195
SWIDTH 523 0
DWIDTH 8 0
BBX 8 13 0 -4
BITMAP
3C
66
63
C0
C0
C0
63
66
3C
18
18
18
18
ENDCHAR
STARTCHAR uni04AC
ENCODING 1196
SWIDTH 606 0
DWIDTH 10 0
BBX 9 15 0 -3
BITMAP
FF80
0C00
0C00
0C00
0C00
0C00
0C00
0C00
0C00
0C00
0C00
0E00
0600
0600
0600
ENDCHAR
STARTCHAR uni04AD
ENCODING 1197
SWIDTH 494 0
DWIDTH 8 0
BBX 8 12 0 -3
BITMAP
FF
18
18
18
18
18
18
18
1C
04
04
04
ENDCHAR
STARTCHAR uni04AE
ENCODING 1198
SWIDTH 609 0
DWIDTH 10 0
BBX 10 12 0 0
BITMAP
C1C0
6180
6300
3300
3600
1E00
1C00
0C00
0C00
0C00
0C00
0C00
ENDCHAR
STARTCHAR uni04AF
ENCODING 1199
SWIDTH 506 0
DWIDTH 8 0
BBX 8 12 0 -3
BITMAP
C3
66
66
66
34
3C
3C
18
18
18
18
18
ENDCHAR
STARTCHAR uni04B0
ENCODING 1200
SWIDTH 609 0
DWIDTH 10 0
BBX 10 12 0 0
BITMAP
E1C0
6180
7300
3300
1200
1E00
3F00
0C00
0C00
0C00
0C00
0C00
ENDCHAR
STARTCHAR uni04B1
ENCODING 1201
SWIDTH 506 0
DWIDTH 8 0
BBX 8 12 0 -3
BITMAP
C3
66
66
66
24
3C
3C
18
7E
18
18
18
ENDCHAR
STARTCHAR uni04B2
ENCODING 1202
SWIDTH 652 0
DWIDTH 10 0
BBX 10 15 0 -3
BITMAP
E1C0
7180
3300
3B00
1E00
0E00
0E00
1E00
3B00
3300
6180
61C0
80C0
00C0
00C0
ENDCHAR
STARTCHAR uni04B3
ENCODING 1203
SWIDTH 534 0
DWIDTH 9 0
BBX 8 12 0 -3
BITMAP
E7
66
3C
3C
18
3C
3C
66
67
83
03
03
ENDCHAR
STARTCHAR uni04B4
ENCODING 1204
SWIDTH 898 0
DWIDTH 14 0
BBX 13 15 0 -3
BITMAP
FF30
1830
1830
1830
1830
1830
1830
1830
1830
1830
1830
1FF8
0018
0018
0018
ENDCHAR
STARTCHAR uni04B5
ENCODING 1205
SWIDTH 679 0
DWIDTH 11 0
BBX 10 12 0 -3
BITMAP
FD80
3180
3180
3180
3180
3180
3180
3180
3FC0
0040
0040
0040
ENDCHAR
STARTCHAR uni04B6
ENCODING 1206
SWIDTH 747 0
DWIDTH 12 0
BBX 10 15 1 -3
BITMAP
C180
C180
C180
C180
C180
6180
3F80
0180
0180
0180
0180
01C0
00C0
00C0
00C0
ENDCHAR
STARTCHAR uni04B7
ENCODING 1207
SWIDTH 607 0
DWIDTH 10 0
BBX 8 12 1 -3
BITMAP
C6
C6
C6
C6
7E
06
06
06
07
03
03
03
ENDCHAR
STARTCHAR uni04B8
ENCODING 1208
SWIDTH 681 0
DWIDTH 11 0
BBX 9 12 1 0
BITMAP
C180
C180
C180
C180
C980
4980
3F80
0980
0980
0180
0180
0180
ENDCHAR
STARTCHAR uni04B9
ENCODING 1209
SWIDTH 556 0
DWIDTH 9 0
BBX 7 9 1 0
BITMAP
C6
C6
D6
D6
7E
16
06
06
06
ENDCHAR
STARTCHAR uni04BA
ENCODING 1210
SWIDTH 690 0
DWIDTH 11 0
BBX 9 12 1 0
BITMAP
C000
C000
C000
C000
FE00
C300
C180
C180
C180
C180
C180
C180
ENDCHAR
STARTCHAR uni04BB
ENCODING 1211
SWIDTH 555 0
DWIDTH 9 0
BBX 7 12 1 0
BITMAP
C0
C0
C0
DC
E6
C6
C6
C6
C6
C6
C6
C6
ENDCHAR
STARTCHAR uni04BC
ENCODING 1212
SWIDTH 767 0
DWIDTH 12 0
BBX 11 12 0 0
BITMAP
0780
0CC0
1860
9860
D860
7FE0
1800
1800
1800
1800
0C40
07E0
ENDCHAR
STARTCHAR uni04BD
ENCODING 1213
SWIDTH 595 0
DWIDTH 10 0
BBX 9 9 0 0
BITMAP
0F00
1980
B180
B180
7F80
3000
3100
1980
0F00
ENDCHAR
STARTCHAR uni04BE
ENCODING 1214
SWIDTH 767 0
DWIDTH 12 0
BBX 11 16 0 -4
BITMAP
0780
0CC0
1860
9860
D860
7FE0
1800
1800
1800
1800
0C40
07E0
0100
0100
0100
0100
ENDCHAR
STARTCHAR uni04BF
ENCODING 1215
SWIDTH 595 0
DWIDTH 10 0
BBX 9 13 0 -4
BITMAP
0F00
1980
B180
B180
7F80
3000
3100
1980
0F00
0600
0600
0600
0600
ENDCHAR
STARTCHAR uni04C0
ENCODING 1216
SWIDTH 282 0
DWIDTH 5 0
BBX 2 12 1 0
BITMAP
C0
C0
C0
C0
C0
C0
C0
C0
C0
C0
C0
C0
ENDCHAR
STARTCHAR uni04C1
ENCODING 1217
SWIDTH 954 0
DWIDTH 15 0
BBX 15 15 0 0
BITMAP
0640
0380
0000
E18E
718C
3198
1998
19B0
0FF0
19B0
1998
3198
318C
618C
E186
ENDCHAR
STARTCHAR uni04C2
ENCODING 1218
SWIDTH 807 0
DWIDTH 13 0
BBX 13 12 0 0
BITMAP
0D80
0700
0000
E238
6230
3260
3240
1FC0
3260
3260
6230
E238
ENDCHAR
STARTCHAR uni04C3
ENCODING 1219
SWIDTH 641 0
DWIDTH 10 0
BBX 9 15 1 -3
BITMAP
C380
C600
CC00
DC00
FC00
C200
C300
C100
C180
C180
C180
C180
0300
0300
0600
ENDCHAR
STARTCHAR uni04C4
ENCODING 1220
SWIDTH 558 0
DWIDTH 9 0
BBX 8 11 1 -2
BITMAP
C7
CC
D8
F8
C6
C6
C2
C6
C6
0E
0C
ENDCHAR
STARTCHAR uni04C5
ENCODING 1221
SWIDTH 769 0
DWIDTH 12 0
BBX 12 14 0 -2
BITMAP
1FC0
10C0
10C0
10C0
30C0
30C0
30C0
30C0
30C0
30C0
20F0
E0F0
0030
0060
ENDCHAR
STARTCHAR uni04C6
ENCODING 1222
SWIDTH 639 0
DWIDTH 10 0
BBX 10 11 0 -2
BITMAP
3F00
3300
3300
3300
3300
3300
2300
63C0
C3C0
00C0
0080
ENDCHAR
STARTCHAR uni04C7
ENCODING 1223
SWIDTH 710 0
DWIDTH 11 0
BBX 9 15 1 -3
BITMAP
C180
C180
C180
C180
C180
C180
FF80
C180
C180
C180
C180
C180
0180
0180
0700
ENDCHAR
STARTCHAR uni04C8
ENCODING 1224
SWIDTH 566 0
DWIDTH 9 0
BBX 7 12 1 -3
BITMAP
C6
C6
C6
FE
C6
C6
C6
C6
C6
06
06
1C
ENDCHAR
STARTCHAR uni04C9
ENCODING 1225
SWIDTH 775 0
DWIDTH 12 0
BBX 11 14 1 -2
BITMAP
C180
C180
C180
C180
C180
FF80
C180
C180
C180
C180
C1E0
C1E0
0060
0040
ENDCHAR
STARTCHAR uni04CA
ENCODING 1226
SWIDTH 637 0
DWIDTH 10 0
BBX 9 11 1 -2
BITMAP
C600
C600
C600
C600
FE00
C600
C600
C780
C780
0180
0100
ENDCHAR
STARTCHAR uni04CB
ENCODING 1227
SWIDTH 691 0
DWIDTH 11 0
BBX 9 15 1 -3
BITMAP
C180
C180
C180
C180
C180
6180
3F80
0180
0180
0180
0180
0780
0600
0600
0600
ENDCHAR
STARTCHAR uni04CC
ENCODING 1228
SWIDTH 549 0
DWIDTH 9 0
BBX 7 12 1 -3
BITMAP
C6
C6
C6
C6
7E
06
06
06
1E
18
18
18
ENDCHAR
STARTCHAR uni04CD
ENCODING 1229
SWIDTH 936 0
DWIDTH 15 0
BBX 14 14 1 -2
BITMAP
E070
E070
F0F0
F0F0
D0B0
D9B0
D9B0
C930
CF30
CF30
C63C
C63C
0008
0018
ENDCHAR
STARTCHAR uni04CE
ENCODING 1230
SWIDTH 808 0
DWIDTH 13 0
BBX 12 11 1 -2
BITMAP
E1C0
E1C0
E1C0
F3C0
D2C0
DEC0
DEC0
CCF0
CCF0
0030
0060
ENDCHAR
STARTCHAR uni04CF
ENCODING 1231
SWIDTH 282 0
DWIDTH 5 0
BBX 2 12 1 0
BITMAP
C0
C0
C0
C0
C0
C0
C0
C0
C0
C0
C0
C0
ENDCHAR
STARTCHAR uni04D0
ENCODING 1232
SWIDTH 665 0
DWIDTH 11 0
BBX 11 15 0 0
BITMAP
1300
0E00
0000
0C00
0E00
0E00
1A00
1B00
3300
3180
3180
7F80
60C0
60C0
C0E0
ENDCHAR
STARTCHAR uni04D1
ENCODING 1233
SWIDTH 541 0
DWIDTH 9 0
BBX 7 12 1 0
BITMAP
4C
38
00
7C
CC
C6
06
7E
C6
C6
CE
76
ENDCHAR
STARTCHAR uni04D2
ENCODING 1234
SWIDTH 665 0
DWIDTH 11 0
BBX 11 15 0 0
BITMAP
1300
1B00
0000
0C00
0E00
0E00
1A00
1B00
3300
3180
3180
7F80
60C0
60C0
C0E0
ENDCHAR
STARTCHAR uni04D3
ENCODING 1235
SWIDTH 541 0
DWIDTH 9 0
BBX 7 12 1 0
BITMAP
6C
6C
00
7C
CC
C6
06
7E
C6
C6
CE
76
ENDCHAR
STARTCHAR uni04D4
ENCODING 1236
SWIDTH 939 0
DWIDTH 15 0
BBX 15 12 0 0
BITMAP
03FC
0380
0780
0580
0D80
19FC
1980
3F80
2080
6080
6080
C0FE
ENDCHAR
STARTCHAR uni04D5
ENCODING 1237
SWIDTH 844 0
DWIDTH 14 0
BBX 12 9 1 0
BITMAP
7DE0
C730
0630
0630
7FF0
C600
C600
CF10
79F0
ENDCHAR
STARTCHAR uni04D6
ENCODING 1238
SWIDTH 565 0
DWIDTH 9 0
BBX 8 15 1 0
BITMAP
64
3C
00
FF
C0
C0
C0
C0
FE
C0
C0
C0
C0
C0
FF
ENDCHAR
STARTCHAR uni04D7
ENCODING 1239
SWIDTH 536 0
DWIDTH 9 0
BBX 7 12 1 0
BITMAP
4C
38
00
3C
66
C6
C6
FE
C0
C4
66
3C
ENDCHAR
STARTCHAR uni04D8
ENCODING 1240
SWIDTH 691 0
DWIDTH 11 0
BBX 9 12 1 0
BITMAP
7C00
8300
0180
0180
0180
FF80
C180
C180
C180
C300
6300
3E00
ENDCHAR
STARTCHAR uni04D9
ENCODING 1241
SWIDTH 529 0
DWIDTH 8 0
BBX 8 9 0 0
BITMAP
7C
46
06
03
FF
C3
46
66
3C
ENDCHAR
STARTCHAR uni04DA
ENCODING 1242
SWIDTH 691 0
DWIDTH 11 0
BBX 9 15 1 0
BITMAP
6600
6600
0000
7C00
8300
0180
0180
0180
FF80
C180
C180
C180
C300
6300
3E00
ENDCHAR
STARTCHAR uni04DB
ENCODING 1243
SWIDTH 529 0
DWIDTH 8 0
BBX 8 12 0 0
BITMAP
26
36
00
7C
46
06
03
FF
C3
46
66
3C
ENDCHAR
STARTCHAR uni04DC
ENCODING 1244
SWIDTH 954 0
DWIDTH 15 0
BBX 15 15 0 0
BITMAP
0640
06C0
0000
E18E
718C
3198
1998
19B0
0FF0
19B0
1998
3198
318C
618C
E186
ENDCHAR
STARTCHAR uni04DD
ENCODING 1245
SWIDTH 807 0
DWIDTH 13 0
BBX 13 12 0 0
BITMAP
0D80
0D80
0000
E238
6230
3260
3240
1FC0
3260
3260
6230
E238
ENDCHAR
STARTCHAR uni04DE
ENCODING 1246
SWIDTH 604 0
DWIDTH 10 0
BBX 8 15 1 0
BITMAP
64
66
00
3C
E6
C3
03
03
06
1C
03
03
C3
C7
7C
ENDCHAR
STARTCHAR uni04DF
ENCODING 1247
SWIDTH 510 0
DWIDTH 8 0
BBX 6 12 1 0
BITMAP
CC
CC
00
78
CC
0C
38
0C
04
84
CC
78
ENDCHAR
STARTCHAR uni04E0
ENCODING 1248
SWIDTH 581 0
DWIDTH 9 0
BBX 7 12 1 0
BITMAP
FE
0C
1C
18
3C
06
06
06
06
C6
C6
7C
ENDCHAR
STARTCHAR uni04E1
ENCODING 1249
SWIDTH 581 0
DWIDTH 9 0
BBX 7 12 1 -3
BITMAP
FE
0E
0C
18
30
3C
06
06
06
C6
C6
7C
ENDCHAR
STARTCHAR uni04E2
ENCODING 1250
SWIDTH 707 0
DWIDTH 11 0
BBX 9 14 1 0
BITMAP
3E00
0000
C180
C380
C380
C780
C780
CD80
D980
D980
F180
F180
E180
C180
ENDCHAR
STARTCHAR uni04E3
ENCODING 1251
SWIDTH 574 0
DWIDTH 9 0
BBX 7 11 1 0
BITMAP
7C
00
C6
CE
CE
DE
D6
F6
E6
E6
C6
ENDCHAR
STARTCHAR uni04E4
ENCODING 1252
SWIDTH 707 0
DWIDTH 11 0
BBX 9 15 1 0
BITMAP
3200
3600
0000
C180
C380
C380
C780
C780
CD80
D980
D980
F180
F180
E180
C180
ENDCHAR
STARTCHAR uni04E5
ENCODING 1253
SWIDTH 574 0
DWIDTH 9 0
BBX 7 12 1 0
BITMAP
64
6C
00
C6
CE
CE
DE
D6
F6
E6
E6
C6
ENDCHAR
STARTCHAR uni04E6
ENCODING 1254
SWIDTH 690 0
DWIDTH 11 0
BBX 9 15 1 0
BITMAP
3600
3600
0000
3E00
6300
C180
C180
C180
C180
C180
C180
C180
C180
6300
3E00
ENDCHAR
STARTCHAR uni04E7
ENCODING 1255
SWIDTH 569 0
DWIDTH 9 0
BBX 7 12 1 0
BITMAP
6C
6C
00
38
C6
C6
C6
82
C6
C6
C6
38
ENDCHAR
STARTCHAR uni04E8
ENCODING 1256
SWIDTH 684 0
DWIDTH 11 0
BBX 9 12 1 0
BITMAP
3E00
6300
C180
C180
C180
FF80
C180
C180
C180
C180
6300
3E00
ENDCHAR
STARTCHAR uni04E9
ENCODING 1257
SWIDTH 566 0
DWIDTH 9 0
BBX 7 9 1 0
BITMAP
38
C6
C6
FE
C6
C6
C6
E6
38
ENDCHAR
STARTCHAR uni04EA
ENCODING 1258
SWIDTH 684 0
DWIDTH 11 0
BBX 9 15 1 0
BITMAP
3200
3600
0000
3E00
6300
C180
C180
C180
FF80
C180
C180
C180
C180
6300
3E00
ENDCHAR
STARTCHAR uni04EB
ENCODING 1259
SWIDTH 566 0
DWIDTH 9 0
BBX 7 12 1 0
BITMAP
4C
6C
00
38
C6
C6
FE
C6
C6
C6
E6
38
ENDCHAR
STARTCHAR uni04EC
ENCODING 1260
SWIDTH 664 0
DWIDTH 11 0
BBX 9 15 1 0
BITMAP
2600
2600
0000
3E00
6300
C300
C180
0180
0180
1F80
0180
C180
C100
6300
3E00
ENDCHAR
STARTCHAR uni04ED
ENCODING 1261
SWIDTH 529 0
DWIDTH 8 0
BBX 8 12 0 0
BITMAP
26
66
00
3C
66
82
1F
03
C3
46
66
3C
ENDCHAR
STARTCHAR uni04EE
ENCODING 1262
SWIDTH 629 0
DWIDTH 10 0
BBX 10 14 0 0
BITMAP
1F00
0000
E1C0
6180
3180
3300
3300
1E00
1E00
0E00
0C00
0C00
0800
3800
ENDCHAR
STARTCHAR uni04EF
ENCODING 1263
SWIDTH 486 0
DWIDTH 8 0
BBX 8 14 0 -3
BITMAP
7E
00
C3
66
66
66
3C
3C
3C
18
18
18
10
60
ENDCHAR
STARTCHAR uni04F0
ENCODING 1264
SWIDTH 629 0
DWIDTH 10 0
BBX 10 15 0 0
BITMAP
3300
3300
0000
E1C0
6180
3180
3300
3300
1E00
1E00
0E00
0C00
0C00
0800
3800
ENDCHAR
STARTCHAR uni04F1
ENCODING 1265
SWIDTH 486 0
DWIDTH 8 0
BBX 8 15 0 -3
BITMAP
66
66
00
C3
66
66
66
3C
3C
3C
18
18
18
10
60
ENDCHAR
STARTCHAR uni04F2
ENCODING 1266
SWIDTH 629 0
DWIDTH 10 0
BBX 10 15 0 0
BITMAP
0D80
1E00
0000
E1C0
6180
3180
3300
3300
1E00
1E00
0E00
0C00
0C00
0800
3800
ENDCHAR
STARTCHAR uni04F3
ENCODING 1267
SWIDTH 486 0
DWIDTH 8 0
BBX 8 15 0 -3
BITMAP
1F
3C
00
C3
66
66
66
3C
3C
3C
18
18
18
10
60
ENDCHAR
STARTCHAR uni04F4
ENCODING 1268
SWIDTH 691 0
DWIDTH 11 0
BBX 9 15 1 0
BITMAP
3200
3600
0000
C180
C180
C180
C180
C180
6180
3F80
0180
0180
0180
0180
0180
ENDCHAR
STARTCHAR uni04F5
ENCODING 1269
SWIDTH 549 0
DWIDTH 9 0
BBX 7 12 1 0
BITMAP
4C
6C
00
C6
C6
C6
C6
7E
06
06
06
06
ENDCHAR
STARTCHAR uni04F6
ENCODING 1270
SWIDTH 557 0
DWIDTH 9 0
BBX 7 15 1 -3
BITMAP
FE
C0
C0
C0
C0
C0
C0
C0
C0
C0
C0
F0
30
30
30
ENDCHAR
STARTCHAR uni04F7
ENCODING 1271
SWIDTH 418 0
DWIDTH 7 0
BBX 6 12 1 -3
BITMAP
FC
C0
C0
C0
C0
C0
C0
C0
E0
20
20
20
ENDCHAR
STARTCHAR uni04F8
ENCODING 1272
SWIDTH 871 0
DWIDTH 14 0
BBX 12 15 1 0
BITMAP
1980
1980
0000
C030
C030
C030
C030
C030
FE30
C330
C330
C1B0
C330
C330
FE30
ENDCHAR
STARTCHAR uni04F9
ENCODING 1273
SWIDTH 804 0
DWIDTH 13 0
BBX 11 12 1 0
BITMAP
1300
1B00
0000
C060
C060
C060
FC60
C660
C660
C660
C660
FC60
ENDCHAR
STARTCHAR uni04FA
ENCODING 1274
SWIDTH 597 0
DWIDTH 10 0
BBX 9 15 0 -3
BITMAP
3F80
3000
3000
3000
3000
3000
FC00
3000
3000
3000
3800
3800
0800
1800
3000
ENDCHAR
STARTCHAR uni04FB
ENCODING 1275
SWIDTH 460 0
DWIDTH 7 0
BBX 7 12 0 -3
BITMAP
3E
30
30
30
FC
30
30
38
38
18
18
70
ENDCHAR
STARTCHAR uni04FC
ENCODING 1276
SWIDTH 675 0
DWIDTH 11 0
BBX 11 15 0 -3
BITMAP
E1C0
7180
3300
3B00
1E00
0E00
0E00
1E00
3B00
3300
61E0
61E0
8060
00C0
01C0
ENDCHAR
STARTCHAR uni04FD
ENCODING 1277
SWIDTH 556 0
DWIDTH 9 0
BBX 9 12 0 -3
BITMAP
E700
6600
3C00
3C00
1800
3C00
3C00
6780
6780
8180
0100
0700
ENDCHAR
STARTCHAR uni04FE
ENCODING 1278
SWIDTH 632 0
DWIDTH 10 0
BBX 10 12 0 0
BITMAP
E1C0
7180
3300
3B00
1E00
3F00
1E00
1E00
3B00
3380
6180
E1C0
ENDCHAR
STARTCHAR uni04FF
ENCODING 1279
SWIDTH 502 0
DWIDTH 8 0
BBX 8 9 0 0
BITMAP
E7
66
3C
3C
7E
3C
3C
66
E7
ENDCHAR
STARTCHAR uni0500
ENCODING 1280
SWIDTH 628 0
DWIDTH 10 0
BBX 8 12 1 0
BITMAP
03
03
03
03
3F
C3
C3
C3
C3
C3
C3
3F
ENDCHAR
STARTCHAR uni0501
ENCODING 1281
SWIDTH 564 0
DWIDTH 9 0
BBX 7 12 1 0
BITMAP
06
06
06
7E
C6
C6
C6
C6
C6
C6
C6
7E
ENDCHAR
STARTCHAR uni0502
ENCODING 1282
SWIDTH 867 0
DWIDTH 14 0
BBX 12 12 1 0
BITMAP
0300
0300
0300
0300
3F00
6330
C330
C330
C330
C330
6330
3FE0
ENDCHAR
STARTCHAR uni0503
ENCODING 1283
SWIDTH 857 0
DWIDTH 14 0
BBX 12 12 1 0
BITMAP
0600
0600
0600
3E00
6630
C630
C630
C630
C630
C630
4660
7BC0
ENDCHAR
STARTCHAR uni0504
ENCODING 1284
SWIDTH 790 0
DWIDTH 13 0
BBX 11 12 1 0
BITMAP
F800
0C00
0C00
0C00
0C40
7060
0C60
0C60
0C60
0C60
06C0
0780
ENDCHAR
STARTCHAR uni0505
ENCODING 1285
SWIDTH 644 0
DWIDTH 10 0
BBX 10 9 0 0
BITMAP
F800
0C00
0C00
0980
78C0
0CC0
0CC0
0D80
0700
ENDCHAR
STARTCHAR uni0506
ENCODING 1286
SWIDTH 560 0
DWIDTH 9 0
BBX 7 15 1 -3
BITMAP
F0
18
0C
0C
18
F0
18
0C
0C
0C
0C
0E
02
06
06
ENDCHAR
STARTCHAR uni0507
ENCODING 1287
SWIDTH 530 0
DWIDTH 8 0
BBX 7 12 1 -3
BITMAP
F0
18
08
18
F0
18
08
0C
0E
06
06
0C
ENDCHAR
STARTCHAR uni0508
ENCODING 1288
SWIDTH 967 0
DWIDTH 15 0
BBX 15 12 0 0
BITMAP
1FC0
18C0
10C0
10C0
10CC
30C4
30C6
30C6
30C6
30C4
20CC
E078
ENDCHAR
STARTCHAR uni0509
ENCODING 1289
SWIDTH 826 0
DWIDTH 13 0
BBX 13 9 0 0
BITMAP
3F00
3300
3330
3310
3318
3318
3310
6330
E1E0
ENDCHAR
STARTCHAR uni050A
ENCODING 1290
SWIDTH 998 0
DWIDTH 16 0
BBX 14 12 1 0
BITMAP
C180
C180
C180
C180
C18C
FF8C
C18C
C18C
C18C
C18C
C098
C0F0
ENDCHAR
STARTCHAR uni050B
ENCODING 1291
SWIDTH 827 0
DWIDTH 13 0
BBX 12 9 1 0
BITMAP
C600
C600
C660
FE20
C630
C630
C620
C260
C3C0
ENDCHAR
STARTCHAR uni050C
ENCODING 1292
SWIDTH 626 0
DWIDTH 10 0
BBX 8 12 1 0
BITMAP
3E
62
C0
C0
C0
C0
C3
C3
C3
C3
63
3E
ENDCHAR
STARTCHAR uni050D
ENCODING 1293
SWIDTH 521 0
DWIDTH 8 0
BBX 8 9 0 0
BITMAP
3E
60
60
40
C0
43
63
62
3C
ENDCHAR
STARTCHAR uni050E
ENCODING 1294
SWIDTH 708 0
DWIDTH 11 0
BBX 11 12 0 0
BITMAP
FF80
0C00
0C00
0C00
0CC0
0CC0
0CC0
0C60
0C40
0CC0
0CC0
0780
ENDCHAR
STARTCHAR uni050F
ENCODING 1295
SWIDTH 639 0
DWIDTH 10 0
BBX 9 9 0 0
BITMAP
FF00
1800
1800
1980
1880
1880
1980
1980
0F00
ENDCHAR
STARTCHAR uni0510
ENCODING 1296
SWIDTH 666 0
DWIDTH 11 0
BBX 9 12 1 0
BITMAP
3E00
6300
C180
C000
6000
7000
7C00
E000
C000
C180
6380
3E00
ENDCHAR
STARTCHAR uni0511
ENCODING 1297
SWIDTH 546 0
DWIDTH 9 0
BBX 7 9 1 0
BITMAP
7C
C6
C0
78
C0
C0
C6
C6
7C
ENDCHAR
STARTCHAR uni0512
ENCODING 1298
SWIDTH 785 0
DWIDTH 13 0
BBX 12 15 0 -3
BITMAP
1FC0
10C0
10C0
10C0
30C0
30C0
30C0
30C0
30C0
30C0
20F0
E0F0
0030
0030
00E0
ENDCHAR
STARTCHAR uni0513
ENCODING 1299
SWIDTH 655 0
DWIDTH 10 0
BBX 10 12 0 -3
BITMAP
3F00
3300
3300
3300
3300
3300
2300
63C0
C3C0
00C0
00C0
0380
ENDCHAR
STARTCHAR uni1E00
ENCODING 7680
SWIDTH 665 0
DWIDTH 11 0
BBX 11 16 0 -4
BITMAP
0C00
0E00
0E00
1A00
1B00
3300
3180
3180
7F80
60C0
60C0
C0C0
0020
0C00
0A00
0C00
ENDCHAR
STARTCHAR uni1E01
ENCODING 7681
SWIDTH 541 0
DWIDTH 9 0
BBX 7 13 1 -4
BITMAP
7C
CC
C6
06
7E
C6
C6
CE
76
00
30
50
30
ENDCHAR
STARTCHAR uni1E3E
ENCODING 7742
SWIDTH 875 0
DWIDTH 14 0
BBX 12 15 1 0
BITMAP
0380
0600
0000
E070
E070
F0F0
F0F0
D0B0
D9B0
D9B0
C930
CF30
CF30
C630
C630
ENDCHAR
STARTCHAR uni1E3F
ENCODING 7743
SWIDTH 870 0
DWIDTH 14 0
BBX 12 12 1 0
BITMAP
0380
0600
0000
FDE0
C630
C630
C630
C630
C630
C630
C630
C630
ENDCHAR
STARTCHAR Wgrave
ENCODING 7808
SWIDTH 879 0
DWIDTH 14 0
BBX 14 15 0 0
BITMAP
0E00
0300
0000
C30C
6318
6318
6798
6798
2498
3490
3CF0
3CF0
3870
1860
1860
ENDCHAR
STARTCHAR wgrave
ENCODING 7809
SWIDTH 743 0
DWIDTH 12 0
BBX 12 12 0 0
BITMAP
1C00
0600
0000
C630
4660
6660
6F60
6B40
2940
39C0
39C0
3080
ENDCHAR
STARTCHAR Wacute
ENCODING 7810
SWIDTH 879 0
DWIDTH 14 0
BBX 14 15 0 0
BITMAP
01C0
0300
0000
C30C
6318
6318
6798
6798
2498
3490
3CF0
3CF0
3870
1860
1860
ENDCHAR
STARTCHAR wacute
ENCODING 7811
SWIDTH 743 0
DWIDTH 12 0
BBX 12 12 0 0
BITMAP
0380
0600
0000
C630
4660
6660
6F60
6B40
2940
39C0
39C0
3080
ENDCHAR
STARTCHAR Wdieresis
ENCODING 7812
SWIDTH 879 0
DWIDTH 14 0
BBX 14 15 0 0
BITMAP
04C0
0CC0
0000
C30C
6318
6318
6798
6798
2498
3490
3CF0
3CF0
3870
1860
1860
ENDCHAR
STARTCHAR wdieresis
ENCODING 7813
SWIDTH 743 0
DWIDTH 12 0
BBX 12 12 0 0
BITMAP
1980
1980
0000
C630
4660
6660
6F60
6B40
2940
39C0
39C0
3080
ENDCHAR
STARTCHAR uni1EA0
ENCODING 7840
SWIDTH 665 0
DWIDTH 11 0
BBX 11 15 0 -3
BITMAP
0C00
0E00
0E00
1A00
1B00
3300
3180
3180
7F80
60C0
60C0
C0C0
0020
0C00
0C00
ENDCHAR
STARTCHAR uni1EA1
ENCODING 7841
SWIDTH 541 0
DWIDTH 9 0
BBX 7 12 1 -3
BITMAP
7C
CC
C6
06
7E
C6
C6
CE
76
00
30
30
ENDCHAR
STARTCHAR uni1EA2
ENCODING 7842
SWIDTH 665 0
DWIDTH 11 0
BBX 11 16 0 0
BITMAP
0600
0200
0400
0000
0C00
0E00
0E00
1A00
1B00
3300
3180
3180
7F80
60C0
60C0
C0E0
ENDCHAR
STARTCHAR uni1EA3
ENCODING 7843
SWIDTH 541 0
DWIDTH 9 0
BBX 7 13 1 0
BITMAP
18
08
10
00
7C
CC
C6
06
7E
C6
C6
CE
76
ENDCHAR
STARTCHAR uni1EA4
ENCODING 7844
SWIDTH 665 0
DWIDTH 11 0
BBX 11 16 0 0
BITMAP
00E0
0E80
3B00
0000
0C00
0E00
0E00
1A00
1B00
3300
3180
3180
7F80
60C0
60C0
C0E0
ENDCHAR
STARTCHAR uni1EA5
ENCODING 7845
SWIDTH 541 0
DWIDTH 9 0
BBX 9 13 1 0
BITMAP
0180
3A00
6C00
0000
7C00
CC00
C600
0600
7E00
C600
C600
CE00
7600
ENDCHAR
STARTCHAR uni1EA6
ENCODING 7846
SWIDTH 665 0
DWIDTH 11 0
BBX 11 16 0 0
BITMAP
C000
6E00
3B00
0000
0C00
0E00
0E00
1A00
1B00
3300
3180
3180
7F80
60C0
60C0
C0E0
ENDCHAR
STARTCHAR uni1EA7
ENCODING 7847
SWIDTH 541 0
DWIDTH 9 0
BBX 9 13 -1 0
BITMAP
C000
6E00
1B00
0000
1F00
3300
3180
0180
1F80
3180
3180
3380
1D80
ENDCHAR
STARTCHAR uni1EA8
ENCODING 7848
SWIDTH 665 0
DWIDTH 11 0
BBX 11 17 0 0
BITMAP
0180
00C0
0F80
3300
0000
0C00
0E00
0E00
1A00
1B00
3300
3180
3180
7F80
60C0
60C0
C0E0
ENDCHAR
STARTCHAR uni1EA9
ENCODING 7849
SWIDTH 541 0
DWIDTH 9 0
BBX 8 14 1 0
BITMAP
06
03
3A
6C
00
7C
CC
C6
06
7E
C6
C6
CE
76
ENDCHAR
STARTCHAR uni1EAA
ENCODING 7850
SWIDTH 665 0
DWIDTH 11 0
BBX 11 18 0 0
BITMAP
0A00
1600
0000
0E00
3B00
0000
0C00
0E00
0E00
1A00
1B00
3300
3180
3180
7F80
60C0
60C0
C0E0
ENDCHAR
STARTCHAR uni1EAB
ENCODING 7851
SWIDTH 541 0
DWIDTH 9 0
BBX 7 15 1 0
BITMAP
28
58
00
38
6C
00
7C
CC
C6
06
7E
C6
C6
CE
76
ENDCHAR
STARTCHAR uni1EAC
ENCODING 7852
SWIDTH 665 0
DWIDTH 11 0
BBX 11 16 0 -3
BITMAP
0E00
1F00
0E00
0E00
1A00
1B00
3300
3180
3180
7F80
60C0
60C0
C0C0
0020
0C00
0C00
ENDCHAR
STARTCHAR uni1EAD
ENCODING 7853
SWIDTH 541 0
DWIDTH 9 0
BBX 7 15 1 -3
BITMAP
38
6C
00
7C
CC
C6
06
7E
C6
C6
CE
76
00
30
30
ENDCHAR
STARTCHAR uni1EAE
ENCODING 7854
SWIDTH 665 0
DWIDTH 11 0
BBX 11 17 0 0
BITMAP
0600
0400
1300
0E00
0000
0C00
0E00
0E00
1A00
1B00
3300
3180
3180
7F80
60C0
60C0
C0E0
ENDCHAR
STARTCHAR uni1EAF
ENCODING 7855
SWIDTH 541 0
DWIDTH 9 0
BBX 7 14 1 0
BITMAP
18
10
4C
38
00
7C
CC
C6
06
7E
C6
C6
CE
76
ENDCHAR
STARTCHAR uni1EB0
ENCODING 7856
SWIDTH 665 0
DWIDTH 11 0
BBX 11 17 0 0
BITMAP
0800
0400
1300
0E00
0000
0C00
0E00
0E00
1A00
1B00
3300
3180
3180
7F80
60C0
60C0
C0E0
ENDCHAR
STARTCHAR uni1EB1
ENCODING 7857
SWIDTH 541 0
DWIDTH 9 0
BBX 7 14 1 0
BITMAP
20
10
4C
38
00
7C
CC
C6
06
7E
C6
C6
CE
76
ENDCHAR
STARTCHAR uni1EB2
ENCODING 7858
SWIDTH 665 0
DWIDTH 11 0
BBX 11 18 0 0
BITMAP
0600
0200
0400
1300
0E00
0000
0C00
0E00
0E00
1A00
1B00
3300
3180
3180
7F80
60C0
60C0
C0E0
ENDCHAR
STARTCHAR uni1EB3
ENCODING 7859
SWIDTH 541 0
DWIDTH 9 0
BBX 7 15 1 0
BITMAP
18
08
10
4C
38
00
7C
CC
C6
06
7E
C6
C6
CE
76
ENDCHAR
STARTCHAR uni1EB4
ENCODING 7860
SWIDTH 665 0
DWIDTH 11 0
BBX 11 18 0 0
BITMAP
0900
1600
0000
1300
0E00
0000
0C00
0E00
0E00
1A00
1B00
3300
3180
3180
7F80
60C0
60C0
C0E0
ENDCHAR
STARTCHAR uni1EB5
ENCODING 7861
SWIDTH 541 0
DWIDTH 9 0
BBX 7 15 1 0
BITMAP
24
58
00
4C
38
00
7C
CC
C6
06
7E
C6
C6
CE
76
ENDCHAR
STARTCHAR uni1EB6
ENCODING 7862
SWIDTH 665 0
DWIDTH 11 0
BBX 11 18 0 -3
BITMAP
1300
0E00
0000
0C00
0E00
0E00
1A00
1B00
3300
3180
3180
7F80
60C0
60C0
C0C0
0020
0C00
0C00
ENDCHAR
STARTCHAR uni1EB7
ENCODING 7863
SWIDTH 541 0
DWIDTH 9 0
BBX 7 15 1 -3
BITMAP
4C
38
00
7C
CC
C6
06
7E
C6
C6
CE
76
00
30
30
ENDCHAR
STARTCHAR uni1EB8
ENCODING 7864
SWIDTH 565 0
DWIDTH 9 0
BBX 8 15 1 -3
BITMAP
FF
C0
C0
C0
C0
FE
C0
C0
C0
C0
C0
FF
00
18
18
ENDCHAR
STARTCHAR uni1EB9
ENCODING 7865
SWIDTH 536 0
DWIDTH 9 0
BBX 7 12 1 -3
BITMAP
3C
66
C6
C6
FE
C0
C4
66
3C
00
30
30
ENDCHAR
STARTCHAR uni1EBA
ENCODING 7866
SWIDTH 565 0
DWIDTH 9 0
BBX 8 16 1 0
BITMAP
18
0C
18
00
FF
C0
C0
C0
C0
FE
C0
C0
C0
C0
C0
FF
ENDCHAR
STARTCHAR uni1EBB
ENCODING 7867
SWIDTH 536 0
DWIDTH 9 0
BBX 7 13 1 0
BITMAP
18
08
10
00
3C
66
C6
C6
FE
C0
C4
66
3C
ENDCHAR
STARTCHAR uni1EBC
ENCODING 7868
SWIDTH 565 0
DWIDTH 9 0
BBX 8 15 1 0
BITMAP
36
4C
00
FF
C0
C0
C0
C0
FE
C0
C0
C0
C0
C0
FF
ENDCHAR
STARTCHAR uni1EBD
ENCODING 7869
SWIDTH 536 0
DWIDTH 9 0
BBX 7 12 1 0
BITMAP
64
5C
80
3C
66
C6
C6
FE
C0
C4
66
3C
ENDCHAR
STARTCHAR uni1EBE
ENCODING 7870
SWIDTH 565 0
DWIDTH 9 0
BBX 9 16 1 0
BITMAP
0180
1B00
6600
0000
FF00
C000
C000
C000
C000
FE00
C000
C000
C000
C000
C000
FF00
ENDCHAR
STARTCHAR uni1EBF
ENCODING 7871
SWIDTH 536 0
DWIDTH 9 0
BBX 9 13 1 0
BITMAP
0380
3A00
EC00
0000
3C00
6600
C600
C600
FE00
C000
C400
6600
3C00
ENDCHAR
STARTCHAR uni1EC0
ENCODING 7872
SWIDTH 565 0
DWIDTH 9 0
BBX 9 16 0 0
BITMAP
C000
6C00
3300
0000
7F80
6000
6000
6000
6000
7F00
6000
6000
6000
6000
6000
7F80
ENDCHAR
STARTCHAR uni1EC1
ENCODING 7873
SWIDTH 536 0
DWIDTH 9 0
BBX 9 13 -1 0
BITMAP
C000
6E00
3B00
0000
0F00
1980
3180
3180
3F80
3000
3100
1980
0F00
ENDCHAR
STARTCHAR uni1EC2
ENCODING 7874
SWIDTH 565 0
DWIDTH 9 0
BBX 8 17 1 0
BITMAP
03
01
3A
66
00
FF
C0
C0
C0
C0
FE
C0
C0
C0
C0
C0
FF
ENDCHAR
STARTCHAR uni1EC3
ENCODING 7875
SWIDTH 536 0
DWIDTH 9 0
BBX 8 14 1 0
BITMAP
06
03
3E
CC
00
3C
66
C6
C6
FE
C0
C4
66
3C
ENDCHAR
STARTCHAR uni1EC4
ENCODING 7876
SWIDTH 565 0
DWIDTH 9 0
BBX 8 18 1 0
BITMAP
34
2C
00
18
66
00
FF
C0
C0
C0
C0
FE
C0
C0
C0
C0
C0
FF
ENDCHAR
STARTCHAR uni1EC5
ENCODING 7877
SWIDTH 536 0
DWIDTH 9 0
BBX 7 15 1 0
BITMAP
28
58
00
38
EC
00
3C
66
C6
C6
FE
C0
C4
66
3C
ENDCHAR
STARTCHAR uni1EC6
ENCODING 7878
SWIDTH 565 0
DWIDTH 9 0
BBX 8 16 1 -3
BITMAP
18
FF
C0
C0
C0
C0
FE
C0
C0
C0
C0
C0
FF
00
18
18
ENDCHAR
STARTCHAR uni1EC7
ENCODING 7879
SWIDTH 536 0
DWIDTH 9 0
BBX 7 15 1 -3
BITMAP
38
6C
00
3C
66
C6
C6
FE
C0
C4
66
3C
00
30
30
ENDCHAR
STARTCHAR uni1EC8
ENCODING 7880
SWIDTH 282 0
DWIDTH 5 0
BBX 3 16 1 0
BITMAP
E0
20
40
00
C0
C0
C0
C0
C0
C0
C0
C0
C0
C0
C0
C0
ENDCHAR
STARTCHAR uni1EC9
ENCODING 7881
SWIDTH 262 0
DWIDTH 4 0
BBX 3 13 1 0
BITMAP
C0
60
C0
00
C0
C0
C0
C0
C0
C0
C0
C0
C0
ENDCHAR
STARTCHAR uni1ECA
ENCODING 7882
SWIDTH 282 0
DWIDTH 5 0
BBX 2 15 1 -3
BITMAP
C0
C0
C0
C0
C0
C0
C0
C0
C0
C0
C0
C0
00
C0
C0
ENDCHAR
STARTCHAR uni1ECB
ENCODING 7883
SWIDTH 255 0
DWIDTH 4 0
BBX 2 15 1 -3
BITMAP
C0
C0
00
C0
C0
C0
C0
C0
C0
C0
C0
C0
00
C0
C0
ENDCHAR
STARTCHAR uni1ECC
ENCODING 7884
SWIDTH 690 0
DWIDTH 11 0
BBX 9 15 1 -3
BITMAP
3E00
6300
C180
C180
C180
C180
C180
C180
C180
C180
6300
3E00
0000
0800
1C00
ENDCHAR
STARTCHAR uni1ECD
ENCODING 7885
SWIDTH 569 0
DWIDTH 9 0
BBX 7 12 1 -3
BITMAP
38
C6
C6
C6
82
C6
C6
C6
38
00
10
38
ENDCHAR
STARTCHAR uni1ECE
ENCODING 7886
SWIDTH 690 0
DWIDTH 11 0
BBX 9 16 1 0
BITMAP
0C00
0400
0800
0000
3E00
6300
C180
C180
C180
C180
C180
C180
C180
C180
6300
3E00
ENDCHAR
STARTCHAR uni1ECF
ENCODING 7887
SWIDTH 569 0
DWIDTH 9 0
BBX 7 13 1 0
BITMAP
18
08
10
00
38
C6
C6
C6
82
C6
C6
C6
38
ENDCHAR
STARTCHAR uni1ED0
ENCODING 7888
SWIDTH 690 0
DWIDTH 11 0
BBX 10 16 1 0
BITMAP
00C0
1D80
3600
0000
3E00
6300
C180
C180
C180
C180
C180
C180
C180
C180
6300
3E00
ENDCHAR
STARTCHAR uni1ED1
ENCODING 7889
SWIDTH 569 0
DWIDTH 9 0
BBX 9 13 1 0
BITMAP
0180
3A00
6C00
0000
3800
C600
C600
C600
8200
C600
C600
C600
3800
ENDCHAR
STARTCHAR uni1ED2
ENCODING 7890
SWIDTH 690 0
DWIDTH 11 0
BBX 10 16 0 0
BITMAP
C000
2E00
1B00
0000
1F00
3180
60C0
60C0
60C0
60C0
60C0
60C0
60C0
60C0
3180
1F00
ENDCHAR
STARTCHAR uni1ED3
ENCODING 7891
SWIDTH 569 0
DWIDTH 9 0
BBX 9 13 -1 0
BITMAP
C000
2E00
1B00
0000
0E00
3180
3180
3180
2080
3180
3180
3180
0E00
ENDCHAR
STARTCHAR uni1ED4
ENCODING 7892
SWIDTH 690 0
DWIDTH 11 0
BBX 9 17 1 0
BITMAP
0100
0080
1D00
3600
0000
3E00
6300
C180
C180
C180
C180
C180
C180
C180
C180
6300
3E00
ENDCHAR
STARTCHAR uni1ED5
ENCODING 7893
SWIDTH 569 0
DWIDTH 9 0
BBX 8 14 1 0
BITMAP
02
01
3A
6C
00
38
C6
C6
C6
82
C6
C6
C6
38
ENDCHAR
STARTCHAR uni1ED6
ENCODING 7894
SWIDTH 690 0
DWIDTH 11 0
BBX 9 18 1 0
BITMAP
1A00
2400
0000
1C00
3600
0000
3E00
6300
C180
C180
C180
C180
C180
C180
C180
C180
6300
3E00
ENDCHAR
STARTCHAR uni1ED7
ENCODING 7895
SWIDTH 569 0
DWIDTH 9 0
BBX 7 15 1 0
BITMAP
24
58
00
38
6C
00
38
C6
C6
C6
82
C6
C6
C6
38
ENDCHAR
STARTCHAR uni1ED8
ENCODING 7896
SWIDTH 690 0
DWIDTH 11 0
BBX 9 16 1 -3
BITMAP
1C00
3E00
6300
C180
C180
C180
C180
C180
C180
C180
C180
6300
3E00
0000
0800
1C00
ENDCHAR
STARTCHAR uni1ED9
ENCODING 7897
SWIDTH 569 0
DWIDTH 9 0
BBX 7 15 1 -3
BITMAP
38
6C
00
38
C6
C6
C6
82
C6
C6
C6
38
00
10
38
ENDCHAR
STARTCHAR uni1EDA
ENCODING 7898
SWIDTH 692 0
DWIDTH 11 0
BBX 10 15 1 0
BITMAP
0600
0C00
0040
3EC0
6380
C180
C180
C180
C180
C180
C180
C180
C100
6300
3C00
ENDCHAR
STARTCHAR uni1EDB
ENCODING 7899
SWIDTH 577 0
DWIDTH 9 0
BBX 8 12 1 0
BITMAP
0C
18
01
7D
C7
C6
86
86
86
C6
C6
78
ENDCHAR
STARTCHAR uni1EDC
ENCODING 7900
SWIDTH 692 0
DWIDTH 11 0
BBX 10 15 1 0
BITMAP
3000
1800
0040
3EC0
6380
C180
C180
C180
C180
C180
C180
C180
C100
6300
3C00
ENDCHAR
STARTCHAR uni1EDD
ENCODING 7901
SWIDTH 577 0
DWIDTH 9 0
BBX 8 12 1 0
BITMAP
70
38
01
7D
C7
C6
86
86
86
C6
C6
78
ENDCHAR
STARTCHAR uni1EDE
ENCODING 7902
SWIDTH 692 0
DWIDTH 11 0
BBX 10 16 1 0
BITMAP
0C00
0400
0800
0040
3EC0
6380
C180
C180
C180
C180
C180
C180
C180
C100
6300
3C00
ENDCHAR
STARTCHAR uni1EDF
ENCODING 7903
SWIDTH 577 0
DWIDTH 9 0
BBX 8 13 1 0
BITMAP
18
08
10
01
7D
C7
C6
86
86
86
C6
C6
78
ENDCHAR
STARTCHAR uni1EE0
ENCODING 7904
SWIDTH 692 0
DWIDTH 11 0
BBX 10 15 1 0
BITMAP
3200
2E00
0040
3EC0
6380
C180
C180
C180
C180
C180
C180
C180
C100
6300
3C00
ENDCHAR
STARTCHAR uni1EE1
ENCODING 7905
SWIDTH 577 0
DWIDTH 9 0
BBX 8 12 1 0
BITMAP
64
5C
01
7D
C7
C6
86
86
86
C6
C6
78
ENDCHAR
STARTCHAR uni1EE2
ENCODING 7906
SWIDTH 692 0
DWIDTH 11 0
BBX 10 16 1 -3
BITMAP
0040
3EC0
6380
C180
C180
C180
C180
C180
C180
C180
C100
6300
3C00
0000
1800
1800
ENDCHAR
STARTCHAR uni1EE3
ENCODING 7907
SWIDTH 577 0
DWIDTH 9 0
BBX 8 13 1 -3
BITMAP
01
7D
C7
C6
86
86
86
C6
C6
78
00
10
38
ENDCHAR
STARTCHAR uni1EE4
ENCODING 7908
SWIDTH 651 0
DWIDTH 10 0
BBX 8 15 1 -3
BITMAP
C3
C3
C3
C3
C3
C3
C3
C3
C3
C3
42
3C
00
18
18
ENDCHAR
STARTCHAR uni1EE5
ENCODING 7909
SWIDTH 555 0
DWIDTH 9 0
BBX 7 12 1 -3
BITMAP
C6
C6
C6
C6
C6
C6
C6
C6
7E
00
30
30
ENDCHAR
STARTCHAR uni1EE6
ENCODING 7910
SWIDTH 651 0
DWIDTH 10 0
BBX 8 16 1 0
BITMAP
1C
04
18
00
C3
C3
C3
C3
C3
C3
C3
C3
C3
C3
42
3C
ENDCHAR
STARTCHAR uni1EE7
ENCODING 7911
SWIDTH 555 0
DWIDTH 9 0
BBX 7 13 1 0
BITMAP
18
08
10
00
C6
C6
C6
C6
C6
C6
C6
C6
7E
ENDCHAR
STARTCHAR uni1EE8
ENCODING 7912
SWIDTH 705 0
DWIDTH 11 0
BBX 11 15 1 0
BITMAP
0600
0C00
0000
C320
C360
C3C0
C300
C300
C300
C300
C300
C300
C300
6300
3C00
ENDCHAR
STARTCHAR uni1EE9
ENCODING 7913
SWIDTH 618 0
DWIDTH 10 0
BBX 9 12 1 0
BITMAP
0C00
1800
0080
C680
C780
C600
C600
C600
C600
C600
C600
7E00
ENDCHAR
STARTCHAR uni1EEA
ENCODING 7914
SWIDTH 705 0
DWIDTH 11 0
BBX 11 15 1 0
BITMAP
3000
1C00
0000
C320
C360
C3C0
C300
C300
C300
C300
C300
C300
C300
6300
3C00
ENDCHAR
STARTCHAR uni1EEB
ENCODING 7915
SWIDTH 618 0
DWIDTH 10 0
BBX 9 12 1 0
BITMAP
6000
3800
0080
C680
C780
C600
C600
C600
C600
C600
C600
7E00
ENDCHAR
STARTCHAR uni1EEC
ENCODING 7916
SWIDTH 705 0
DWIDTH 11 0
BBX 11 16 1 0
BITMAP
0C00
0400
0800
0000
C320
C360
C3C0
C300
C300
C300
C300
C300
C300
C300
6300
3C00
ENDCHAR
STARTCHAR uni1EED
ENCODING 7917
SWIDTH 618 0
DWIDTH 10 0
BBX 9 13 1 0
BITMAP
1800
0800
1000
0080
C680
C780
C600
C600
C600
C600
C600
C600
7E00
ENDCHAR
STARTCHAR uni1EEE
ENCODING 7918
SWIDTH 705 0
DWIDTH 11 0
BBX 11 15 1 0
BITMAP
3200
2E00
0000
C320
C360
C3C0
C300
C300
C300
C300
C300
C300
C300
6300
3C00
ENDCHAR
STARTCHAR uni1EEF
ENCODING 7919
SWIDTH 618 0
DWIDTH 10 0
BBX 9 12 1 0
BITMAP
6400
5C00
0080
C680
C780
C600
C600
C600
C600
C600
C600
7E00
ENDCHAR
STARTCHAR uni1EF0
ENCODING 7920
SWIDTH 705 0
DWIDTH 11 0
BBX 11 15 1 -3
BITMAP
C320
C360
C3C0
C300
C300
C300
C300
C300
C300
C300
6300
3C00
0000
0800
1C00
ENDCHAR
STARTCHAR uni1EF1
ENCODING 7921
SWIDTH 618 0
DWIDTH 10 0
BBX 9 13 1 -3
BITMAP
0080
C680
C780
C600
C600
C600
C600
C600
C600
7E00
0000
3000
3000
ENDCHAR
STARTCHAR Ygrave
ENCODING 7922
SWIDTH 609 0
DWIDTH 10 0
BBX 10 15 0 0
BITMAP
3800
0C00
0000
C1C0
6180
6300
3300
3600
1E00
1C00
0C00
0C00
0C00
0C00
0C00
ENDCHAR
STARTCHAR ygrave
ENCODING 7923
SWIDTH 486 0
DWIDTH 8 0
BBX 8 15 0 -3
BITMAP
70
18
00
C3
66
66
66
3C
3C
3C
18
18
18
10
60
ENDCHAR
STARTCHAR uni1EF4
ENCODING 7924
SWIDTH 609 0
DWIDTH 10 0
BBX 10 15 0 -3
BITMAP
C1C0
6180
6300
3300
3600
1E00
1C00
0C00
0C00
0C00
0C00
0C00
0000
0C00
0C00
ENDCHAR
STARTCHAR uni1EF5
ENCODING 7925
SWIDTH 486 0
DWIDTH 8 0
BBX 8 13 0 -4
BITMAP
C3
66
66
66
3C
3C
3C
18
18
18
10
66
06
ENDCHAR
STARTCHAR uni1EF6
ENCODING 7926
SWIDTH 609 0
DWIDTH 10 0
BBX 10 16 0 0
BITMAP
0C00
0600
0C00
0000
C1C0
6180
6300
3300
3600
1E00
1C00
0C00
0C00
0C00
0C00
0C00
ENDCHAR
STARTCHAR uni1EF7
ENCODING 7927
SWIDTH 486 0
DWIDTH 8 0
BBX 8 16 0 -3
BITMAP
18
0C
18
00
C3
66
66
66
3C
3C
3C
18
18
18
10
60
ENDCHAR
STARTCHAR uni1EF8
ENCODING 7928
SWIDTH 609 0
DWIDTH 10 0
BBX 10 15 0 0
BITMAP
1B00
2600
0000
C1C0
6180
6300
3300
3600
1E00
1C00
0C00
0C00
0C00
0C00
0C00
ENDCHAR
STARTCHAR uni1EF9
ENCODING 7929
SWIDTH 486 0
DWIDTH 8 0
BBX 8 15 0 -3
BITMAP
32
4C
00
C3
66
66
66
3C
3C
3C
18
18
18
10
60
ENDCHAR
STARTCHAR uni1F4D
ENCODING 8013
SWIDTH 724 0
DWIDTH 12 0
BBX 15 12 -4 0
BITMAP
D8F0
D198
530C
0304
0606
0606
0606
0606
0304
030C
0198
00F0
ENDCHAR
STARTCHAR uni2000
ENCODING 8192
SWIDTH 509 0
DWIDTH 8 0
BBX 1 1 0 0
BITMAP
00
ENDCHAR
STARTCHAR uni2001
ENCODING 8193
SWIDTH 1020 0
DWIDTH 16 0
BBX 1 1 0 0
BITMAP
00
ENDCHAR
STARTCHAR uni2002
ENCODING 8194
SWIDTH 509 0
DWIDTH 8 0
BBX 1 1 0 0
BITMAP
00
ENDCHAR
STARTCHAR uni2003
ENCODING 8195
SWIDTH 1020 0
DWIDTH 16 0
BBX 1 1 0 0
BITMAP
00
ENDCHAR
STARTCHAR uni2004
ENCODING 8196
SWIDTH 340 0
DWIDTH 5 0
BBX 1 1 0 0
BITMAP
00
ENDCHAR
STARTCHAR uni2005
ENCODING 8197
SWIDTH 254 0
DWIDTH 4 0
BBX 1 1 0 0
BITMAP
00
ENDCHAR
STARTCHAR uni2006
ENCODING 8198
SWIDTH 169 0
DWIDTH 3 0
BBX 1 1 0 0
BITMAP
00
ENDCHAR
STARTCHAR uni2007
ENCODING 8199
SWIDTH 562 0
DWIDTH 9 0
BBX 1 1 0 0
BITMAP
00
ENDCHAR
STARTCHAR uni2008
ENCODING 8200
SWIDTH 273 0
DWIDTH 4 0
BBX 1 1 0 0
BITMAP
00
ENDCHAR
STARTCHAR uni2009
ENCODING 8201
SWIDTH 204 0
DWIDTH 3 0
BBX 1 1 0 0
BITMAP
00
ENDCHAR
STARTCHAR uni200A
ENCODING 8202
SWIDTH 102 0
DWIDTH 2 0
BBX 1 1 0 0
BITMAP
00
ENDCHAR
STARTCHAR uni200B
ENCODING 8203
SWIDTH 0 0
DWIDTH 0 0
BBX 1 1 0 0
BITMAP
00
ENDCHAR
STARTCHAR uni2010
ENCODING 8208
SWIDTH 328 0
DWIDTH 5 0
BBX 4 1 1 5
BITMAP
F0
ENDCHAR
STARTCHAR uni2011
ENCODING 8209
SWIDTH 328 0
DWIDTH 5 0
BBX 4 1 1 5
BITMAP
F0
ENDCHAR
STARTCHAR endash
ENCODING 8211
SWIDTH 645 0
DWIDTH 10 0
BBX 8 1 1 5
BITMAP
FF
ENDCHAR
STARTCHAR emdash
ENCODING 8212
SWIDTH 773 0
DWIDTH 12 0
BBX 11 1 1 5
BITMAP
FFE0
ENDCHAR
STARTCHAR uni2015
ENCODING 8213
SWIDTH 773 0
DWIDTH 12 0
BBX 11 1 1 5
BITMAP
FFE0
ENDCHAR
STARTCHAR underscoredbl
ENCODING 8215
SWIDTH 451 0
DWIDTH 7 0
BBX 7 3 0 -3
BITMAP
FE
00
FE
ENDCHAR
STARTCHAR quoteleft
ENCODING 8216
SWIDTH 218 0
DWIDTH 4 0
BBX 2 4 1 8
BITMAP
40
C0
C0
C0
ENDCHAR
STARTCHAR quoteright
ENCODING 8217
SWIDTH 216 0
DWIDTH 3 0
BBX 3 4 0 8
BITMAP
60
60
40
C0
ENDCHAR
STARTCHAR quotesinglbase
ENCODING 8218
SWIDTH 225 0
DWIDTH 4 0
BBX 2 4 1 -2
BITMAP
C0
C0
C0
80
ENDCHAR
STARTCHAR quotereversed
ENCODING 8219
SWIDTH 207 0
DWIDTH 3 0
BBX 2 4 1 8
BITMAP
80
80
80
40
ENDCHAR
STARTCHAR quotedblleft
ENCODING 8220
SWIDTH 384 0
DWIDTH 6 0
BBX 5 4 1 8
BITMAP
48
D8
D0
D0
ENDCHAR
STARTCHAR quotedblright
ENCODING 8221
SWIDTH 388 0
DWIDTH 6 0
BBX 5 4 0 8
BITMAP
68
68
58
D0
ENDCHAR
STARTCHAR quotedblbase
ENCODING 8222
SWIDTH 378 0
DWIDTH 6 0
BBX 5 4 0 -2
BITMAP
68
68
78
D8
ENDCHAR
STARTCHAR dagger
ENCODING 8224
SWIDTH 545 0
DWIDTH 9 0
BBX 8 12 0 0
BITMAP
18
18
18
FF
18
18
18
18
18
18
18
18
ENDCHAR
STARTCHAR daggerdbl
ENCODING 8225
SWIDTH 574 0
DWIDTH 9 0
BBX 7 15 1 -3
BITMAP
18
18
18
FE
18
18
18
18
18
18
18
FE
18
18
18
ENDCHAR
STARTCHAR bullet
ENCODING 8226
SWIDTH 349 0
DWIDTH 6 0
BBX 4 4 1 4
BITMAP
60
F0
F0
60
ENDCHAR
STARTCHAR twodotenleader
ENCODING 8229
SWIDTH 497 0
DWIDTH 8 0
BBX 6 2 1 0
BITMAP
CC
DC
ENDCHAR
STARTCHAR ellipsis
ENCODING 8230
SWIDTH 706 0
DWIDTH 11 0
BBX 9 2 1 0
BITMAP
CD80
DD80
ENDCHAR
STARTCHAR uni2027
ENCODING 8231
SWIDTH 222 0
DWIDTH 4 0
BBX 2 2 1 4
BITMAP
C0
C0
ENDCHAR
STARTCHAR perthousand
ENCODING 8240
SWIDTH 956 0
DWIDTH 15 0
BBX 15 12 0 0
BITMAP
7000
4800
C880
4900
7300
0200
0400
0DDC
0B24
1326
3324
01DC
ENDCHAR
STARTCHAR minute
ENCODING 8242
SWIDTH 168 0
DWIDTH 3 0
BBX 1 4 1 8
BITMAP
80
80
80
80
ENDCHAR
STARTCHAR second
ENCODING 8243
SWIDTH 324 0
DWIDTH 5 0
BBX 4 4 1 8
BITMAP
B0
A0
A0
A0
ENDCHAR
STARTCHAR guilsinglleft
ENCODING 8249
SWIDTH 305 0
DWIDTH 5 0
BBX 3 6 1 1
BITMAP
20
40
C0
C0
40
20
ENDCHAR
STARTCHAR guilsinglright
ENCODING 8250
SWIDTH 301 0
DWIDTH 5 0
BBX 3 6 1 1
BITMAP
80
40
60
60
40
80
ENDCHAR
STARTCHAR exclamdbl
ENCODING 8252
SWIDTH 536 0
DWIDTH 9 0
BBX 6 12 1 0
BITMAP
CC
CC
CC
CC
CC
CC
CC
CC
C4
00
CC
CC
ENDCHAR
STARTCHAR fraction
ENCODING 8260
SWIDTH 451 0
DWIDTH 7 0
BBX 7 9 0 1
BITMAP
02
04
0C
08
10
30
20
40
C0
ENDCHAR
STARTCHAR uni2074
ENCODING 8308
SWIDTH 370 0
DWIDTH 6 0
BBX 5 6 0 6
BITMAP
18
38
38
58
F8
18
ENDCHAR
STARTCHAR uni207F
ENCODING 8319
SWIDTH 419 0
DWIDTH 7 0
BBX 5 7 1 5
BITMAP
B0
D8
C8
C8
C8
C8
C8
ENDCHAR
STARTCHAR franc
ENCODING 8355
SWIDTH 549 0
DWIDTH 9 0
BBX 8 12 0 0
BITMAP
7F
60
60
60
60
7F
60
60
60
F8
60
60
ENDCHAR
STARTCHAR lira
ENCODING 8356
SWIDTH 588 0
DWIDTH 9 0
BBX 8 12 1 0
BITMAP
3C
66
63
60
60
F8
60
F8
60
60
60
FF
ENDCHAR
STARTCHAR uni20A6
ENCODING 8358
SWIDTH 804 0
DWIDTH 13 0
BBX 13 12 0 0
BITMAP
3060
3860
3860
3C60
3C60
FFF8
3760
FFF8
31E0
30E0
30E0
3060
ENDCHAR
STARTCHAR peseta
ENCODING 8359
SWIDTH 839 0
DWIDTH 13 0
BBX 11 12 1 0
BITMAP
F800
CCC0
C6C0
C7E0
C6C0
CCC0
F8C0
C0C0
C0C0
C0C0
C0C0
C060
ENDCHAR
STARTCHAR uni20A8
ENCODING 8360
SWIDTH 1071 0
DWIDTH 17 0
BBX 15 12 1 0
BITMAP
FE00
C300
C300
C33C
C366
C346
FE70
C63C
C606
C3C6
C366
C3BC
ENDCHAR
STARTCHAR uni20A9
ENCODING 8361
SWIDTH 769 0
DWIDTH 12 0
BBX 12 12 0 0
BITMAP
E660
6660
6660
FFF0
6F60
2F40
FFF0
39C0
39C0
39C0
1980
1980
ENDCHAR
STARTCHAR uni20AA
ENCODING 8362
SWIDTH 818 0
DWIDTH 13 0
BBX 11 9 1 0
BITMAP
FE60
C360
C360
DB60
DB60
DB60
D860
D860
DFC0
ENDCHAR
STARTCHAR dong
ENCODING 8363
SWIDTH 579 0
DWIDTH 9 0
BBX 8 14 1 -2
BITMAP
06
1F
06
7E
C6
C6
C6
C6
C6
C6
C6
7E
00
FE
ENDCHAR
STARTCHAR Euro
ENCODING 8364
SWIDTH 568 0
DWIDTH 9 0
BBX 7 12 1 0
BITMAP
1E
30
60
60
FC
60
FC
60
60
20
30
1E
ENDCHAR
STARTCHAR uni20B1
ENCODING 8369
SWIDTH 744 0
DWIDTH 12 0
BBX 12 12 0 0
BITMAP
3F00
31C0
FFF0
30C0
FFF0
31C0
3F80
3000
3000
3000
3000
3000
ENDCHAR
STARTCHAR uni20B9
ENCODING 8377
SWIDTH 525 0
DWIDTH 8 0
BBX 8 12 0 0
BITMAP
FF
0C
0C
FF
0C
0C
F8
60
30
38
18
0E
ENDCHAR
STARTCHAR uni20BA
ENCODING 8378
SWIDTH 579 0
DWIDTH 9 0
BBX 8 12 0 0
BITMAP
30
3C
30
F0
3C
30
F1
33
33
33
36
3C
ENDCHAR
STARTCHAR uni20BC
ENCODING 8380
SWIDTH 670 0
DWIDTH 11 0
BBX 9 9 1 0
BITMAP
0800
0800
3E00
6B00
C980
C980
C980
C980
C980
ENDCHAR
STARTCHAR uni20BD
ENCODING 8381
SWIDTH 686 0
DWIDTH 11 0
BBX 10 12 0 0
BITMAP
3F80
30C0
30C0
30C0
30C0
30C0
FF80
3000
FC00
3000
3000
3000
ENDCHAR
STARTCHAR uni2105
ENCODING 8453
SWIDTH 736 0
DWIDTH 12 0
BBX 10 12 1 0
BITMAP
7000
9000
8900
9B00
7200
0400
0C00
0B80
1640
3640
2640
0380
ENDCHAR
STARTCHAR uni2113
ENCODING 8467
SWIDTH 485 0
DWIDTH 8 0
BBX 6 12 1 0
BITMAP
38
2C
6C
6C
6C
78
70
E0
60
60
30
18
ENDCHAR
STARTCHAR uni2116
ENCODING 8470
SWIDTH 1022 0
DWIDTH 16 0
BBX 14 12 1 0
BITMAP
C338
E364
E344
F344
F364
DB38
DB00
CB7C
CF00
C700
C700
C300
ENDCHAR
STARTCHAR trademark
ENCODING 8482
SWIDTH 629 0
DWIDTH 10 0
BBX 8 4 1 8
BITMAP
EB
4B
5D
55
ENDCHAR
STARTCHAR uni03A9.dup2
ENCODING 8486
SWIDTH 669 0
DWIDTH 11 0
BBX 9 12 1 0
BITMAP
3C00
6300
4300
C180
C180
C180
C180
C180
C180
6300
6300
F780
ENDCHAR
STARTCHAR estimated
ENCODING 8494
SWIDTH 634 0
DWIDTH 10 0
BBX 8 9 1 0
BITMAP
3C
62
43
C3
FF
C0
40
42
3C
ENDCHAR
STARTCHAR oneeighth
ENCODING 8539
SWIDTH 775 0
DWIDTH 12 0
BBX 11 12 1 0
BITMAP
6000
E000
6100
6200
6600
6400
0BC0
1A40
11C0
2260
6260
01C0
ENDCHAR
STARTCHAR threeeighths
ENCODING 8540
SWIDTH 857 0
DWIDTH 14 0
BBX 12 12 1 0
BITMAP
F000
1000
6080
1980
9900
F200
06E0
05B0
08E0
19B0
11B0
00E0
ENDCHAR
STARTCHAR fiveeighths
ENCODING 8541
SWIDTH 852 0
DWIDTH 14 0
BBX 12 12 1 0
BITMAP
F000
8000
F080
1100
9300
F200
04E0
0DB0
08E0
11B0
31B0
00E0
ENDCHAR
STARTCHAR seveneighths
ENCODING 8542
SWIDTH 829 0
DWIDTH 13 0
BBX 11 12 1 0
BITMAP
F800
1000
3100
2300
6200
4400
8DE0
0920
10C0
3120
2320
01E0
ENDCHAR
STARTCHAR partialdiff
ENCODING 8706
SWIDTH 570 0
DWIDTH 9 0
BBX 7 12 1 0
BITMAP
78
0C
06
06
7A
C6
C2
C2
C6
C6
C4
38
ENDCHAR
STARTCHAR uni0394.dup3
ENCODING 8710
SWIDTH 718 0
DWIDTH 12 0
BBX 11 12 0 0
BITMAP
0600
0E00
0F00
0B00
1B00
1980
3180
31C0
30C0
60C0
60E0
FFE0
ENDCHAR
STARTCHAR product
ENCODING 8719
SWIDTH 698 0
DWIDTH 11 0
BBX 9 14 1 -2
BITMAP
FF80
C180
C180
C180
C180
C180
C180
C180
C180
C180
C180
C180
C180
C180
ENDCHAR
STARTCHAR summation
ENCODING 8721
SWIDTH 605 0
DWIDTH 10 0
BBX 10 14 0 -2
BITMAP
FF80
6000
3000
1800
1800
0C00
0600
0600
0C00
1800
1800
3000
6000
FFC0
ENDCHAR
STARTCHAR minus
ENCODING 8722
SWIDTH 563 0
DWIDTH 9 0
BBX 7 1 1 5
BITMAP
FE
ENDCHAR
STARTCHAR radical
ENCODING 8730
SWIDTH 586 0
DWIDTH 9 0
BBX 9 12 0 0
BITMAP
0180
0100
0300
0300
0300
0200
E600
3600
3400
1C00
1C00
1800
ENDCHAR
STARTCHAR infinity
ENCODING 8734
SWIDTH 1033 0
DWIDTH 17 0
BBX 15 9 1 0
BITMAP
3C78
66CC
C286
C386
C306
C386
C286
66CC
3C78
ENDCHAR
STARTCHAR integral
ENCODING 8747
SWIDTH 271 0
DWIDTH 4 0
BBX 6 15 -1 -3
BITMAP
1C
30
30
30
30
30
30
30
30
30
30
30
30
30
E0
ENDCHAR
STARTCHAR approxequal
ENCODING 8776
SWIDTH 569 0
DWIDTH 9 0
BBX 7 5 1 3
BITMAP
F2
8E
00
E2
9E
ENDCHAR
STARTCHAR notequal
ENCODING 8800
SWIDTH 559 0
DWIDTH 9 0
BBX 7 8 1 1
BITMAP
04
04
FE
10
10
FE
40
40
ENDCHAR
STARTCHAR lessequal
ENCODING 8804
SWIDTH 508 0
DWIDTH 8 0
BBX 7 9 0 0
BITMAP
06
1E
F0
E0
3C
06
02
00
FE
ENDCHAR
STARTCHAR greaterequal
ENCODING 8805
SWIDTH 520 0
DWIDTH 8 0
BBX 7 9 1 0
BITMAP
80
F0
1C
0E
78
C0
00
00
FE
ENDCHAR
STARTCHAR lozenge
ENCODING 9674
SWIDTH 505 0
DWIDTH 8 0
BBX 8 12 0 0
BITMAP
18
3C
3C
66
66
C3
C3
66
66
3C
3C
18
ENDCHAR
STARTCHAR uniEE01
ENCODING 60929
SWIDTH 294 0
DWIDTH 5 0
BBX 2 9 1 1
BITMAP
C0
C0
00
00
00
00
00
C0
C0
ENDCHAR
STARTCHAR uniEE02
ENCODING 60930
SWIDTH 324 0
DWIDTH 5 0
BBX 3 4 1 5
BITMAP
A0
A0
A0
A0
ENDCHAR
STARTCHAR uniF6C3
ENCODING 63171
SWIDTH 242 0
DWIDTH 4 0
BBX 2 3 1 -1
BITMAP
C0
C0
80
ENDCHAR
STARTCHAR uniFB01
ENCODING 64257
SWIDTH 582 0
DWIDTH 9 0
BBX 8 12 0 0
BITMAP
3E
20
60
FB
63
63
63
63
63
63
63
63
ENDCHAR
STARTCHAR uniFB02
ENCODING 64258
SWIDTH 591 0
DWIDTH 9 0
BBX 8 12 0 0
BITMAP
3F
33
63
FB
63
63
63
63
63
63
63
63
ENDCHAR
STARTCHAR uniFB03
ENCODING 64259
SWIDTH 892 0
DWIDTH 14 0
BBX 13 12 0 0
BITMAP
3DF0
3100
6300
FFD8
6318
6318
6318
6318
6318
6318
6318
6318
ENDCHAR
STARTCHAR uniFB04
ENCODING 64260
SWIDTH 892 0
DWIDTH 14 0
BBX 13 12 0 0
BITMAP
3DF8
3318
2318
FFD8
2318
2318
2318
2318
2318
2318
2318
2318
ENDCHAR
STARTCHAR uniFEFF
ENCODING 65279
SWIDTH 0 0
DWIDTH 0 0
BBX 1 1 0 0
BITMAP
00
ENDCHAR
STARTCHAR uniFFFC
ENCODING 65532
SWIDTH 1023 0
DWIDTH 16 0
BBX 15 15 1 -3
BITMAP
DB6E
8002
8002
0000
8002
BB8A
4B08
CACA
BBB2
0000
8002
8002
0000
8002
DB6E
ENDCHAR
STARTCHAR uniFFFD
ENCODING 65533
SWIDTH 1025 0
DWIDTH 16 0
BBX 15 15 1 -2
BITMAP
0100
0380
07C0
0FE0
1870
3B38
7F3C
FE7E
7CFC
3FF8
1CF0
0FE0
07C0
0380
0100
ENDCHAR
STARTCHAR .notdef
ENCODING -1
SWIDTH 443 0
DWIDTH 7 0
BBX 5 12 1 0
BITMAP
F8
88
98
D8
E8
A8
A8
E8
D8
98
88
F8
ENDCHAR
STARTCHAR glyph369
ENCODING -1
SWIDTH 396 0
DWIDTH 6 0
BBX 5 3 1 9
BITMAP
98
90
60
ENDCHAR
STARTCHAR uni2009.locl
ENCODING -1
SWIDTH 125 0
DWIDTH 2 0
BBX 1 1 0 0
BITMAP
00
ENDCHAR
STARTCHAR f_f.dlig
ENCODING -1
SWIDTH 638 0
DWIDTH 10 0
BBX 9 12 1 0
BITMAP
3B80
6200
6600
FF80
6600
6600
6600
6600
6600
6600
6600
6600
ENDCHAR
STARTCHAR longs_t.dlig
ENCODING -1
SWIDTH 633 0
DWIDTH 10 0
BBX 10 12 0 0
BITMAP
3F00
3300
2300
E7C0
2300
2300
2300
2300
2300
2300
2300
21C0
ENDCHAR
STARTCHAR s_t.dlig
ENCODING -1
SWIDTH 839 0
DWIDTH 13 0
BBX 13 12 0 0
BITMAP
03C0
0660
0660
3EF8
6660
6660
7060
3C60
0E60
C660
6620
3C38
ENDCHAR
STARTCHAR two.dnom
ENCODING -1
SWIDTH 370 0
DWIDTH 6 0
BBX 5 6 0 0
BITMAP
78
48
98
30
60
78
ENDCHAR
STARTCHAR one.dnom
ENCODING -1
SWIDTH 370 0
DWIDTH 6 0
BBX 3 6 1 0
BITMAP
60
E0
20
20
20
20
ENDCHAR
STARTCHAR zero.dnom
ENCODING -1
SWIDTH 370 0
DWIDTH 6 0
BBX 4 6 1 0
BITMAP
F0
90
90
90
90
F0
ENDCHAR
STARTCHAR nine.c2sc
ENCODING -1
SWIDTH 514 0
DWIDTH 8 0
BBX 7 9 0 0
BITMAP
3C
66
46
E6
7E
06
06
0C
38
ENDCHAR
STARTCHAR eight.c2sc
ENCODING -1
SWIDTH 514 0
DWIDTH 8 0
BBX 6 9 1 0
BITMAP
78
CC
CC
CC
78
CC
84
CC
78
ENDCHAR
STARTCHAR seven.c2sc
ENCODING -1
SWIDTH 514 0
DWIDTH 8 0
BBX 8 9 0 0
BITMAP
FF
06
06
0C
0C
18
18
30
30
ENDCHAR
STARTCHAR six.c2sc
ENCODING -1
SWIDTH 513 0
DWIDTH 8 0
BBX 7 9 1 0
BITMAP
38
60
C0
F8
CC
C6
C6
CC
78
ENDCHAR
STARTCHAR five.c2sc
ENCODING -1
SWIDTH 514 0
DWIDTH 8 0
BBX 7 9 1 0
BITMAP
FC
C0
C0
F8
4C
04
06
CC
78
ENDCHAR
STARTCHAR four.c2sc
ENCODING -1
SWIDTH 514 0
DWIDTH 8 0
BBX 8 9 0 0
BITMAP
0E
0E
1E
36
66
46
FF
06
06
ENDCHAR
STARTCHAR three.c2sc
ENCODING -1
SWIDTH 514 0
DWIDTH 8 0
BBX 7 9 0 0
BITMAP
3C
66
86
06
1C
06
C6
66
3C
ENDCHAR
STARTCHAR two.c2sc
ENCODING -1
SWIDTH 514 0
DWIDTH 8 0
BBX 8 9 0 0
BITMAP
3C
66
C6
06
0C
1C
38
70
7F
ENDCHAR
STARTCHAR one.c2sc
ENCODING -1
SWIDTH 514 0
DWIDTH 8 0
BBX 4 9 1 0
BITMAP
30
F0
10
10
10
10
10
10
10
ENDCHAR
STARTCHAR zero.c2sc
ENCODING -1
SWIDTH 514 0
DWIDTH 8 0
BBX 6 9 1 0
BITMAP
78
CC
CC
8C
8C
8C
CC
CC
78
ENDCHAR
STARTCHAR Z.c2sc
ENCODING -1
SWIDTH 520 0
DWIDTH 8 0
BBX 7 9 1 0
BITMAP
FE
0C
1C
18
30
70
60
C0
FE
ENDCHAR
STARTCHAR Y.c2sc
ENCODING -1
SWIDTH 529 0
DWIDTH 8 0
BBX 8 9 0 0
BITMAP
C3
63
66
34
1C
18
18
18
18
ENDCHAR
STARTCHAR X.c2sc
ENCODING -1
SWIDTH 545 0
DWIDTH 9 0
BBX 9 9 0 0
BITMAP
E300
6600
3600
1C00
1C00
3C00
3600
6700
E380
ENDCHAR
STARTCHAR W.c2sc
ENCODING -1
SWIDTH 753 0
DWIDTH 12 0
BBX 12 9 0 0
BITMAP
C630
4620
6760
6F60
6D60
2940
39C0
39C0
30C0
ENDCHAR
STARTCHAR V.c2sc
ENCODING -1
SWIDTH 560 0
DWIDTH 9 0
BBX 9 9 0 0
BITMAP
C180
6300
6300
6300
3600
3600
1400
1C00
1C00
ENDCHAR
STARTCHAR U.c2sc
ENCODING -1
SWIDTH 564 0
DWIDTH 9 0
BBX 7 9 1 0
BITMAP
C6
C6
C6
C6
C6
C6
C6
C6
7C
ENDCHAR
STARTCHAR T.c2sc
ENCODING -1
SWIDTH 528 0
DWIDTH 8 0
BBX 8 9 0 0
BITMAP
FF
18
18
18
18
18
18
18
18
ENDCHAR
STARTCHAR S.c2sc
ENCODING -1
SWIDTH 525 0
DWIDTH 8 0
BBX 8 9 0 0
BITMAP
3C
66
43
60
3C
06
C3
63
3E
ENDCHAR
STARTCHAR R.c2sc
ENCODING -1
SWIDTH 544 0
DWIDTH 9 0
BBX 8 9 1 0
BITMAP
FC
C6
C6
C6
FC
CC
CC
C6
C7
ENDCHAR
STARTCHAR Q.c2sc
ENCODING -1
SWIDTH 593 0
DWIDTH 10 0
BBX 8 11 1 -2
BITMAP
3C
66
C3
C3
C3
C3
C3
66
3E
03
02
ENDCHAR
STARTCHAR P.c2sc
ENCODING -1
SWIDTH 553 0
DWIDTH 9 0
BBX 7 9 1 0
BITMAP
FC
C6
C2
C6
FC
C0
C0
C0
C0
ENDCHAR
STARTCHAR O.c2sc
ENCODING -1
SWIDTH 593 0
DWIDTH 10 0
BBX 8 9 1 0
BITMAP
3C
66
C3
C3
C3
C3
C3
66
3C
ENDCHAR
STARTCHAR N.c2sc
ENCODING -1
SWIDTH 607 0
DWIDTH 10 0
BBX 8 9 1 0
BITMAP
C3
E3
E3
F3
DB
CB
CF
C7
C3
ENDCHAR
STARTCHAR M.c2sc
ENCODING -1
SWIDTH 752 0
DWIDTH 12 0
BBX 10 9 1 0
BITMAP
E1C0
E1C0
E1C0
F3C0
D2C0
DEC0
DEC0
CCC0
CCC0
ENDCHAR
STARTCHAR L.c2sc
ENCODING -1
SWIDTH 465 0
DWIDTH 7 0
BBX 6 9 1 0
BITMAP
C0
C0
C0
C0
C0
C0
C0
C0
FC
ENDCHAR
STARTCHAR K.c2sc
ENCODING -1
SWIDTH 544 0
DWIDTH 9 0
BBX 8 9 1 0
BITMAP
C7
CC
D8
F8
F8
F8
CC
CE
C7
ENDCHAR
STARTCHAR J.c2sc
ENCODING -1
SWIDTH 479 0
DWIDTH 8 0
BBX 7 9 0 0
BITMAP
06
06
06
06
06
06
06
E6
7C
ENDCHAR
STARTCHAR I.c2sc
ENCODING -1
SWIDTH 248 0
DWIDTH 4 0
BBX 2 9 1 0
BITMAP
C0
C0
C0
C0
C0
C0
C0
C0
C0
ENDCHAR
STARTCHAR H.c2sc
ENCODING -1
SWIDTH 608 0
DWIDTH 10 0
BBX 8 9 1 0
BITMAP
C3
C3
C3
C3
FF
C3
C3
C3
C3
ENDCHAR
STARTCHAR G.c2sc
ENCODING -1
SWIDTH 581 0
DWIDTH 9 0
BBX 8 9 0 0
BITMAP
3E
63
63
40
C7
41
61
63
3E
ENDCHAR
STARTCHAR F.c2sc
ENCODING -1
SWIDTH 471 0
DWIDTH 8 0
BBX 6 9 1 0
BITMAP
FC
C0
C0
C0
FC
C0
C0
C0
C0
ENDCHAR
STARTCHAR dollar.c2sc
ENCODING -1
SWIDTH 525 0
DWIDTH 8 0
BBX 8 13 0 -2
BITMAP
08
08
3C
66
43
60
3C
06
C3
63
3E
08
08
ENDCHAR
STARTCHAR sterling.c2sc
ENCODING -1
SWIDTH 549 0
DWIDTH 9 0
BBX 7 9 1 0
BITMAP
3C
66
66
60
FC
60
60
40
FE
ENDCHAR
STARTCHAR yen.c2sc
ENCODING -1
SWIDTH 455 0
DWIDTH 7 0
BBX 7 9 0 0
BITMAP
C6
6C
6C
28
FE
10
FE
10
10
ENDCHAR
STARTCHAR Gamma.c2sc
ENCODING -1
SWIDTH 465 0
DWIDTH 7 0
BBX 6 9 1 0
BITMAP
FC
C0
C0
C0
C0
C0
C0
C0
C0
ENDCHAR
STARTCHAR uni0394.c2sc
ENCODING -1
SWIDTH 560 0
DWIDTH 9 0
BBX 9 9 0 0
BITMAP
1C00
1C00
1400
3600
3600
6300
6300
6300
FF80
ENDCHAR
STARTCHAR Theta.c2sc
ENCODING -1
SWIDTH 593 0
DWIDTH 10 0
BBX 8 9 1 0
BITMAP
3C
66
C3
C3
FF
C3
C3
66
3C
ENDCHAR
STARTCHAR Lambda.c2sc
ENCODING -1
SWIDTH 560 0
DWIDTH 9 0
BBX 9 9 0 0
BITMAP
1C00
1C00
1400
3600
3600
6300
6300
6300
C180
ENDCHAR
STARTCHAR Xi.c2sc
ENCODING -1
SWIDTH 449 0
DWIDTH 7 0
BBX 7 9 0 0
BITMAP
FE
00
00
00
7C
00
00
00
FE
ENDCHAR
STARTCHAR Pi.c2sc
ENCODING -1
SWIDTH 605 0
DWIDTH 10 0
BBX 8 9 1 0
BITMAP
FF
C3
C3
C3
C3
C3
C3
C3
C3
ENDCHAR
STARTCHAR Sigma.c2sc
ENCODING -1
SWIDTH 512 0
DWIDTH 8 0
BBX 8 9 0 0
BITMAP
FE
60
30
30
18
30
30
60
FF
ENDCHAR
STARTCHAR Phi.c2sc
ENCODING -1
SWIDTH 701 0
DWIDTH 11 0
BBX 10 9 1 0
BITMAP
0800
7F00
C980
C880
88C0
C980
C980
7F00
0800
ENDCHAR
STARTCHAR Psi.c2sc
ENCODING -1
SWIDTH 666 0
DWIDTH 11 0
BBX 9 9 1 0
BITMAP
C980
C980
C980
C980
4900
3E00
0800
0800
0800
ENDCHAR
STARTCHAR uni03A9.c2sc
ENCODING -1
SWIDTH 611 0
DWIDTH 10 0
BBX 8 9 1 0
BITMAP
3C
66
C3
C3
C3
C3
C3
66
FF
ENDCHAR
STARTCHAR uni0402.c2sc
ENCODING -1
SWIDTH 695 0
DWIDTH 11 0
BBX 11 9 0 0
BITMAP
FF00
1800
1800
1F80
18C0
1860
1860
18C0
1980
ENDCHAR
STARTCHAR uni0404.c2sc
ENCODING -1
SWIDTH 562 0
DWIDTH 9 0
BBX 8 9 1 0
BITMAP
3C
C6
C2
C1
F8
C0
C3
C6
7C
ENDCHAR
STARTCHAR uni0409.c2sc
ENCODING -1
SWIDTH 916 0
DWIDTH 15 0
BBX 14 9 0 0
BITMAP
3F80
3180
3180
31F8
318C
318C
318C
218C
E1F8
ENDCHAR
STARTCHAR uni040A.c2sc
ENCODING -1
SWIDTH 917 0
DWIDTH 15 0
BBX 13 9 1 0
BITMAP
C300
C300
C300
C3F0
FF18
C318
C318
C318
C3F0
ENDCHAR
STARTCHAR uni040B.c2sc
ENCODING -1
SWIDTH 698 0
DWIDTH 11 0
BBX 11 9 0 0
BITMAP
FF00
1800
1800
1F80
18C0
1840
1860
1860
1860
ENDCHAR
STARTCHAR uni040F.c2sc
ENCODING -1
SWIDTH 604 0
DWIDTH 10 0
BBX 8 12 1 -3
BITMAP
C3
C3
C3
C3
C3
C3
C3
C3
FF
18
18
18
ENDCHAR
STARTCHAR uni0411.c2sc
ENCODING -1
SWIDTH 555 0
DWIDTH 9 0
BBX 7 9 1 0
BITMAP
FC
C0
C0
FC
C6
C6
C6
C6
FC
ENDCHAR
STARTCHAR uni0414.c2sc
ENCODING -1
SWIDTH 668 0
DWIDTH 11 0
BBX 10 12 0 -3
BITMAP
1F80
1180
1180
1180
3180
3180
3180
3180
FFC0
C0C0
C0C0
C0C0
ENDCHAR
STARTCHAR uni0416.c2sc
ENCODING -1
SWIDTH 778 0
DWIDTH 12 0
BBX 12 9 0 0
BITMAP
E670
6660
36C0
36C0
1F80
36C0
76E0
6660
E670
ENDCHAR
STARTCHAR uni0417.c2sc
ENCODING -1
SWIDTH 534 0
DWIDTH 9 0
BBX 7 9 1 0
BITMAP
7C
C6
06
06
38
06
C6
C6
7C
ENDCHAR
STARTCHAR uni0418.c2sc
ENCODING -1
SWIDTH 611 0
DWIDTH 10 0
BBX 8 9 1 0
BITMAP
C3
C7
CF
CF
DB
F3
F3
E3
C3
ENDCHAR
STARTCHAR uni041A.c2sc
ENCODING -1
SWIDTH 544 0
DWIDTH 9 0
BBX 8 9 1 0
BITMAP
C6
CC
CC
D8
F0
D8
CC
CE
C7
ENDCHAR
STARTCHAR uni041B.c2sc
ENCODING -1
SWIDTH 599 0
DWIDTH 10 0
BBX 9 9 0 0
BITMAP
3F80
3180
3180
3180
3180
3180
3180
2180
E180
ENDCHAR
STARTCHAR uni0423.c2sc
ENCODING -1
SWIDTH 534 0
DWIDTH 9 0
BBX 9 9 0 0
BITMAP
E380
6300
3300
3600
1E00
1C00
1C00
0800
3000
ENDCHAR
STARTCHAR uni0426.c2sc
ENCODING -1
SWIDTH 670 0
DWIDTH 11 0
BBX 9 12 1 -3
BITMAP
C300
C300
C300
C300
C300
C300
C300
C300
FF80
0080
0080
0080
ENDCHAR
STARTCHAR uni0427.c2sc
ENCODING -1
SWIDTH 568 0
DWIDTH 9 0
BBX 8 9 0 0
BITMAP
C3
C3
C3
63
3F
03
03
03
03
ENDCHAR
STARTCHAR uni0428.c2sc
ENCODING -1
SWIDTH 814 0
DWIDTH 13 0
BBX 11 9 1 0
BITMAP
C460
C460
C460
C460
C460
C460
C460
C460
FFE0
ENDCHAR
STARTCHAR uni0429.c2sc
ENCODING -1
SWIDTH 879 0
DWIDTH 14 0
BBX 13 12 1 -3
BITMAP
C460
C460
C460
C460
C460
C460
C460
C460
FFF8
0018
0010
0010
ENDCHAR
STARTCHAR uni042A.c2sc
ENCODING -1
SWIDTH 668 0
DWIDTH 11 0
BBX 10 9 0 0
BITMAP
F800
1800
1800
1F80
18C0
18C0
18C0
18C0
1F80
ENDCHAR
STARTCHAR uni042B.c2sc
ENCODING -1
SWIDTH 765 0
DWIDTH 12 0
BBX 10 9 1 0
BITMAP
C0C0
C0C0
C0C0
FCC0
C6C0
C6C0
C6C0
C6C0
FCC0
ENDCHAR
STARTCHAR uni042C.c2sc
ENCODING -1
SWIDTH 550 0
DWIDTH 9 0
BBX 7 9 1 0
BITMAP
C0
C0
C0
FC
C6
C6
C6
C6
FC
ENDCHAR
STARTCHAR uni042D.c2sc
ENCODING -1
SWIDTH 562 0
DWIDTH 9 0
BBX 8 9 0 0
BITMAP
3C
63
43
83
1F
03
C3
63
3C
ENDCHAR
STARTCHAR uni042E.c2sc
ENCODING -1
SWIDTH 821 0
DWIDTH 13 0
BBX 11 9 1 0
BITMAP
C780
CC60
C860
D820
F820
D820
C860
CC60
C780
ENDCHAR
STARTCHAR uni042F.c2sc
ENCODING -1
SWIDTH 566 0
DWIDTH 9 0
BBX 8 9 0 0
BITMAP
3F
63
63
63
3F
33
33
63
E3
ENDCHAR
STARTCHAR uni0492.c2sc
ENCODING -1
SWIDTH 516 0
DWIDTH 8 0
BBX 8 9 0 0
BITMAP
3F
30
30
30
F8
30
30
30
30
ENDCHAR
STARTCHAR uni0496.c2sc
ENCODING -1
SWIDTH 821 0
DWIDTH 13 0
BBX 13 12 0 -3
BITMAP
E670
6660
36E0
36C0
1FC0
36C0
3660
6660
E638
0018
0018
0018
ENDCHAR
STARTCHAR uni049A.c2sc
ENCODING -1
SWIDTH 576 0
DWIDTH 9 0
BBX 8 12 1 -3
BITMAP
C6
CC
D8
D8
F0
D8
D8
CC
C7
03
03
03
ENDCHAR
STARTCHAR uni049C.c2sc
ENCODING -1
SWIDTH 637 0
DWIDTH 10 0
BBX 9 9 1 0
BITMAP
C380
C300
F600
FC00
FC00
FC00
F600
C300
C380
ENDCHAR
STARTCHAR uni04A0.c2sc
ENCODING -1
SWIDTH 678 0
DWIDTH 11 0
BBX 11 9 0 0
BITMAP
F8C0
1980
1980
1B00
1E00
1B00
1980
19C0
18E0
ENDCHAR
STARTCHAR uni04A8.c2sc
ENCODING -1
SWIDTH 742 0
DWIDTH 12 0
BBX 10 9 1 0
BITMAP
6780
CCC0
CCC0
C8C0
C8C0
CCC0
CCC0
6780
3FC0
ENDCHAR
STARTCHAR uni04B0.c2sc
ENCODING -1
SWIDTH 543 0
DWIDTH 9 0
BBX 8 9 0 0
BITMAP
C3
63
66
34
1C
3E
18
18
18
ENDCHAR
STARTCHAR uni04B2.c2sc
ENCODING -1
SWIDTH 595 0
DWIDTH 10 0
BBX 9 12 0 -3
BITMAP
E380
7700
3600
1C00
1C00
1C00
3600
7200
6380
8080
0080
0080
ENDCHAR
STARTCHAR uni04B4.c2sc
ENCODING -1
SWIDTH 822 0
DWIDTH 13 0
BBX 12 12 0 -3
BITMAP
FE60
1860
1860
1860
1860
1860
1860
1860
1FF0
0030
0030
0030
ENDCHAR
STARTCHAR uni04B8.c2sc
ENCODING -1
SWIDTH 568 0
DWIDTH 9 0
BBX 8 9 0 0
BITMAP
C3
C3
CB
6B
3F
0B
0B
03
03
ENDCHAR
STARTCHAR uni04BA.c2sc
ENCODING -1
SWIDTH 568 0
DWIDTH 9 0
BBX 8 9 1 0
BITMAP
C0
C0
C0
FC
C6
C2
C3
C3
C3
ENDCHAR
STARTCHAR uni04BC.c2sc
ENCODING -1
SWIDTH 749 0
DWIDTH 12 0
BBX 11 9 0 0
BITMAP
07C0
0C60
D860
D860
7FE0
1800
1800
0C00
07C0
ENDCHAR
STARTCHAR uni04D8.c2sc
ENCODING -1
SWIDTH 602 0
DWIDTH 10 0
BBX 8 9 1 0
BITMAP
7C
06
03
03
FF
C3
C3
C6
3C
ENDCHAR
STARTCHAR uni04E0.c2sc
ENCODING -1
SWIDTH 534 0
DWIDTH 9 0
BBX 7 9 1 0
BITMAP
FE
0C
18
38
06
06
C6
C6
7C
ENDCHAR
STARTCHAR uni04E8.c2sc
ENCODING -1
SWIDTH 593 0
DWIDTH 10 0
BBX 8 9 1 0
BITMAP
3C
66
C3
C3
FF
C3
C3
66
3C
ENDCHAR
STARTCHAR lira.c2sc
ENCODING -1
SWIDTH 549 0
DWIDTH 9 0
BBX 7 9 1 0
BITMAP
3C
66
60
FC
60
FC
40
C0
FE
ENDCHAR
STARTCHAR Euro.c2sc
ENCODING -1
SWIDTH 495 0
DWIDTH 8 0
BBX 6 9 1 0
BITMAP
3C
60
60
FC
60
FC
60
60
3C
ENDCHAR
STARTCHAR uni2116.c2sc
ENCODING -1
SWIDTH 1026 0
DWIDTH 16 0
BBX 14 9 1 0
BITMAP
C338
E364
E344
F344
DB64
DB38
CF00
C77C
C700
ENDCHAR
STARTCHAR uni20BD.c2sc
ENCODING -1
SWIDTH 614 0
DWIDTH 10 0
BBX 9 9 0 0
BITMAP
3F00
3180
3080
3180
FF00
3000
FC00
3000
3000
ENDCHAR
STARTCHAR three.dnom
ENCODING -1
SWIDTH 370 0
DWIDTH 6 0
BBX 5 6 0 0
BITMAP
78
08
30
08
C8
78
ENDCHAR
STARTCHAR four.dnom
ENCODING -1
SWIDTH 370 0
DWIDTH 6 0
BBX 5 6 0 0
BITMAP
18
38
38
58
F8
18
ENDCHAR
STARTCHAR five.dnom
ENCODING -1
SWIDTH 370 0
DWIDTH 6 0
BBX 4 6 1 0
BITMAP
F0
80
F0
10
90
F0
ENDCHAR
STARTCHAR six.dnom
ENCODING -1
SWIDTH 370 0
DWIDTH 6 0
BBX 4 6 1 0
BITMAP
60
C0
F0
90
90
F0
ENDCHAR
STARTCHAR seven.dnom
ENCODING -1
SWIDTH 370 0
DWIDTH 6 0
BBX 5 6 0 0
BITMAP
F8
08
10
10
20
60
ENDCHAR
STARTCHAR eight.dnom
ENCODING -1
SWIDTH 370 0
DWIDTH 6 0
BBX 4 6 1 0
BITMAP
F0
90
60
90
90
F0
ENDCHAR
STARTCHAR nine.dnom
ENCODING -1
SWIDTH 370 0
DWIDTH 6 0
BBX 4 6 1 0
BITMAP
F0
90
90
F0
30
60
ENDCHAR
STARTCHAR glyph550
ENCODING -1
SWIDTH 465 0
DWIDTH 7 0
BBX 5 1 1 5
BITMAP
F8
ENDCHAR
STARTCHAR glyph551
ENCODING -1
SWIDTH 336 0
DWIDTH 5 0
BBX 4 5 1 9
BITMAP
30
60
60
A0
60
ENDCHAR
STARTCHAR E.c2sc
ENCODING -1
SWIDTH 484 0
DWIDTH 8 0
BBX 6 9 1 0
BITMAP
FC
C0
C0
C0
FC
C0
C0
C0
FC
ENDCHAR
STARTCHAR g.ss01
ENCODING -1
SWIDTH 528 0
DWIDTH 8 0
BBX 8 12 0 -3
BITMAP
3F
66
C6
C6
66
3C
40
7E
C3
C3
C6
7C
ENDCHAR
STARTCHAR alpha.ss02
ENCODING -1
SWIDTH 591 0
DWIDTH 9 0
BBX 9 9 0 0
BITMAP
3D00
6500
6300
4300
C300
C300
6300
6500
3D80
ENDCHAR
STARTCHAR R.ss03
ENCODING -1
SWIDTH 658 0
DWIDTH 11 0
BBX 9 12 1 0
BITMAP
FE00
C300
C180
C180
C300
FE00
C300
C100
C180
C180
C180
C180
ENDCHAR
STARTCHAR K.ss04
ENCODING -1
SWIDTH 644 0
DWIDTH 10 0
BBX 9 12 1 0
BITMAP
C380
C300
C600
CC00
CC00
F800
CC00
CC00
C600
C300
C300
C180
ENDCHAR
STARTCHAR k.ss04
ENCODING -1
SWIDTH 523 0
DWIDTH 8 0
BBX 7 12 1 0
BITMAP
C0
C0
C0
CE
CC
D8
F0
D8
C8
CC
CE
C6
ENDCHAR
STARTCHAR K.ss05
ENCODING -1
SWIDTH 652 0
DWIDTH 10 0
BBX 9 12 1 0
BITMAP
C380
C700
CE00
CC00
D800
F000
F800
D800
CC00
C600
C700
C380
ENDCHAR
STARTCHAR k.ss05
ENCODING -1
SWIDTH 521 0
DWIDTH 8 0
BBX 7 12 1 0
BITMAP
C0
C0
C0
CE
DC
D8
F0
F0
F8
D8
CC
C6
ENDCHAR
STARTCHAR D.c2sc
ENCODING -1
SWIDTH 559 0
DWIDTH 9 0
BBX 7 9 1 0
BITMAP
F8
C4
C6
C6
C6
C6
C6
CC
F8
ENDCHAR
STARTCHAR C.c2sc
ENCODING -1
SWIDTH 562 0
DWIDTH 9 0
BBX 8 9 1 0
BITMAP
3C
C6
C2
C1
C0
C0
C3
C6
7C
ENDCHAR
STARTCHAR B.c2sc
ENCODING -1
SWIDTH 546 0
DWIDTH 9 0
BBX 7 9 1 0
BITMAP
FC
C6
C6
C6
FC
C6
C6
C6
FC
ENDCHAR
STARTCHAR A.c2sc
ENCODING -1
SWIDTH 577 0
DWIDTH 9 0
BBX 9 9 0 0
BITMAP
0C00
1C00
1E00
3600
3600
2300
7F00
6180
C180
ENDCHAR
STARTCHAR glyph564
ENCODING -1
SWIDTH 252 0
DWIDTH 4 0
BBX 2 4 1 8
BITMAP
40
C0
C0
C0
ENDCHAR
STARTCHAR glyph565
ENCODING -1
SWIDTH 453 0
DWIDTH 7 0
BBX 5 4 1 10
BITMAP
60
20
98
70
ENDCHAR
STARTCHAR glyph566
ENCODING -1
SWIDTH 0 0
DWIDTH 0 0
BBX 5 5 -7 10
BITMAP
10
20
00
48
B0
ENDCHAR
STARTCHAR glyph567
ENCODING -1
SWIDTH 505 0
DWIDTH 8 0
BBX 8 3 1 10
BITMAP
03
76
CC
ENDCHAR
STARTCHAR glyph568
ENCODING -1
SWIDTH 505 0
DWIDTH 8 0
BBX 8 3 -1 10
BITMAP
C0
7C
33
ENDCHAR
STARTCHAR glyph569
ENCODING -1
SWIDTH 505 0
DWIDTH 8 0
BBX 7 4 1 10
BITMAP
06
02
74
CC
ENDCHAR
STARTCHAR glyph570
ENCODING -1
SWIDTH 505 0
DWIDTH 8 0
BBX 6 5 1 10
BITMAP
68
50
00
70
CC
ENDCHAR
STARTCHAR uni0490.c2sc
ENCODING -1
SWIDTH 465 0
DWIDTH 7 0
BBX 6 11 1 0
BITMAP
0C
0C
FC
C0
C0
C0
C0
C0
C0
C0
C0
ENDCHAR
STARTCHAR glyph572
ENCODING -1
SWIDTH 453 0
DWIDTH 7 0
BBX 5 4 1 10
BITMAP
10
20
98
70
ENDCHAR
STARTCHAR glyph573
ENCODING -1
SWIDTH 453 0
DWIDTH 7 0
BBX 5 5 1 10
BITMAP
30
10
20
98
70
ENDCHAR
STARTCHAR zero.numr
ENCODING -1
SWIDTH 370 0
DWIDTH 6 0
BBX 4 6 1 6
BITMAP
F0
90
90
90
90
F0
ENDCHAR
STARTCHAR four.numr
ENCODING -1
SWIDTH 370 0
DWIDTH 6 0
BBX 5 6 0 6
BITMAP
18
38
38
58
F8
18
ENDCHAR
STARTCHAR five.numr
ENCODING -1
SWIDTH 370 0
DWIDTH 6 0
BBX 4 6 1 6
BITMAP
F0
80
F0
10
90
F0
ENDCHAR
STARTCHAR six.numr
ENCODING -1
SWIDTH 370 0
DWIDTH 6 0
BBX 4 6 1 6
BITMAP
60
C0
F0
90
90
F0
ENDCHAR
STARTCHAR seven.numr
ENCODING -1
SWIDTH 370 0
DWIDTH 6 0
BBX 5 6 0 6
BITMAP
F8
08
10
10
20
60
ENDCHAR
STARTCHAR eight.numr
ENCODING -1
SWIDTH 370 0
DWIDTH 6 0
BBX 4 6 1 6
BITMAP
F0
90
60
90
90
F0
ENDCHAR
STARTCHAR nine.numr
ENCODING -1
SWIDTH 370 0
DWIDTH 6 0
BBX 4 6 1 6
BITMAP
F0
90
90
F0
30
60
ENDCHAR
STARTCHAR C.ss06
ENCODING -1
SWIDTH 684 0
DWIDTH 11 0
BBX 9 12 1 0
BITMAP
1E00
6380
6180
C000
C000
C000
C000
C000
C000
6180
6180
1F00
ENDCHAR
STARTCHAR G.ss06
ENCODING -1
SWIDTH 704 0
DWIDTH 11 0
BBX 9 12 1 0
BITMAP
3E00
6380
C180
C000
C000
C000
C780
C180
C180
4180
6180
1F00
ENDCHAR
STARTCHAR D.ss06
ENCODING -1
SWIDTH 690 0
DWIDTH 11 0
BBX 9 12 1 0
BITMAP
FC00
C600
C300
C180
C180
C180
C180
C180
C180
C300
C700
FC00
ENDCHAR
STARTCHAR O.ss06
ENCODING -1
SWIDTH 734 0
DWIDTH 12 0
BBX 10 12 1 0
BITMAP
1E00
3300
6180
C0C0
C0C0
C0C0
C0C0
C0C0
C0C0
6180
3300
1E00
ENDCHAR
STARTCHAR Q.ss06
ENCODING -1
SWIDTH 735 0
DWIDTH 12 0
BBX 10 14 1 -2
BITMAP
1E00
3300
6180
C0C0
C0C0
C0C0
C0C0
C0C0
C0C0
6180
3300
1F00
0180
00C0
ENDCHAR
STARTCHAR one.oldstyle.pnum
ENCODING -1
SWIDTH 513 0
DWIDTH 8 0
BBX 5 9 1 0
BITMAP
08
78
D8
18
18
18
18
18
18
ENDCHAR
STARTCHAR two.oldstyle.pnum
ENCODING -1
SWIDTH 563 0
DWIDTH 9 0
BBX 7 9 1 0
BITMAP
7C
C6
C6
06
0C
18
30
60
FE
ENDCHAR
STARTCHAR three.oldstyle.pnum
ENCODING -1
SWIDTH 542 0
DWIDTH 9 0
BBX 8 12 0 -3
BITMAP
7F
06
0C
18
1C
06
03
03
03
03
86
FC
ENDCHAR
STARTCHAR four.oldstyle.pnum
ENCODING -1
SWIDTH 592 0
DWIDTH 9 0
BBX 9 11 0 -2
BITMAP
0700
0700
0F00
1B00
1B00
3300
2300
6300
FF80
0300
0300
ENDCHAR
STARTCHAR five.oldstyle.pnum
ENCODING -1
SWIDTH 552 0
DWIDTH 9 0
BBX 7 12 1 -3
BITMAP
7E
40
40
C0
FC
C6
06
06
06
06
8C
F8
ENDCHAR
STARTCHAR seven.oldstyle.pnum
ENCODING -1
SWIDTH 522 0
DWIDTH 8 0
BBX 7 11 1 -2
BITMAP
FE
06
0C
0C
08
18
18
30
30
60
60
ENDCHAR
STARTCHAR glyph592
ENCODING -1
SWIDTH 453 0
DWIDTH 7 0
BBX 5 5 1 10
BITMAP
48
B0
00
98
70
ENDCHAR
STARTCHAR glyph593
ENCODING -1
SWIDTH 212 0
DWIDTH 3 0
BBX 2 4 1 -3
BITMAP
C0
C0
C0
C0
ENDCHAR
STARTCHAR OE.c2sc
ENCODING -1
SWIDTH 824 0
DWIDTH 13 0
BBX 12 9 1 0
BITMAP
3FF0
C600
C600
8600
87E0
8600
C600
C600
3FF0
ENDCHAR
STARTCHAR nine.oldstyle.pnum
ENCODING -1
SWIDTH 587 0
DWIDTH 9 0
BBX 7 12 1 -3
BITMAP
78
C6
C6
C2
C2
C6
7E
06
06
06
0C
78
ENDCHAR
STARTCHAR glyph596
ENCODING -1
SWIDTH 257 0
DWIDTH 4 0
BBX 4 5 -1 -3
BITMAP
30
30
30
30
E0
ENDCHAR
STARTCHAR three.oldstyle
ENCODING -1
SWIDTH 568 0
DWIDTH 9 0
BBX 7 12 1 -3
BITMAP
FE
0C
0C
18
3C
06
06
06
06
06
8C
F8
ENDCHAR
STARTCHAR five.oldstyle
ENCODING -1
SWIDTH 568 0
DWIDTH 9 0
BBX 7 12 1 -3
BITMAP
7E
40
40
C0
FC
C6
06
06
06
06
8E
F8
ENDCHAR
STARTCHAR four.oldstyle
ENCODING -1
SWIDTH 568 0
DWIDTH 9 0
BBX 9 11 0 -2
BITMAP
0700
0700
0F00
1B00
1B00
3300
6300
6300
FF80
0300
0300
ENDCHAR
STARTCHAR two.oldstyle
ENCODING -1
SWIDTH 568 0
DWIDTH 9 0
BBX 7 9 1 0
BITMAP
7C
C6
C6
06
0C
18
30
60
FE
ENDCHAR
STARTCHAR seven.oldstyle
ENCODING -1
SWIDTH 568 0
DWIDTH 9 0
BBX 7 11 1 -2
BITMAP
FE
06
06
0C
0C
18
18
30
30
20
60
ENDCHAR
STARTCHAR zero.oldstyle
ENCODING -1
SWIDTH 568 0
DWIDTH 9 0
BBX 9 9 0 0
BITMAP
3E00
6300
6100
4180
C180
4180
6100
6300
1E00
ENDCHAR
STARTCHAR six.oldstyle
ENCODING -1
SWIDTH 568 0
DWIDTH 9 0
BBX 7 12 1 0
BITMAP
1C
30
60
C0
FC
C6
C6
C6
C6
C6
66
3C
ENDCHAR
STARTCHAR nine.oldstyle
ENCODING -1
SWIDTH 568 0
DWIDTH 9 0
BBX 8 12 0 -3
BITMAP
3C
62
63
C3
63
63
3F
03
03
07
06
7C
ENDCHAR
STARTCHAR eight.oldstyle
ENCODING -1
SWIDTH 568 0
DWIDTH 9 0
BBX 7 12 1 0
BITMAP
7C
C6
C6
C6
C6
38
C6
C6
C6
C6
C6
7C
ENDCHAR
STARTCHAR one.oldstyle
ENCODING -1
SWIDTH 568 0
DWIDTH 9 0
BBX 4 9 2 0
BITMAP
10
70
90
10
10
10
10
10
10
ENDCHAR
STARTCHAR glyph607
ENCODING -1
SWIDTH 268 0
DWIDTH 4 0
BBX 4 12 -1 -3
BITMAP
30
30
30
30
30
30
30
30
30
30
30
E0
ENDCHAR
STARTCHAR glyph608
ENCODING -1
SWIDTH 268 0
DWIDTH 4 0
BBX 4 12 -1 -3
BITMAP
30
30
30
30
30
30
30
30
30
30
30
E0
ENDCHAR
STARTCHAR glyph609
ENCODING -1
SWIDTH 263 0
DWIDTH 4 0
BBX 2 9 1 0
BITMAP
C0
C0
C0
C0
C0
C0
C0
C0
C0
ENDCHAR
STARTCHAR glyph610
ENCODING -1
SWIDTH 263 0
DWIDTH 4 0
BBX 3 12 0 -3
BITMAP
60
60
60
60
60
60
60
60
60
40
C0
E0
ENDCHAR
STARTCHAR glyph611
ENCODING -1
SWIDTH 263 0
DWIDTH 4 0
BBX 2 9 1 0
BITMAP
C0
C0
C0
C0
C0
C0
C0
C0
C0
ENDCHAR
STARTCHAR germandbls.sc
ENCODING -1
SWIDTH 546 0
DWIDTH 9 0
BBX 7 9 1 0
BITMAP
78
CE
CC
D8
DC
C6
C6
C6
FC
ENDCHAR
STARTCHAR zero.oldstyle.pnum
ENCODING -1
SWIDTH 614 0
DWIDTH 10 0
BBX 8 9 1 0
BITMAP
3C
66
C3
C3
C3
C3
C3
66
3C
ENDCHAR
STARTCHAR seven.pnum
ENCODING -1
SWIDTH 524 0
DWIDTH 8 0
BBX 8 12 0 0
BITMAP
FF
03
06
06
04
0C
0C
18
18
10
30
30
ENDCHAR
STARTCHAR b.ss06
ENCODING -1
SWIDTH 566 0
DWIDTH 9 0
BBX 8 12 1 0
BITMAP
C0
C0
C0
FC
C6
C6
C2
C3
C2
C6
C6
FC
ENDCHAR
STARTCHAR c.ss06
ENCODING -1
SWIDTH 529 0
DWIDTH 8 0
BBX 8 9 0 0
BITMAP
3C
66
43
C0
C0
C0
43
66
3C
ENDCHAR
STARTCHAR d.ss06
ENCODING -1
SWIDTH 574 0
DWIDTH 9 0
BBX 7 12 1 0
BITMAP
06
06
06
7E
C6
C6
86
86
86
C6
C6
7E
ENDCHAR
STARTCHAR g.ss06
ENCODING -1
SWIDTH 571 0
DWIDTH 9 0
BBX 7 12 1 -3
BITMAP
7E
C6
C6
C6
86
86
C6
C6
7E
06
84
78
ENDCHAR
STARTCHAR o.ss06
ENCODING -1
SWIDTH 578 0
DWIDTH 9 0
BBX 9 9 0 0
BITMAP
3C00
6300
6300
4100
C180
4100
6300
6300
3E00
ENDCHAR
STARTCHAR p.ss06
ENCODING -1
SWIDTH 572 0
DWIDTH 9 0
BBX 7 12 1 -3
BITMAP
FC
C6
C6
C2
C2
C6
C6
C6
FC
C0
C0
C0
ENDCHAR
STARTCHAR q.ss06
ENCODING -1
SWIDTH 577 0
DWIDTH 9 0
BBX 8 12 0 -3
BITMAP
3F
63
63
43
C3
43
63
63
3F
03
03
03
ENDCHAR
STARTCHAR e.ss07
ENCODING -1
SWIDTH 536 0
DWIDTH 9 0
BBX 7 9 1 0
BITMAP
3C
66
C6
C6
FE
C0
C0
62
3E
ENDCHAR
STARTCHAR g.ss07
ENCODING -1
SWIDTH 566 0
DWIDTH 9 0
BBX 7 12 1 -3
BITMAP
7E
C6
C6
C6
86
C6
C6
C6
7E
06
8C
78
ENDCHAR
STARTCHAR one.pnum
ENCODING -1
SWIDTH 455 0
DWIDTH 7 0
BBX 4 12 1 0
BITMAP
10
70
B0
30
30
30
30
30
30
30
30
30
ENDCHAR
STARTCHAR ampersand.c2sc
ENCODING -1
SWIDTH 626 0
DWIDTH 10 0
BBX 8 9 1 0
BITMAP
78
4C
CC
78
73
DB
CE
FE
7F
ENDCHAR
STARTCHAR Lslash.c2sc
ENCODING -1
SWIDTH 470 0
DWIDTH 8 0
BBX 7 9 0 0
BITMAP
60
60
60
78
E0
60
60
60
7E
ENDCHAR
STARTCHAR AE.c2sc
ENCODING -1
SWIDTH 784 0
DWIDTH 13 0
BBX 12 9 0 0
BITMAP
07F0
0F00
0B00
1BE0
1300
3F00
6300
6300
C3F0
ENDCHAR
STARTCHAR Thorn.c2sc
ENCODING -1
SWIDTH 504 0
DWIDTH 8 0
BBX 7 9 1 0
BITMAP
C0
F8
CC
C6
C6
CC
F8
C0
C0
ENDCHAR
STARTCHAR Oslash.c2sc
ENCODING -1
SWIDTH 593 0
DWIDTH 10 0
BBX 8 9 1 0
BITMAP
3F
66
C7
CB
DB
D3
E3
66
FC
ENDCHAR
STARTCHAR Hbar.c2sc
ENCODING -1
SWIDTH 629 0
DWIDTH 10 0
BBX 10 9 0 0
BITMAP
6180
FFC0
6180
6180
7F80
6180
6180
6180
6180
ENDCHAR
STARTCHAR Eng.c2sc
ENCODING -1
SWIDTH 607 0
DWIDTH 10 0
BBX 8 12 1 -3
BITMAP
C3
E3
F3
F3
DB
CF
CF
C7
C3
03
03
0E
ENDCHAR
STARTCHAR Dcroat.c2sc
ENCODING -1
SWIDTH 559 0
DWIDTH 9 0
BBX 9 9 -1 0
BITMAP
3E00
3100
3180
3180
FD80
3180
3180
3300
3E00
ENDCHAR
STARTCHAR Eth.c2sc
ENCODING -1
SWIDTH 559 0
DWIDTH 9 0
BBX 9 9 -1 0
BITMAP
3E00
3100
3180
3180
FD80
3180
3180
3300
3E00
ENDCHAR
STARTCHAR Tbar.c2sc
ENCODING -1
SWIDTH 528 0
DWIDTH 8 0
BBX 8 9 0 0
BITMAP
FF
18
18
18
3E
18
18
18
18
ENDCHAR
STARTCHAR Agrave.c2sc
ENCODING -1
SWIDTH 577 0
DWIDTH 9 0
BBX 9 12 0 0
BITMAP
3800
0C00
0000
0C00
1C00
1E00
3600
3600
2300
7F00
6180
C180
ENDCHAR
STARTCHAR Aacute.c2sc
ENCODING -1
SWIDTH 577 0
DWIDTH 9 0
BBX 9 12 0 0
BITMAP
0600
0C00
0000
0C00
1C00
1E00
3600
3600
2300
7F00
6180
C180
ENDCHAR
STARTCHAR Acircumflex.c2sc
ENCODING -1
SWIDTH 577 0
DWIDTH 9 0
BBX 9 12 0 0
BITMAP
1C00
3600
0000
0C00
1C00
1E00
3600
3600
2300
7F00
6180
C180
ENDCHAR
STARTCHAR Atilde.c2sc
ENCODING -1
SWIDTH 577 0
DWIDTH 9 0
BBX 9 12 0 0
BITMAP
3B00
2600
0000
0C00
1C00
1E00
3600
3600
2300
7F00
6180
C180
ENDCHAR
STARTCHAR Adieresis.c2sc
ENCODING -1
SWIDTH 577 0
DWIDTH 9 0
BBX 9 12 0 0
BITMAP
3200
3600
0000
0C00
1C00
1E00
3600
3600
2300
7F00
6180
C180
ENDCHAR
STARTCHAR Aring.c2sc
ENCODING -1
SWIDTH 577 0
DWIDTH 9 0
BBX 9 13 0 0
BITMAP
1C00
1400
1C00
0000
0C00
1C00
1E00
3600
3600
2300
7F00
6180
C180
ENDCHAR
STARTCHAR Aringacute.c2sc
ENCODING -1
SWIDTH 577 0
DWIDTH 9 0
BBX 9 14 0 0
BITMAP
0600
0C00
0C00
1400
0C00
0C00
1C00
1E00
3600
3600
2300
7F00
6180
C180
ENDCHAR
STARTCHAR Ccedilla.c2sc
ENCODING -1
SWIDTH 562 0
DWIDTH 9 0
BBX 8 13 1 -4
BITMAP
3C
C6
C2
C1
C0
C0
C3
C6
7C
10
18
08
18
ENDCHAR
STARTCHAR Egrave.c2sc
ENCODING -1
SWIDTH 484 0
DWIDTH 8 0
BBX 6 12 1 0
BITMAP
60
30
00
FC
C0
C0
C0
FC
C0
C0
C0
FC
ENDCHAR
STARTCHAR Eacute.c2sc
ENCODING -1
SWIDTH 484 0
DWIDTH 8 0
BBX 6 12 1 0
BITMAP
1C
30
00
FC
C0
C0
C0
FC
C0
C0
C0
FC
ENDCHAR
STARTCHAR Ecircumflex.c2sc
ENCODING -1
SWIDTH 484 0
DWIDTH 8 0
BBX 6 12 1 0
BITMAP
38
6C
00
FC
C0
C0
C0
FC
C0
C0
C0
FC
ENDCHAR
STARTCHAR Edieresis.c2sc
ENCODING -1
SWIDTH 484 0
DWIDTH 8 0
BBX 6 12 1 0
BITMAP
4C
CC
00
FC
C0
C0
C0
FC
C0
C0
C0
FC
ENDCHAR
STARTCHAR Igrave.c2sc
ENCODING -1
SWIDTH 248 0
DWIDTH 4 0
BBX 4 12 -1 0
BITMAP
E0
30
00
30
30
30
30
30
30
30
30
30
ENDCHAR
STARTCHAR Iacute.c2sc
ENCODING -1
SWIDTH 248 0
DWIDTH 4 0
BBX 4 12 1 0
BITMAP
70
C0
00
C0
C0
C0
C0
C0
C0
C0
C0
C0
ENDCHAR
STARTCHAR Icircumflex.c2sc
ENCODING -1
SWIDTH 248 0
DWIDTH 4 0
BBX 6 12 -1 0
BITMAP
30
CC
00
30
30
30
30
30
30
30
30
30
ENDCHAR
STARTCHAR Idieresis.c2sc
ENCODING -1
SWIDTH 248 0
DWIDTH 4 0
BBX 6 12 -1 0
BITMAP
CC
CC
00
30
30
30
30
30
30
30
30
30
ENDCHAR
STARTCHAR Ntilde.c2sc
ENCODING -1
SWIDTH 607 0
DWIDTH 10 0
BBX 8 12 1 0
BITMAP
36
4C
00
C3
E3
E3
F3
DB
CB
CF
C7
C3
ENDCHAR
STARTCHAR Ograve.c2sc
ENCODING -1
SWIDTH 593 0
DWIDTH 10 0
BBX 8 12 1 0
BITMAP
70
18
00
3C
66
C3
C3
C3
C3
C3
66
3C
ENDCHAR
STARTCHAR Oacute.c2sc
ENCODING -1
SWIDTH 593 0
DWIDTH 10 0
BBX 8 12 1 0
BITMAP
0C
18
00
3C
66
C3
C3
C3
C3
C3
66
3C
ENDCHAR
STARTCHAR Ocircumflex.c2sc
ENCODING -1
SWIDTH 593 0
DWIDTH 10 0
BBX 8 12 1 0
BITMAP
38
6C
00
3C
66
C3
C3
C3
C3
C3
66
3C
ENDCHAR
STARTCHAR Otilde.c2sc
ENCODING -1
SWIDTH 593 0
DWIDTH 10 0
BBX 8 12 1 0
BITMAP
76
4C
00
3C
66
C3
C3
C3
C3
C3
66
3C
ENDCHAR
STARTCHAR Odieresis.c2sc
ENCODING -1
SWIDTH 593 0
DWIDTH 10 0
BBX 8 12 1 0
BITMAP
64
66
00
3C
66
C3
C3
C3
C3
C3
66
3C
ENDCHAR
STARTCHAR Ugrave.c2sc
ENCODING -1
SWIDTH 564 0
DWIDTH 9 0
BBX 7 12 1 0
BITMAP
60
38
00
C6
C6
C6
C6
C6
C6
C6
C6
7C
ENDCHAR
STARTCHAR Uacute.c2sc
ENCODING -1
SWIDTH 564 0
DWIDTH 9 0
BBX 7 12 1 0
BITMAP
0C
18
00
C6
C6
C6
C6
C6
C6
C6
C6
7C
ENDCHAR
STARTCHAR Ucircumflex.c2sc
ENCODING -1
SWIDTH 564 0
DWIDTH 9 0
BBX 7 12 1 0
BITMAP
38
6C
00
C6
C6
C6
C6
C6
C6
C6
C6
7C
ENDCHAR
STARTCHAR Udieresis.c2sc
ENCODING -1
SWIDTH 564 0
DWIDTH 9 0
BBX 7 12 1 0
BITMAP
6C
6C
00
C6
C6
C6
C6
C6
C6
C6
C6
7C
ENDCHAR
STARTCHAR Yacute.c2sc
ENCODING -1
SWIDTH 529 0
DWIDTH 8 0
BBX 8 12 0 0
BITMAP
0E
18
00
C3
63
66
34
1C
18
18
18
18
ENDCHAR
STARTCHAR Amacron.c2sc
ENCODING -1
SWIDTH 577 0
DWIDTH 9 0
BBX 9 11 0 0
BITMAP
3E00
0000
0C00
1C00
1E00
3600
3600
2300
7F00
6180
C180
ENDCHAR
STARTCHAR Abreve.c2sc
ENCODING -1
SWIDTH 577 0
DWIDTH 9 0
BBX 9 12 0 0
BITMAP
3200
1C00
0000
0C00
1C00
1E00
3600
3600
2300
7F00
6180
C180
ENDCHAR
STARTCHAR Aogonek.c2sc
ENCODING -1
SWIDTH 577 0
DWIDTH 9 0
BBX 9 12 0 -3
BITMAP
1C00
1C00
1400
3600
3600
6300
7F00
4100
C180
0300
0200
0380
ENDCHAR
STARTCHAR Cacute.c2sc
ENCODING -1
SWIDTH 562 0
DWIDTH 9 0
BBX 8 12 1 0
BITMAP
0C
18
00
3C
C6
C2
C1
C0
C0
C3
C6
7C
ENDCHAR
STARTCHAR Ccircumflex.c2sc
ENCODING -1
SWIDTH 562 0
DWIDTH 9 0
BBX 8 12 1 0
BITMAP
38
6C
00
3C
C6
C2
C1
C0
C0
C3
C6
7C
ENDCHAR
STARTCHAR Cdotaccent.c2sc
ENCODING -1
SWIDTH 562 0
DWIDTH 9 0
BBX 8 12 1 0
BITMAP
10
18
00
3C
C6
C2
C1
C0
C0
C3
C6
7C
ENDCHAR
STARTCHAR Ccaron.c2sc
ENCODING -1
SWIDTH 562 0
DWIDTH 9 0
BBX 8 12 1 0
BITMAP
6C
38
00
3C
C6
C2
C1
C0
C0
C3
C6
7C
ENDCHAR
STARTCHAR Dcaron.c2sc
ENCODING -1
SWIDTH 559 0
DWIDTH 9 0
BBX 7 12 1 0
BITMAP
D8
70
00
F8
C4
C6
C6
C6
C6
C6
CC
F8
ENDCHAR
STARTCHAR Emacron.c2sc
ENCODING -1
SWIDTH 484 0
DWIDTH 8 0
BBX 6 11 1 0
BITMAP
7C
00
FC
C0
C0
C0
FC
C0
C0
C0
FC
ENDCHAR
STARTCHAR Ebreve.c2sc
ENCODING -1
SWIDTH 484 0
DWIDTH 8 0
BBX 6 12 1 0
BITMAP
4C
38
00
FC
C0
C0
C0
FC
C0
C0
C0
FC
ENDCHAR
STARTCHAR Edotaccent.c2sc
ENCODING -1
SWIDTH 484 0
DWIDTH 8 0
BBX 6 12 1 0
BITMAP
30
30
00
FC
C0
C0
C0
FC
C0
C0
C0
FC
ENDCHAR
STARTCHAR Eogonek.c2sc
ENCODING -1
SWIDTH 484 0
DWIDTH 8 0
BBX 7 12 1 -3
BITMAP
FE
C0
C0
C0
FC
C0
C0
C0
FE
18
18
1C
ENDCHAR
STARTCHAR Ecaron.c2sc
ENCODING -1
SWIDTH 484 0
DWIDTH 8 0
BBX 6 12 1 0
BITMAP
EC
30
00
FC
C0
C0
C0
FC
C0
C0
C0
FC
ENDCHAR
STARTCHAR Gcircumflex.c2sc
ENCODING -1
SWIDTH 581 0
DWIDTH 9 0
BBX 8 12 0 0
BITMAP
1C
36
00
3E
63
63
40
C7
41
61
63
3E
ENDCHAR
STARTCHAR Gbreve.c2sc
ENCODING -1
SWIDTH 581 0
DWIDTH 9 0
BBX 8 12 0 0
BITMAP
32
1C
00
3E
63
63
40
C7
41
61
63
3E
ENDCHAR
STARTCHAR Gdotaccent.c2sc
ENCODING -1
SWIDTH 581 0
DWIDTH 9 0
BBX 8 12 0 0
BITMAP
08
0C
00
3E
63
63
40
C7
41
61
63
3E
ENDCHAR
STARTCHAR uni0122.c2sc
ENCODING -1
SWIDTH 581 0
DWIDTH 9 0
BBX 8 13 0 -4
BITMAP
3E
63
63
40
C7
41
61
63
3E
00
0C
08
18
ENDCHAR
STARTCHAR Hcircumflex.c2sc
ENCODING -1
SWIDTH 608 0
DWIDTH 10 0
BBX 8 12 1 0
BITMAP
18
6E
00
C3
C3
C3
C3
FF
C3
C3
C3
C3
ENDCHAR
STARTCHAR Itilde.c2sc
ENCODING -1
SWIDTH 248 0
DWIDTH 4 0
BBX 6 12 -1 0
BITMAP
64
98
00
30
30
30
30
30
30
30
30
30
ENDCHAR
STARTCHAR Imacron.c2sc
ENCODING -1
SWIDTH 248 0
DWIDTH 4 0
BBX 6 11 -1 0
BITMAP
FC
00
30
30
30
30
30
30
30
30
30
ENDCHAR
STARTCHAR Ibreve.c2sc
ENCODING -1
SWIDTH 248 0
DWIDTH 4 0
BBX 6 12 -1 0
BITMAP
CC
78
00
30
30
30
30
30
30
30
30
30
ENDCHAR
STARTCHAR Iogonek.c2sc
ENCODING -1
SWIDTH 248 0
DWIDTH 4 0
BBX 3 12 0 -3
BITMAP
60
60
60
60
60
60
60
60
60
40
C0
60
ENDCHAR
STARTCHAR Idotaccent.c2sc
ENCODING -1
SWIDTH 248 0
DWIDTH 4 0
BBX 2 12 1 0
BITMAP
C0
C0
00
C0
C0
C0
C0
C0
C0
C0
C0
C0
ENDCHAR
STARTCHAR Jcircumflex.c2sc
ENCODING -1
SWIDTH 479 0
DWIDTH 8 0
BBX 8 12 0 0
BITMAP
0E
1B
00
06
06
06
06
06
06
C6
66
38
ENDCHAR
STARTCHAR uni0136.c2sc
ENCODING -1
SWIDTH 544 0
DWIDTH 9 0
BBX 8 13 1 -4
BITMAP
C7
CC
D8
F8
F8
F8
CC
CE
C6
01
30
30
20
ENDCHAR
STARTCHAR Lacute.c2sc
ENCODING -1
SWIDTH 465 0
DWIDTH 7 0
BBX 6 12 1 0
BITMAP
70
C0
00
C0
C0
C0
C0
C0
C0
C0
C0
FC
ENDCHAR
STARTCHAR uni013B.c2sc
ENCODING -1
SWIDTH 465 0
DWIDTH 7 0
BBX 6 13 1 -4
BITMAP
C0
C0
C0
C0
C0
C0
C0
C0
FC
00
30
30
20
ENDCHAR
STARTCHAR Lcaron.c2sc
ENCODING -1
SWIDTH 465 0
DWIDTH 7 0
BBX 6 9 1 0
BITMAP
D8
D8
D0
C0
C0
C0
C0
C0
FC
ENDCHAR
STARTCHAR Ldot.c2sc
ENCODING -1
SWIDTH 465 0
DWIDTH 7 0
BBX 6 9 1 0
BITMAP
C0
C0
D8
D8
C0
C0
C0
C0
FC
ENDCHAR
STARTCHAR Nacute.c2sc
ENCODING -1
SWIDTH 607 0
DWIDTH 10 0
BBX 8 12 1 0
BITMAP
0E
18
00
C3
E3
E3
F3
DB
CB
CF
C7
C3
ENDCHAR
STARTCHAR uni0145.c2sc
ENCODING -1
SWIDTH 607 0
DWIDTH 10 0
BBX 8 13 1 -4
BITMAP
C3
E3
E3
F3
DB
CB
CF
C7
C3
00
18
10
30
ENDCHAR
STARTCHAR Ncaron.c2sc
ENCODING -1
SWIDTH 607 0
DWIDTH 10 0
BBX 8 12 1 0
BITMAP
6E
18
00
C3
E3
E3
F3
DB
CB
CF
C7
C3
ENDCHAR
STARTCHAR Omacron.c2sc
ENCODING -1
SWIDTH 593 0
DWIDTH 10 0
BBX 8 11 1 0
BITMAP
7C
00
3C
66
C3
C3
C3
C3
C3
66
3C
ENDCHAR
STARTCHAR Obreve.c2sc
ENCODING -1
SWIDTH 593 0
DWIDTH 10 0
BBX 8 12 1 0
BITMAP
64
3C
00
3C
66
C3
C3
C3
C3
C3
66
3C
ENDCHAR
STARTCHAR Ohungarumlaut.c2sc
ENCODING -1
SWIDTH 593 0
DWIDTH 10 0
BBX 8 12 1 0
BITMAP
3F
2C
00
3C
66
C3
C3
C3
C3
C3
66
3C
ENDCHAR
STARTCHAR Racute.c2sc
ENCODING -1
SWIDTH 544 0
DWIDTH 9 0
BBX 8 12 1 0
BITMAP
1C
30
00
FC
C6
C6
C6
FC
CC
CC
C6
C7
ENDCHAR
STARTCHAR uni0156.c2sc
ENCODING -1
SWIDTH 544 0
DWIDTH 9 0
BBX 8 13 1 -4
BITMAP
FC
C6
C6
C6
FC
CC
CC
C6
C6
01
30
30
20
ENDCHAR
STARTCHAR Rcaron.c2sc
ENCODING -1
SWIDTH 544 0
DWIDTH 9 0
BBX 8 12 1 0
BITMAP
CC
30
00
FC
C6
C6
C6
FC
CC
CC
C6
C7
ENDCHAR
STARTCHAR Sacute.c2sc
ENCODING -1
SWIDTH 525 0
DWIDTH 8 0
BBX 8 12 0 0
BITMAP
0E
18
00
3C
66
43
60
3C
06
C3
63
3E
ENDCHAR
STARTCHAR Scircumflex.c2sc
ENCODING -1
SWIDTH 525 0
DWIDTH 8 0
BBX 8 12 0 0
BITMAP
1C
36
00
3C
66
43
60
3C
06
C3
63
3E
ENDCHAR
STARTCHAR Scedilla.c2sc
ENCODING -1
SWIDTH 525 0
DWIDTH 8 0
BBX 8 13 0 -4
BITMAP
3C
66
43
60
3C
06
C3
63
3E
08
1C
04
08
ENDCHAR
STARTCHAR Scaron.c2sc
ENCODING -1
SWIDTH 525 0
DWIDTH 8 0
BBX 8 12 0 0
BITMAP
36
18
00
3C
66
43
60
3C
06
C3
63
3E
ENDCHAR
STARTCHAR uni021A.c2sc
ENCODING -1
SWIDTH 528 0
DWIDTH 8 0
BBX 8 13 0 -4
BITMAP
FF
18
18
18
18
18
18
18
18
00
18
18
10
ENDCHAR
STARTCHAR Tcaron.c2sc
ENCODING -1
SWIDTH 528 0
DWIDTH 8 0
BBX 8 12 0 0
BITMAP
76
18
00
FF
18
18
18
18
18
18
18
18
ENDCHAR
STARTCHAR uni0162.c2sc
ENCODING -1
SWIDTH 528 0
DWIDTH 8 0
BBX 8 13 0 -4
BITMAP
FF
18
18
18
18
18
18
18
18
18
0C
0C
18
ENDCHAR
STARTCHAR Utilde.c2sc
ENCODING -1
SWIDTH 564 0
DWIDTH 9 0
BBX 7 12 1 0
BITMAP
64
5C
00
C6
C6
C6
C6
C6
C6
C6
C6
7C
ENDCHAR
STARTCHAR Umacron.c2sc
ENCODING -1
SWIDTH 564 0
DWIDTH 9 0
BBX 7 11 1 0
BITMAP
7C
00
C6
C6
C6
C6
C6
C6
C6
C6
7C
ENDCHAR
STARTCHAR Ubreve.c2sc
ENCODING -1
SWIDTH 564 0
DWIDTH 9 0
BBX 7 12 1 0
BITMAP
6C
38
00
C6
C6
C6
C6
C6
C6
C6
C6
7C
ENDCHAR
STARTCHAR Uring.c2sc
ENCODING -1
SWIDTH 564 0
DWIDTH 9 0
BBX 7 13 1 0
BITMAP
38
28
38
00
C6
C6
C6
C6
C6
C6
C6
C6
7C
ENDCHAR
STARTCHAR Uhungarumlaut.c2sc
ENCODING -1
SWIDTH 564 0
DWIDTH 9 0
BBX 7 12 1 0
BITMAP
36
6C
00
C6
C6
C6
C6
C6
C6
C6
C6
7C
ENDCHAR
STARTCHAR Uogonek.c2sc
ENCODING -1
SWIDTH 564 0
DWIDTH 9 0
BBX 7 12 1 -3
BITMAP
C6
C6
C6
C6
C6
C6
C6
C6
7C
18
10
1C
ENDCHAR
STARTCHAR Wcircumflex.c2sc
ENCODING -1
SWIDTH 753 0
DWIDTH 12 0
BBX 12 12 0 0
BITMAP
0600
1980
0000
C630
4620
6760
6F60
6D60
2940
39C0
39C0
30C0
ENDCHAR
STARTCHAR Ycircumflex.c2sc
ENCODING -1
SWIDTH 529 0
DWIDTH 8 0
BBX 8 12 0 0
BITMAP
18
36
00
C3
63
66
34
1C
18
18
18
18
ENDCHAR
STARTCHAR Ydieresis.c2sc
ENCODING -1
SWIDTH 529 0
DWIDTH 8 0
BBX 8 12 0 0
BITMAP
26
66
00
C3
63
66
34
1C
18
18
18
18
ENDCHAR
STARTCHAR Zacute.c2sc
ENCODING -1
SWIDTH 520 0
DWIDTH 8 0
BBX 7 12 1 0
BITMAP
1C
30
00
FE
0C
1C
18
30
70
60
C0
FE
ENDCHAR
STARTCHAR Zdotaccent.c2sc
ENCODING -1
SWIDTH 520 0
DWIDTH 8 0
BBX 7 12 1 0
BITMAP
30
30
00
FE
0C
1C
18
30
70
60
C0
FE
ENDCHAR
STARTCHAR Zcaron.c2sc
ENCODING -1
SWIDTH 520 0
DWIDTH 8 0
BBX 7 12 1 0
BITMAP
EC
30
00
FE
0C
1C
18
30
70
60
C0
FE
ENDCHAR
STARTCHAR two.pnum
ENCODING -1
SWIDTH 568 0
DWIDTH 9 0
BBX 7 12 1 0
BITMAP
7C
C6
C6
06
06
0C
1C
18
30
60
E0
FE
ENDCHAR
STARTCHAR three.pnum
ENCODING -1
SWIDTH 568 0
DWIDTH 9 0
BBX 7 12 1 0
BITMAP
7C
C6
C6
06
04
38
06
06
06
86
C6
78
ENDCHAR
STARTCHAR four.pnum
ENCODING -1
SWIDTH 568 0
DWIDTH 9 0
BBX 9 12 0 0
BITMAP
0600
0E00
0E00
1E00
1600
3600
6600
6600
FF80
0600
0600
0600
ENDCHAR
STARTCHAR five.pnum
ENCODING -1
SWIDTH 568 0
DWIDTH 9 0
BBX 7 12 1 0
BITMAP
7E
40
40
40
FC
C6
06
06
06
C6
46
3C
ENDCHAR
STARTCHAR six.pnum
ENCODING -1
SWIDTH 578 0
DWIDTH 9 0
BBX 8 12 1 0
BITMAP
1C
30
60
40
DC
E6
C6
C3
C3
C6
66
3C
ENDCHAR
STARTCHAR eight.pnum
ENCODING -1
SWIDTH 587 0
DWIDTH 9 0
BBX 7 12 1 0
BITMAP
3C
66
C6
C6
66
3C
46
C6
C6
C6
C6
3C
ENDCHAR
STARTCHAR nine.pnum
ENCODING -1
SWIDTH 578 0
DWIDTH 9 0
BBX 7 12 1 0
BITMAP
78
CC
C6
C6
C6
C6
7E
06
06
0C
1C
70
ENDCHAR
STARTCHAR zero.pnum
ENCODING -1
SWIDTH 587 0
DWIDTH 9 0
BBX 7 12 1 0
BITMAP
3C
46
C6
C6
C6
C6
C6
C6
C6
C6
66
3C
ENDCHAR
STARTCHAR G_acutecomb.ccmp
ENCODING -1
SWIDTH 680 0
DWIDTH 11 0
BBX 9 15 1 0
BITMAP
0E00
1800
0000
3E00
6300
C180
C000
C000
C000
C780
C180
C180
4180
6180
3E00
ENDCHAR
STARTCHAR g_acutecomb.ccmp
ENCODING -1
SWIDTH 566 0
DWIDTH 9 0
BBX 7 15 1 -3
BITMAP
1C
30
00
7E
C6
C6
C6
86
C6
C6
C6
7E
06
C4
78
ENDCHAR
STARTCHAR N_gravecomb.ccmp
ENCODING -1
SWIDTH 709 0
DWIDTH 11 0
BBX 9 15 1 0
BITMAP
3800
0C00
0000
C180
E180
E180
F180
F980
D980
CD80
CD80
C780
C780
C380
C180
ENDCHAR
STARTCHAR n_gravecomb.ccmp
ENCODING -1
SWIDTH 556 0
DWIDTH 9 0
BBX 7 12 1 0
BITMAP
60
30
00
DC
E6
C6
C6
C6
C6
C6
C6
C6
ENDCHAR
STARTCHAR A_uni030F.ccmp
ENCODING -1
SWIDTH 665 0
DWIDTH 11 0
BBX 11 15 0 0
BITMAP
7C00
1E00
0000
0C00
0E00
0E00
1A00
1B00
3300
3180
3180
7F80
60C0
60C0
C0E0
ENDCHAR
STARTCHAR a_uni030F.ccmp
ENCODING -1
SWIDTH 541 0
DWIDTH 9 0
BBX 8 12 0 0
BITMAP
F8
3C
00
3E
66
63
03
3F
63
63
67
3B
ENDCHAR
STARTCHAR E_uni030F.ccmp
ENCODING -1
SWIDTH 565 0
DWIDTH 9 0
BBX 8 15 1 0
BITMAP
F8
7C
00
FF
C0
C0
C0
C0
FE
C0
C0
C0
C0
C0
FF
ENDCHAR
STARTCHAR e_uni030F.ccmp
ENCODING -1
SWIDTH 536 0
DWIDTH 9 0
BBX 8 12 0 0
BITMAP
F8
3C
00
1E
33
63
63
7F
60
62
33
1E
ENDCHAR
STARTCHAR I_uni030F.ccmp
ENCODING -1
SWIDTH 282 0
DWIDTH 5 0
BBX 6 15 -2 0
BITMAP
F8
3C
00
18
18
18
18
18
18
18
18
18
18
18
18
ENDCHAR
STARTCHAR dotlessi_uni030F.ccmp
ENCODING -1
SWIDTH 262 0
DWIDTH 4 0
BBX 6 12 -2 0
BITMAP
D8
3C
00
18
18
18
18
18
18
18
18
18
ENDCHAR
STARTCHAR O_uni030F.ccmp
ENCODING -1
SWIDTH 690 0
DWIDTH 11 0
BBX 9 15 1 0
BITMAP
FC00
3600
0000
3E00
6300
C180
C180
C180
C180
C180
C180
C180
C180
6300
3E00
ENDCHAR
STARTCHAR o_uni030F.ccmp
ENCODING -1
SWIDTH 569 0
DWIDTH 9 0
BBX 8 12 0 0
BITMAP
F8
3C
00
1C
63
63
63
41
63
63
63
1C
ENDCHAR
STARTCHAR R_uni030F.ccmp
ENCODING -1
SWIDTH 624 0
DWIDTH 10 0
BBX 10 15 0 0
BITMAP
FC00
3600
0000
7F00
6180
6180
6180
6180
6180
7F00
6300
6300
6180
6180
61C0
ENDCHAR
STARTCHAR r_uni030F.ccmp
ENCODING -1
SWIDTH 351 0
DWIDTH 6 0
BBX 7 12 -1 0
BITMAP
F8
3C
00
36
38
30
30
30
30
30
30
30
ENDCHAR
STARTCHAR U_uni030F.ccmp
ENCODING -1
SWIDTH 651 0
DWIDTH 10 0
BBX 8 15 1 0
BITMAP
F8
3C
00
C3
C3
C3
C3
C3
C3
C3
C3
C3
C3
42
3C
ENDCHAR
STARTCHAR u_uni030F.ccmp
ENCODING -1
SWIDTH 555 0
DWIDTH 9 0
BBX 8 12 0 0
BITMAP
F8
3C
00
63
63
63
63
63
63
63
63
3F
ENDCHAR
STARTCHAR Upsilon1_acutecomb.ccmp
ENCODING -1
SWIDTH 608 0
DWIDTH 10 0
BBX 13 13 -3 0
BITMAP
6000
4C18
C630
0620
0260
0340
01C0
01C0
0180
0180
0180
0180
0180
ENDCHAR
STARTCHAR B_dotbelowcomb.ccmp
ENCODING -1
SWIDTH 630 0
DWIDTH 10 0
BBX 8 15 1 -3
BITMAP
FC
C3
C3
C3
C7
FC
C3
C3
C3
C3
C3
FE
00
18
18
ENDCHAR
STARTCHAR b_dotbelowcomb.ccmp
ENCODING -1
SWIDTH 562 0
DWIDTH 9 0
BBX 7 15 1 -3
BITMAP
C0
C0
C0
FC
C6
C6
C6
C6
C6
C6
C6
FC
00
18
18
ENDCHAR
STARTCHAR D_dotbelowcomb.ccmp
ENCODING -1
SWIDTH 653 0
DWIDTH 10 0
BBX 8 15 1 -3
BITMAP
FC
C6
C3
C3
C3
C3
C3
C3
C3
C3
C6
FC
00
30
38
ENDCHAR
STARTCHAR d_dotbelowcomb.ccmp
ENCODING -1
SWIDTH 564 0
DWIDTH 9 0
BBX 7 15 1 -3
BITMAP
06
06
06
7E
C6
C6
C6
C6
C6
C6
C6
7E
00
18
18
ENDCHAR
STARTCHAR D_uniF6C3.ccmp
ENCODING -1
SWIDTH 653 0
DWIDTH 10 0
BBX 8 16 1 -4
BITMAP
FC
C6
C3
C3
C3
C3
C3
C3
C3
C3
C6
FC
00
10
10
30
ENDCHAR
STARTCHAR d_uniF6C3.ccmp
ENCODING -1
SWIDTH 564 0
DWIDTH 9 0
BBX 7 16 1 -4
BITMAP
06
06
06
7E
C6
C6
C6
C6
C6
C6
C6
7E
00
18
10
30
ENDCHAR
STARTCHAR H_dotbelowcomb.ccmp
ENCODING -1
SWIDTH 710 0
DWIDTH 11 0
BBX 9 15 1 -3
BITMAP
C180
C180
C180
C180
C180
FF80
C180
C180
C180
C180
C180
C180
0000
0C00
0C00
ENDCHAR
STARTCHAR h_dotbelowcomb.ccmp
ENCODING -1
SWIDTH 555 0
DWIDTH 9 0
BBX 7 15 1 -3
BITMAP
C0
C0
C0
DC
E6
C6
C6
C6
C6
C6
C6
C6
00
18
38
ENDCHAR
STARTCHAR K_acutecomb.ccmp
ENCODING -1
SWIDTH 630 0
DWIDTH 10 0
BBX 9 15 1 0
BITMAP
0C00
1800
0000
C380
C700
C600
CC00
D800
D800
FC00
EC00
C600
C700
C300
C180
ENDCHAR
STARTCHAR k_acutecomb.ccmp
ENCODING -1
SWIDTH 521 0
DWIDTH 8 0
BBX 7 15 1 0
BITMAP
0C
18
00
C0
C0
C0
CE
CC
D8
F0
F0
D8
CC
CC
C6
ENDCHAR
STARTCHAR K_dotbelowcomb.ccmp
ENCODING -1
SWIDTH 630 0
DWIDTH 10 0
BBX 9 14 1 -2
BITMAP
C380
C700
C600
CC00
D800
D800
FC00
EC00
C600
C700
C300
C180
1800
1800
ENDCHAR
STARTCHAR k_dotbelowcomb.ccmp
ENCODING -1
SWIDTH 521 0
DWIDTH 8 0
BBX 7 15 1 -3
BITMAP
C0
C0
C0
CE
CC
D8
F0
F0
D8
CC
CC
C6
00
30
30
ENDCHAR
STARTCHAR L_dotbelowcomb.ccmp
ENCODING -1
SWIDTH 541 0
DWIDTH 9 0
BBX 7 15 1 -3
BITMAP
C0
C0
C0
C0
C0
C0
C0
C0
C0
C0
C0
FE
00
18
18
ENDCHAR
STARTCHAR l_dotbelowcomb.ccmp
ENCODING -1
SWIDTH 255 0
DWIDTH 4 0
BBX 2 15 1 -3
BITMAP
C0
C0
C0
C0
C0
C0
C0
C0
C0
C0
C0
C0
00
C0
C0
ENDCHAR
STARTCHAR M_dotbelowcomb.ccmp
ENCODING -1
SWIDTH 875 0
DWIDTH 14 0
BBX 12 15 1 -3
BITMAP
E070
E070
F0F0
F0F0
D0B0
D9B0
D9B0
C930
CF30
CF30
C630
C630
0000
0600
0600
ENDCHAR
STARTCHAR m_dotbelowcomb.ccmp
ENCODING -1
SWIDTH 870 0
DWIDTH 14 0
BBX 12 12 1 -3
BITMAP
FDE0
C630
C630
C630
C630
C630
C630
C630
C630
0000
0600
0600
ENDCHAR
STARTCHAR N_dotbelowcomb.ccmp
ENCODING -1
SWIDTH 709 0
DWIDTH 11 0
BBX 9 15 1 -3
BITMAP
C180
E180
E180
F180
F980
D980
CD80
CD80
C780
C780
C380
C180
0000
0C00
0C00
ENDCHAR
STARTCHAR n_dotbelowcomb.ccmp
ENCODING -1
SWIDTH 556 0
DWIDTH 9 0
BBX 7 12 1 -3
BITMAP
DC
E6
C6
C6
C6
C6
C6
C6
C6
00
30
30
ENDCHAR
STARTCHAR O_tildecomb_acutecomb.ccmp
ENCODING -1
SWIDTH 690 0
DWIDTH 11 0
BBX 9 18 1 0
BITMAP
0400
0800
0000
1200
2C00
0000
3E00
6300
C180
C180
C180
C180
C180
C180
C180
C180
6300
3E00
ENDCHAR
STARTCHAR P_acutecomb.ccmp
ENCODING -1
SWIDTH 639 0
DWIDTH 10 0
BBX 9 15 1 0
BITMAP
0C00
1800
0000
FE00
C300
C300
C180
C300
C300
FE00
C000
C000
C000
C000
C000
ENDCHAR
STARTCHAR p_acutecomb.ccmp
ENCODING -1
SWIDTH 562 0
DWIDTH 9 0
BBX 7 15 1 -3
BITMAP
0E
18
00
FC
C6
C6
C6
C6
C6
C6
C6
FC
C0
C0
C0
ENDCHAR
STARTCHAR R_dotbelowcomb.ccmp
ENCODING -1
SWIDTH 624 0
DWIDTH 10 0
BBX 9 15 1 -3
BITMAP
FE00
C300
C300
C300
C300
C300
FE00
C600
C600
C300
C300
C380
0000
1800
1800
ENDCHAR
STARTCHAR r_dotbelowcomb.ccmp
ENCODING -1
SWIDTH 351 0
DWIDTH 6 0
BBX 5 12 1 -3
BITMAP
D8
E0
C0
C0
C0
C0
C0
C0
C0
00
C0
C0
ENDCHAR
STARTCHAR S_dotbelowcomb.ccmp
ENCODING -1
SWIDTH 603 0
DWIDTH 10 0
BBX 8 15 1 -3
BITMAP
3C
63
C3
C3
E0
70
1C
07
C3
C3
63
3E
00
18
18
ENDCHAR
STARTCHAR s_dotbelowcomb.ccmp
ENCODING -1
SWIDTH 516 0
DWIDTH 8 0
BBX 7 12 0 -3
BITMAP
3C
66
66
70
3C
06
C2
66
3C
00
18
18
ENDCHAR
STARTCHAR T_dotbelowcomb.ccmp
ENCODING -1
SWIDTH 606 0
DWIDTH 10 0
BBX 9 15 0 -3
BITMAP
FF80
0C00
0C00
0C00
0C00
0C00
0C00
0C00
0C00
0C00
0C00
0C00
0000
0C00
0C00
ENDCHAR
STARTCHAR t_dotbelowcomb.ccmp
ENCODING -1
SWIDTH 332 0
DWIDTH 5 0
BBX 5 14 0 -3
BITMAP
60
60
F8
60
60
60
60
60
60
60
38
00
30
38
ENDCHAR
STARTCHAR U_tildecomb_acutecomb.ccmp
ENCODING -1
SWIDTH 651 0
DWIDTH 10 0
BBX 8 18 1 0
BITMAP
0C
08
00
34
2C
00
C3
C3
C3
C3
C3
C3
C3
C3
C3
C3
42
3C
ENDCHAR
STARTCHAR V_tildecomb.ccmp
ENCODING -1
SWIDTH 646 0
DWIDTH 10 0
BBX 10 15 0 0
BITMAP
1900
3600
0000
C0C0
E1C0
6180
6180
6380
3300
3300
1200
1E00
1E00
0C00
0C00
ENDCHAR
STARTCHAR v_tildecomb.ccmp
ENCODING -1
SWIDTH 494 0
DWIDTH 8 0
BBX 8 12 0 0
BITMAP
32
4C
00
C3
66
66
66
24
3C
3C
18
18
ENDCHAR
STARTCHAR V_dotbelowcomb.ccmp
ENCODING -1
SWIDTH 646 0
DWIDTH 10 0
BBX 10 15 0 -3
BITMAP
C0C0
E1C0
6180
6180
6380
3300
3300
1200
1E00
1E00
0C00
0C00
0000
0C00
0C00
ENDCHAR
STARTCHAR v_dotbelowcomb.ccmp
ENCODING -1
SWIDTH 494 0
DWIDTH 8 0
BBX 8 12 0 -3
BITMAP
C3
66
66
66
24
3C
3C
18
18
00
18
18
ENDCHAR
STARTCHAR W_dotbelowcomb.ccmp
ENCODING -1
SWIDTH 879 0
DWIDTH 14 0
BBX 14 15 0 -3
BITMAP
C30C
6318
6318
6798
6798
2498
3490
3CF0
3CF0
3870
1860
1860
0000
0300
0300
ENDCHAR
STARTCHAR w_dotbelowcomb.ccmp
ENCODING -1
SWIDTH 743 0
DWIDTH 12 0
BBX 12 12 0 -3
BITMAP
C630
4660
6660
6F60
6B40
2940
39C0
39C0
3080
0000
0600
0600
ENDCHAR
STARTCHAR Z_dotbelowcomb.ccmp
ENCODING -1
SWIDTH 602 0
DWIDTH 10 0
BBX 8 15 1 -3
BITMAP
FF
06
06
0C
1C
18
38
30
60
60
C0
FF
00
18
18
ENDCHAR
STARTCHAR z_dotbelowcomb.ccmp
ENCODING -1
SWIDTH 502 0
DWIDTH 8 0
BBX 7 12 1 -3
BITMAP
FC
0C
18
38
30
70
60
C0
FE
00
30
30
ENDCHAR
STARTCHAR Alphatonos.c2sc
ENCODING -1
SWIDTH 577 0
DWIDTH 9 0
BBX 9 11 0 0
BITMAP
6000
4000
CC00
1C00
1E00
3600
3600
2300
7F00
6180
C180
ENDCHAR
STARTCHAR Epsilontonos.c2sc
ENCODING -1
SWIDTH 513 0
DWIDTH 8 0
BBX 10 11 -2 0
BITMAP
6000
4000
DFC0
1800
1800
1800
1F80
1800
1800
1800
1FC0
ENDCHAR
STARTCHAR Etatonos.c2sc
ENCODING -1
SWIDTH 637 0
DWIDTH 10 0
BBX 11 11 -2 0
BITMAP
6000
4000
D860
1860
1860
1860
1FE0
1860
1860
1860
1860
ENDCHAR
STARTCHAR Iotatonos.c2sc
ENCODING -1
SWIDTH 277 0
DWIDTH 4 0
BBX 5 11 -2 0
BITMAP
60
40
C8
08
08
08
08
08
08
08
08
ENDCHAR
STARTCHAR Omicrontonos.c2sc
ENCODING -1
SWIDTH 598 0
DWIDTH 10 0
BBX 10 11 -1 0
BITMAP
4000
C000
8F00
1980
30C0
30C0
30C0
30C0
30C0
1980
0F00
ENDCHAR
STARTCHAR Upsilontonos.c2sc
ENCODING -1
SWIDTH 558 0
DWIDTH 9 0
BBX 11 11 -2 0
BITMAP
C000
8000
9860
18C0
0CC0
0D80
0700
0300
0300
0300
0300
ENDCHAR
STARTCHAR Omegatonos.c2sc
ENCODING -1
SWIDTH 616 0
DWIDTH 10 0
BBX 10 11 -1 0
BITMAP
6000
C000
CF00
1880
30C0
30C0
30C0
30C0
30C0
1980
3DC0
ENDCHAR
STARTCHAR Alpha.c2sc
ENCODING -1
SWIDTH 577 0
DWIDTH 9 0
BBX 9 9 0 0
BITMAP
0C00
1C00
1E00
3600
3600
2300
7F00
6180
C180
ENDCHAR
STARTCHAR Beta.c2sc
ENCODING -1
SWIDTH 546 0
DWIDTH 9 0
BBX 7 9 1 0
BITMAP
FC
C6
C6
C6
FC
C6
C6
C6
FC
ENDCHAR
STARTCHAR Epsilon.c2sc
ENCODING -1
SWIDTH 484 0
DWIDTH 8 0
BBX 6 9 1 0
BITMAP
FC
C0
C0
C0
FC
C0
C0
C0
FC
ENDCHAR
STARTCHAR Zeta.c2sc
ENCODING -1
SWIDTH 520 0
DWIDTH 8 0
BBX 7 9 1 0
BITMAP
FE
0C
1C
18
30
70
60
C0
FE
ENDCHAR
STARTCHAR Eta.c2sc
ENCODING -1
SWIDTH 608 0
DWIDTH 10 0
BBX 8 9 1 0
BITMAP
C3
C3
C3
C3
FF
C3
C3
C3
C3
ENDCHAR
STARTCHAR Iota.c2sc
ENCODING -1
SWIDTH 248 0
DWIDTH 4 0
BBX 2 9 1 0
BITMAP
C0
C0
C0
C0
C0
C0
C0
C0
C0
ENDCHAR
STARTCHAR Kappa.c2sc
ENCODING -1
SWIDTH 544 0
DWIDTH 9 0
BBX 8 9 1 0
BITMAP
C7
CC
D8
F8
F8
F8
CC
CE
C7
ENDCHAR
STARTCHAR Mu.c2sc
ENCODING -1
SWIDTH 752 0
DWIDTH 12 0
BBX 10 9 1 0
BITMAP
E1C0
E1C0
E1C0
F3C0
D2C0
DEC0
DEC0
CCC0
CCC0
ENDCHAR
STARTCHAR Nu.c2sc
ENCODING -1
SWIDTH 607 0
DWIDTH 10 0
BBX 8 9 1 0
BITMAP
C3
E3
E3
F3
DB
CB
CF
C7
C3
ENDCHAR
STARTCHAR Omicron.c2sc
ENCODING -1
SWIDTH 593 0
DWIDTH 10 0
BBX 8 9 1 0
BITMAP
3C
66
C3
C3
C3
C3
C3
66
3C
ENDCHAR
STARTCHAR Rho.c2sc
ENCODING -1
SWIDTH 553 0
DWIDTH 9 0
BBX 7 9 1 0
BITMAP
FC
C6
C2
C6
FC
C0
C0
C0
C0
ENDCHAR
STARTCHAR Tau.c2sc
ENCODING -1
SWIDTH 528 0
DWIDTH 8 0
BBX 8 9 0 0
BITMAP
FF
18
18
18
18
18
18
18
18
ENDCHAR
STARTCHAR Upsilon.c2sc
ENCODING -1
SWIDTH 529 0
DWIDTH 8 0
BBX 8 9 0 0
BITMAP
C3
63
66
34
1C
18
18
18
18
ENDCHAR
STARTCHAR Chi.c2sc
ENCODING -1
SWIDTH 545 0
DWIDTH 9 0
BBX 9 9 0 0
BITMAP
E300
6600
3600
1C00
1C00
3C00
3600
6700
E380
ENDCHAR
STARTCHAR Iotadieresis.c2sc
ENCODING -1
SWIDTH 248 0
DWIDTH 4 0
BBX 6 12 -1 0
BITMAP
CC
CC
00
30
30
30
30
30
30
30
30
30
ENDCHAR
STARTCHAR Upsilondieresis.c2sc
ENCODING -1
SWIDTH 529 0
DWIDTH 8 0
BBX 8 12 0 0
BITMAP
26
66
00
C3
63
66
34
1C
18
18
18
18
ENDCHAR
STARTCHAR uni0401.c2sc
ENCODING -1
SWIDTH 484 0
DWIDTH 8 0
BBX 6 12 1 0
BITMAP
4C
CC
00
FC
C0
C0
C0
FC
C0
C0
C0
FC
ENDCHAR
STARTCHAR uni0403.c2sc
ENCODING -1
SWIDTH 465 0
DWIDTH 7 0
BBX 6 12 1 0
BITMAP
1C
30
00
FC
C0
C0
C0
C0
C0
C0
C0
C0
ENDCHAR
STARTCHAR uni0405.c2sc
ENCODING -1
SWIDTH 525 0
DWIDTH 8 0
BBX 8 9 0 0
BITMAP
3C
66
43
60
3C
06
C3
63
3E
ENDCHAR
STARTCHAR uni0406.c2sc
ENCODING -1
SWIDTH 248 0
DWIDTH 4 0
BBX 2 9 1 0
BITMAP
C0
C0
C0
C0
C0
C0
C0
C0
C0
ENDCHAR
STARTCHAR uni0407.c2sc
ENCODING -1
SWIDTH 248 0
DWIDTH 4 0
BBX 6 12 -1 0
BITMAP
CC
CC
00
30
30
30
30
30
30
30
30
30
ENDCHAR
STARTCHAR uni0408.c2sc
ENCODING -1
SWIDTH 479 0
DWIDTH 8 0
BBX 7 9 0 0
BITMAP
06
06
06
06
06
06
06
E6
7C
ENDCHAR
STARTCHAR uni040C.c2sc
ENCODING -1
SWIDTH 544 0
DWIDTH 9 0
BBX 8 12 1 0
BITMAP
1C
30
00
C7
CC
D8
F8
F8
F8
CC
CE
C7
ENDCHAR
STARTCHAR uni040E.c2sc
ENCODING -1
SWIDTH 534 0
DWIDTH 9 0
BBX 9 12 0 0
BITMAP
2600
1C00
0000
E380
6300
3300
3600
1E00
1C00
1C00
0800
3000
ENDCHAR
STARTCHAR uni0410.c2sc
ENCODING -1
SWIDTH 577 0
DWIDTH 9 0
BBX 9 9 0 0
BITMAP
0C00
1C00
1E00
3600
3600
2300
7F00
6180
C180
ENDCHAR
STARTCHAR uni0412.c2sc
ENCODING -1
SWIDTH 546 0
DWIDTH 9 0
BBX 7 9 1 0
BITMAP
FC
C6
C6
C6
FC
C6
C6
C6
FC
ENDCHAR
STARTCHAR uni0413.c2sc
ENCODING -1
SWIDTH 465 0
DWIDTH 7 0
BBX 6 9 1 0
BITMAP
FC
C0
C0
C0
C0
C0
C0
C0
C0
ENDCHAR
STARTCHAR uni0415.c2sc
ENCODING -1
SWIDTH 484 0
DWIDTH 8 0
BBX 6 9 1 0
BITMAP
FC
C0
C0
C0
FC
C0
C0
C0
FC
ENDCHAR
STARTCHAR uni0419.c2sc
ENCODING -1
SWIDTH 611 0
DWIDTH 10 0
BBX 8 12 1 0
BITMAP
64
3C
00
C3
C7
CF
CF
DB
F3
F3
E3
C3
ENDCHAR
STARTCHAR uni041C.c2sc
ENCODING -1
SWIDTH 752 0
DWIDTH 12 0
BBX 10 9 1 0
BITMAP
E1C0
E1C0
E1C0
F3C0
D2C0
DEC0
DEC0
CCC0
CCC0
ENDCHAR
STARTCHAR uni041D.c2sc
ENCODING -1
SWIDTH 608 0
DWIDTH 10 0
BBX 8 9 1 0
BITMAP
C3
C3
C3
C3
FF
C3
C3
C3
C3
ENDCHAR
STARTCHAR uni041E.c2sc
ENCODING -1
SWIDTH 593 0
DWIDTH 10 0
BBX 8 9 1 0
BITMAP
3C
66
C3
C3
C3
C3
C3
66
3C
ENDCHAR
STARTCHAR uni041F.c2sc
ENCODING -1
SWIDTH 605 0
DWIDTH 10 0
BBX 8 9 1 0
BITMAP
FF
C3
C3
C3
C3
C3
C3
C3
C3
ENDCHAR
STARTCHAR uni0420.c2sc
ENCODING -1
SWIDTH 553 0
DWIDTH 9 0
BBX 7 9 1 0
BITMAP
FC
C6
C2
C6
FC
C0
C0
C0
C0
ENDCHAR
STARTCHAR uni0421.c2sc
ENCODING -1
SWIDTH 562 0
DWIDTH 9 0
BBX 8 9 1 0
BITMAP
3C
C6
C2
C1
C0
C0
C3
C6
7C
ENDCHAR
STARTCHAR uni0422.c2sc
ENCODING -1
SWIDTH 528 0
DWIDTH 8 0
BBX 8 9 0 0
BITMAP
FF
18
18
18
18
18
18
18
18
ENDCHAR
STARTCHAR uni0425.c2sc
ENCODING -1
SWIDTH 545 0
DWIDTH 9 0
BBX 9 9 0 0
BITMAP
E300
6600
3600
1C00
1C00
3C00
3600
6700
E380
ENDCHAR
STARTCHAR uni0498.c2sc
ENCODING -1
SWIDTH 534 0
DWIDTH 9 0
BBX 7 13 1 -4
BITMAP
7C
C6
06
06
38
06
C6
C6
7C
30
30
30
30
ENDCHAR
STARTCHAR uni04A2.c2sc
ENCODING -1
SWIDTH 608 0
DWIDTH 10 0
BBX 10 12 1 -3
BITMAP
C300
C300
C300
C300
FF00
C300
C300
C300
C3C0
00C0
00C0
00C0
ENDCHAR
STARTCHAR uni04AA.c2sc
ENCODING -1
SWIDTH 562 0
DWIDTH 9 0
BBX 8 12 1 -3
BITMAP
3C
C6
C2
C1
C0
C0
C3
C6
7C
18
18
18
ENDCHAR
STARTCHAR uni04AE.c2sc
ENCODING -1
SWIDTH 529 0
DWIDTH 8 0
BBX 8 9 0 0
BITMAP
C3
63
66
34
1C
18
18
18
18
ENDCHAR
STARTCHAR uni04BE.c2sc
ENCODING -1
SWIDTH 749 0
DWIDTH 12 0
BBX 11 13 0 -4
BITMAP
07C0
0C60
D860
D860
7FE0
1800
1800
0C00
07C0
0100
0100
0100
0100
ENDCHAR
STARTCHAR uni04E2.c2sc
ENCODING -1
SWIDTH 611 0
DWIDTH 10 0
BBX 8 11 1 0
BITMAP
7E
00
C3
C7
CF
CF
DB
F3
F3
E3
C3
ENDCHAR
STARTCHAR uni04EE.c2sc
ENCODING -1
SWIDTH 534 0
DWIDTH 9 0
BBX 9 11 0 0
BITMAP
3E00
0000
E380
6300
3300
3600
1E00
1C00
1C00
0800
3000
ENDCHAR
STARTCHAR uni0424.c2sc
ENCODING -1
SWIDTH 701 0
DWIDTH 11 0
BBX 10 9 1 0
BITMAP
0800
7F00
C980
C880
88C0
C980
C980
7F00
0800
ENDCHAR
STARTCHAR IJ.c2sc
ENCODING -1
SWIDTH 727 0
DWIDTH 12 0
BBX 10 9 1 0
BITMAP
C0C0
C0C0
C0C0
C0C0
C0C0
C0C0
C0C0
DCC0
CF80
ENDCHAR
STARTCHAR AEacute.c2sc
ENCODING -1
SWIDTH 784 0
DWIDTH 13 0
BBX 12 12 0 0
BITMAP
01C0
0300
0000
07F0
0F00
0B00
1BE0
1300
3F00
6300
6300
C3F0
ENDCHAR
STARTCHAR Oslashacute.c2sc
ENCODING -1
SWIDTH 593 0
DWIDTH 10 0
BBX 8 12 1 0
BITMAP
0C
18
00
3F
66
C7
CB
DB
D3
E3
66
FC
ENDCHAR
STARTCHAR uni0218.c2sc
ENCODING -1
SWIDTH 525 0
DWIDTH 8 0
BBX 8 13 0 -4
BITMAP
3C
66
43
60
3C
06
C3
63
3E
00
08
18
10
ENDCHAR
STARTCHAR Wgrave.c2sc
ENCODING -1
SWIDTH 753 0
DWIDTH 12 0
BBX 12 12 0 0
BITMAP
1C00
0600
0000
C630
4620
6760
6F60
6D60
2940
39C0
39C0
30C0
ENDCHAR
STARTCHAR Wacute.c2sc
ENCODING -1
SWIDTH 753 0
DWIDTH 12 0
BBX 12 12 0 0
BITMAP
0380
0600
0000
C630
4620
6760
6F60
6D60
2940
39C0
39C0
30C0
ENDCHAR
STARTCHAR Wdieresis.c2sc
ENCODING -1
SWIDTH 753 0
DWIDTH 12 0
BBX 12 12 0 0
BITMAP
1980
1980
0000
C630
4620
6760
6F60
6D60
2940
39C0
39C0
30C0
ENDCHAR
STARTCHAR Ygrave.c2sc
ENCODING -1
SWIDTH 529 0
DWIDTH 8 0
BBX 8 12 0 0
BITMAP
70
18
00
C3
63
66
34
1C
18
18
18
18
ENDCHAR
STARTCHAR Aogonek.locl
ENCODING -1
SWIDTH 665 0
DWIDTH 11 0
BBX 11 15 0 -3
BITMAP
0C00
0E00
0E00
1A00
1B00
3300
3180
3180
7F80
60C0
60C0
C4C0
0C20
0800
0C00
ENDCHAR
STARTCHAR aogonek.locl
ENCODING -1
SWIDTH 541 0
DWIDTH 9 0
BBX 7 12 1 -3
BITMAP
7C
CC
C6
06
7E
C6
C6
CE
76
60
40
70
ENDCHAR
STARTCHAR Eogonek.locl
ENCODING -1
SWIDTH 565 0
DWIDTH 9 0
BBX 8 15 1 -3
BITMAP
FF
C0
C0
C0
C0
FE
C0
C0
C0
C0
C0
FF
30
30
38
ENDCHAR
STARTCHAR eogonek.locl
ENCODING -1
SWIDTH 536 0
DWIDTH 9 0
BBX 7 12 1 -3
BITMAP
3C
66
C6
C6
FE
C0
C4
66
3C
30
20
30
ENDCHAR
STARTCHAR Aogonek.c2sc.locl
ENCODING -1
SWIDTH 577 0
DWIDTH 9 0
BBX 9 12 0 -3
BITMAP
0C00
1C00
1E00
3600
3600
2300
7F00
6180
C980
1C00
1000
1C00
ENDCHAR
STARTCHAR Eogonek.c2sc.locl
ENCODING -1
SWIDTH 484 0
DWIDTH 8 0
BBX 6 12 1 -3
BITMAP
FC
C0
C0
C0
FC
C0
C0
C0
FC
20
60
30
ENDCHAR
STARTCHAR glyph1293
ENCODING -1
SWIDTH 262 0
DWIDTH 4 0
BBX 2 12 1 -3
BITMAP
C0
C0
C0
C0
C0
C0
C0
C0
C0
00
C0
C0
ENDCHAR
ENDFONT
